<?xml version="1.0" encoding="UTF-8"?>
<!DOCTYPE svg PUBLIC "-//W3C//DTD SVG 1.1//EN" "http://www.w3.org/Graphics/SVG/1.1/DTD/svg11.dtd">
<!-- Creator: CorelDRAW 2019 -->
<svg xmlns="http://www.w3.org/2000/svg" xml:space="preserve" width="500px" height="500px" version="1.1" style="shape-rendering:geometricPrecision; text-rendering:geometricPrecision; image-rendering:optimizeQuality; fill-rule:evenodd; clip-rule:evenodd"
viewBox="0 0 500 500"
 xmlns:xlink="http://www.w3.org/1999/xlink"
 xmlns:xodm="http://www.corel.com/coreldraw/odm/2003">
 <defs>
  <style type="text/css">
   <![CDATA[
    .str0 {stroke:#333333;stroke-width:5;stroke-miterlimit:22.9256}
    .fil4 {fill:none}
    .fil2 {fill:#FFCC00}
    .fil1 {fill:#FFCC00}
    .fil0 {fill:#FFFF66}
    .fil3 {fill:#FFFF99}
   ]]>
  </style>
   <clipPath id="id0">
    <path d="M64.032 234.323l35 0c8.525,0 15.5,6.975 15.5,15.5l0 0c0,8.525 -6.975,15.5 -15.5,15.5l-35 0c-8.525,0 -15.5,-6.975 -15.5,-15.5l0 0c0,-8.525 6.975,-15.5 15.5,-15.5zm185.968 -92.823c59.923,0 108.5,48.577 108.5,108.5 0,59.923 -48.577,108.5 -108.5,108.5 -59.923,0 -108.5,-48.577 -108.5,-108.5 0,-59.923 48.577,-108.5 108.5,-108.5zm-120.414 -34.085l24.749 24.749c6.028,6.028 6.028,15.892 0,21.92l0 0c-6.029,6.029 -15.892,6.029 -21.92,0.001l-24.749 -24.75c-6.028,-6.027 -6.028,-15.891 0,-21.92l0 0c6.028,-6.028 15.892,-6.028 21.92,0zm238 238.5l24.749 24.749c6.028,6.028 6.028,15.892 0,21.92l0 0c-6.029,6.028 -15.892,6.028 -21.92,0l-24.749 -24.749c-6.028,-6.028 -6.028,-15.892 0,-21.92l0 0c6.028,-6.028 15.892,-6.028 21.92,0zm-21.921 -213.751l24.749 -24.749c6.028,-6.028 15.892,-6.028 21.92,0l0 0c6.028,6.029 6.028,15.893 0,21.92l-24.749 24.75c-6.028,6.028 -15.891,6.028 -21.92,0l0 0c-6.028,-6.029 -6.028,-15.893 0,-21.921zm-237.999 238.501l24.749 -24.75c6.028,-6.028 15.891,-6.028 21.919,0l0 0c6.029,6.029 6.029,15.893 0.001,21.921l-24.749 24.749c-6.028,6.028 -15.892,6.028 -21.92,0l0 0c-6.028,-6.029 -6.028,-15.893 0,-21.92zm126.658 -271.633l0 -35.001c0,-8.525 6.974,-15.5 15.499,-15.5l0 0c8.526,0 15.5,6.975 15.5,15.5l0 35.001c0,8.525 -6.974,15.499 -15.5,15.499l0 0c-8.525,0 -15.499,-6.974 -15.499,-15.499zm0.353 336.936l0 -35c0,-8.525 6.975,-15.5 15.5,-15.5l0 0c8.525,0 15.5,6.975 15.5,15.5l0 35c0,8.525 -6.975,15.5 -15.5,15.5l0 0c-8.525,0 -15.5,-6.975 -15.5,-15.5zm166.291 -201.291l35 0c8.525,0 15.5,6.974 15.5,15.5l0 0c0,8.525 -6.975,15.499 -15.5,15.499l-35 0c-8.525,0 -15.5,-6.974 -15.5,-15.499l0 0c0,-8.526 6.975,-15.5 15.5,-15.5z"/>
   </clipPath>
 </defs>
 <g id="Layer_x0020_1">
  <metadata id="CorelCorpID_0Corel-Layer"/>
  <path class="fil0" d="M64.032 234.323l35 0c8.525,0 15.5,6.975 15.5,15.5l0 0c0,8.525 -6.975,15.5 -15.5,15.5l-35 0c-8.525,0 -15.5,-6.975 -15.5,-15.5l0 0c0,-8.525 6.975,-15.5 15.5,-15.5zm185.968 -92.823c59.923,0 108.5,48.577 108.5,108.5 0,59.923 -48.577,108.5 -108.5,108.5 -59.923,0 -108.5,-48.577 -108.5,-108.5 0,-59.923 48.577,-108.5 108.5,-108.5zm-120.414 -34.085l24.749 24.749c6.028,6.028 6.028,15.892 0,21.92l0 0c-6.029,6.029 -15.892,6.029 -21.92,0.001l-24.749 -24.75c-6.028,-6.027 -6.028,-15.891 0,-21.92l0 0c6.028,-6.028 15.892,-6.028 21.92,0zm238 238.5l24.749 24.749c6.028,6.028 6.028,15.892 0,21.92l0 0c-6.029,6.028 -15.892,6.028 -21.92,0l-24.749 -24.749c-6.028,-6.028 -6.028,-15.892 0,-21.92l0 0c6.028,-6.028 15.892,-6.028 21.92,0zm-21.921 -213.751l24.749 -24.749c6.028,-6.028 15.892,-6.028 21.92,0l0 0c6.028,6.029 6.028,15.893 0,21.92l-24.749 24.75c-6.028,6.028 -15.891,6.028 -21.92,0l0 0c-6.028,-6.029 -6.028,-15.893 0,-21.921zm-237.999 238.501l24.749 -24.75c6.028,-6.028 15.891,-6.028 21.919,0l0 0c6.029,6.029 6.029,15.893 0.001,21.921l-24.749 24.749c-6.028,6.028 -15.892,6.028 -21.92,0l0 0c-6.028,-6.029 -6.028,-15.893 0,-21.92zm126.658 -271.633l0 -35.001c0,-8.525 6.974,-15.5 15.499,-15.5l0 0c8.526,0 15.5,6.975 15.5,15.5l0 35.001c0,8.525 -6.974,15.499 -15.5,15.499l0 0c-8.525,0 -15.499,-6.974 -15.499,-15.499zm0.353 336.936l0 -35c0,-8.525 6.975,-15.5 15.5,-15.5l0 0c8.525,0 15.5,6.975 15.5,15.5l0 35c0,8.525 -6.975,15.5 -15.5,15.5l0 0c-8.525,0 -15.5,-6.975 -15.5,-15.5zm166.291 -201.291l35 0c8.525,0 15.5,6.974 15.5,15.5l0 0c0,8.525 -6.975,15.499 -15.5,15.499l-35 0c-8.525,0 -15.5,-6.974 -15.5,-15.499l0 0c0,-8.526 6.975,-15.5 15.5,-15.5z"/>
  <g style="clip-path:url(#id0)">
   <g id="_1281687488">
    <path id="1" class="fil1" d="M327.076 177.117c23.645,19.864 38.679,49.647 38.679,82.945 0,59.807 -48.483,108.29 -108.29,108.29 -41.925,0 -78.282,-23.828 -96.277,-58.678 18.823,15.814 43.102,25.344 69.61,25.344 59.807,0 108.29,-48.483 108.29,-108.289 0,-17.882 -4.337,-34.749 -12.012,-49.612z"/>
    <path class="fil2" d="M114.696 234.323c0.503,2.264 0.777,4.68 0.777,7.186l0 0.001c0,12.681 -6.975,23.056 -15.5,23.056l-35.001 0c-8.525,0 -15.499,-10.375 -15.499,-23.056l0 -0.001c0,-0.923 0.038,-1.833 0.11,-2.729 2.042,9.19 7.882,15.87 14.722,15.87l35.001 0c7.905,0 14.475,-8.92 15.39,-20.327z"/>
    <path class="fil2" d="M451.363 266.188c0.503,-2.264 0.777,-4.68 0.777,-7.186l0 -0.001c0,-12.681 -6.975,-23.056 -15.5,-23.056l-35.001 0c-8.524,0 -15.499,10.375 -15.499,23.056l0 0.001c0,0.923 0.038,1.833 0.11,2.729 2.042,-9.19 7.883,-15.87 14.723,-15.87l35.001 0c7.904,0 14.474,8.92 15.389,20.327z"/>
    <path class="fil2" d="M164.407 141.362c-1.245,1.957 -2.76,3.858 -4.532,5.631l-0.001 0.001c-8.966,8.966 -21.235,11.371 -27.263,5.343l-24.749 -24.75c-6.028,-6.028 -3.624,-18.296 5.343,-27.262l0.001 -0.001c0.652,-0.653 1.323,-1.27 2.007,-1.852 -5.054,7.942 -5.647,16.795 -0.811,21.632l24.75 24.749c5.589,5.59 16.542,3.928 25.255,-3.491z"/>
    <path class="fil2" d="M141.82 334.897c1.956,1.245 3.858,2.759 5.63,4.532l0.001 0c8.967,8.967 11.371,21.235 5.343,27.263l-24.75 24.75c-6.027,6.028 -18.296,3.623 -27.262,-5.343l-0.001 -0.001c-0.653,-0.653 -1.269,-1.324 -1.852,-2.008 7.942,5.055 16.796,5.648 21.632,0.811l24.75 -24.749c5.589,-5.589 3.928,-16.543 -3.491,-25.255z"/>
    <path class="fil2" d="M236.018 385.843c2.264,-0.503 4.68,-0.777 7.186,-0.777l0.001 0c12.681,0 23.056,6.975 23.056,15.499l0 35.002c0,8.524 -10.375,15.499 -23.056,15.499l-0.001 0c-0.923,0 -1.833,-0.038 -2.729,-0.11 9.19,-2.042 15.87,-7.883 15.87,-14.723l0 -35.001c0,-7.904 -8.92,-14.474 -20.327,-15.389z"/>
    <path class="fil2" d="M335.539 357.101c1.245,-1.957 2.76,-3.858 4.532,-5.631l0.001 -0.001c8.967,-8.966 21.235,-11.37 27.263,-5.343l24.75 24.75c6.028,6.028 3.623,18.296 -5.344,27.263l0 0c-0.653,0.653 -1.324,1.27 -2.008,1.852 5.054,-7.942 5.647,-16.795 0.811,-21.632l-24.749 -24.749c-5.59,-5.589 -16.543,-3.928 -25.256,3.491z"/>
    <path class="fil2" d="M356.844 163.996c-1.957,-1.245 -3.858,-2.759 -5.631,-4.532l-0.001 0c-8.966,-8.967 -11.37,-21.235 -5.343,-27.263l24.75 -24.75c6.028,-6.028 18.296,-3.623 27.263,5.343l0 0.001c0.653,0.653 1.27,1.324 1.852,2.008 -7.942,-5.055 -16.795,-5.648 -21.632,-0.811l-24.749 24.749c-5.589,5.589 -3.928,16.543 3.491,25.255z"/>
    <path class="fil2" d="M264.595 113.788c-2.264,0.503 -4.68,0.777 -7.186,0.777l-0.001 0c-12.681,0 -23.056,-6.975 -23.056,-15.499l0 -35.001c0,-8.525 10.375,-15.5 23.056,-15.5l0.001 0c0.923,0 1.833,0.038 2.729,0.11 -9.19,2.042 -15.87,7.883 -15.87,14.723l0 35.001c0,7.904 8.92,14.474 20.327,15.389z"/>
    <circle class="fil3" cx="197.141" cy="207.566" r="58.333"/>
   </g>
  </g>
  <path class="fil4 str0" d="M64.032 234.323l35 0c8.525,0 15.5,6.975 15.5,15.5l0 0c0,8.525 -6.975,15.5 -15.5,15.5l-35 0c-8.525,0 -15.5,-6.975 -15.5,-15.5l0 0c0,-8.525 6.975,-15.5 15.5,-15.5zm185.968 -92.823c59.923,0 108.5,48.577 108.5,108.5 0,59.923 -48.577,108.5 -108.5,108.5 -59.923,0 -108.5,-48.577 -108.5,-108.5 0,-59.923 48.577,-108.5 108.5,-108.5zm-120.414 -34.085l24.749 24.749c6.028,6.028 6.028,15.892 0,21.92l0 0c-6.029,6.029 -15.892,6.029 -21.92,0.001l-24.749 -24.75c-6.028,-6.027 -6.028,-15.891 0,-21.92l0 0c6.028,-6.028 15.892,-6.028 21.92,0zm238 238.5l24.749 24.749c6.028,6.028 6.028,15.892 0,21.92l0 0c-6.029,6.028 -15.892,6.028 -21.92,0l-24.749 -24.749c-6.028,-6.028 -6.028,-15.892 0,-21.92l0 0c6.028,-6.028 15.892,-6.028 21.92,0zm-21.921 -213.751l24.749 -24.749c6.028,-6.028 15.892,-6.028 21.92,0l0 0c6.028,6.029 6.028,15.893 0,21.92l-24.749 24.75c-6.028,6.028 -15.891,6.028 -21.92,0l0 0c-6.028,-6.029 -6.028,-15.893 0,-21.921zm-237.999 238.501l24.749 -24.75c6.028,-6.028 15.891,-6.028 21.919,0l0 0c6.029,6.029 6.029,15.893 0.001,21.921l-24.749 24.749c-6.028,6.028 -15.892,6.028 -21.92,0l0 0c-6.028,-6.029 -6.028,-15.893 0,-21.92zm126.658 -271.633l0 -35.001c0,-8.525 6.974,-15.5 15.499,-15.5l0 0c8.526,0 15.5,6.975 15.5,15.5l0 35.001c0,8.525 -6.974,15.499 -15.5,15.499l0 0c-8.525,0 -15.499,-6.974 -15.499,-15.499zm0.353 336.936l0 -35c0,-8.525 6.975,-15.5 15.5,-15.5l0 0c8.525,0 15.5,6.975 15.5,15.5l0 35c0,8.525 -6.975,15.5 -15.5,15.5l0 0c-8.525,0 -15.5,-6.975 -15.5,-15.5zm166.291 -201.291l35 0c8.525,0 15.5,6.974 15.5,15.5l0 0c0,8.525 -6.975,15.499 -15.5,15.499l-35 0c-8.525,0 -15.5,-6.974 -15.5,-15.499l0 0c0,-8.526 6.975,-15.5 15.5,-15.5z"/>
 </g>
</svg>
