<?xml version="1.0" encoding="UTF-8"?>
<!DOCTYPE svg PUBLIC "-//W3C//DTD SVG 1.1//EN" "http://www.w3.org/Graphics/SVG/1.1/DTD/svg11.dtd">
<!-- Creator: CorelDRAW 2019 -->
<svg xmlns="http://www.w3.org/2000/svg" xml:space="preserve" width="500px" height="500px" version="1.1" style="shape-rendering:geometricPrecision; text-rendering:geometricPrecision; image-rendering:optimizeQuality; fill-rule:evenodd; clip-rule:evenodd"
viewBox="0 0 500 500"
 xmlns:xlink="http://www.w3.org/1999/xlink"
 xmlns:xodm="http://www.corel.com/coreldraw/odm/2003">
 <defs>
  <style type="text/css">
   <![CDATA[
    .str1 {stroke:black;stroke-width:5;stroke-miterlimit:22.9256}
    .str0 {stroke:#333333;stroke-width:5;stroke-miterlimit:22.9256}
    .str3 {stroke:black;stroke-width:0.756;stroke-miterlimit:22.9256}
    .str2 {stroke:gray;stroke-width:0.756;stroke-miterlimit:22.9256}
    .fil4 {fill:none}
    .fil6 {fill:gray}
    .fil5 {fill:#E6E6E6}
    .fil2 {fill:#FFCC00}
    .fil1 {fill:#FFCC00}
    .fil0 {fill:#FFFF66}
    .fil3 {fill:#FFFF99}
   ]]>
  </style>
    <clipPath id="id0">
     <path d="M144.452 98.502c59.923,0 108.5,48.577 108.5,108.5 0,59.923 -48.577,108.5 -108.5,108.5 -59.923,0 -108.5,-48.577 -108.5,-108.5 0,-59.923 48.577,-108.5 108.5,-108.5z"/>
    </clipPath>
    <clipPath id="id1">
     <path d="M57.274 214.023l316.439 0c10.186,0 18.52,8.334 18.52,18.521l0 0c0,10.187 -8.334,18.521 -18.52,18.521l-316.439 0c-10.186,0 -18.52,-8.334 -18.52,-18.521l0 0c0,-10.187 8.334,-18.521 18.52,-18.521z"/>
    </clipPath>
    <clipPath id="id2">
     <path d="M129.089 269.964l316.439 0c10.186,0 18.52,8.334 18.52,18.52l0 0.001c0,10.186 -8.334,18.52 -18.52,18.52l-316.439 0c-10.186,0 -18.52,-8.334 -18.52,-18.52l0 -0.001c0,-10.186 8.334,-18.52 18.52,-18.52z"/>
    </clipPath>
    <clipPath id="id3">
     <path d="M62.224 327.845l238.503 0c7.678,0 13.959,6.281 13.959,13.959l0 0c0,7.678 -6.281,13.959 -13.959,13.959l-238.503 0c-7.677,0 -13.959,-6.281 -13.959,-13.959l0 0c0,-7.678 6.282,-13.959 13.959,-13.959z"/>
    </clipPath>
    <clipPath id="id4">
     <path d="M167.617 172.498l238.503 0c7.678,0 13.959,6.281 13.959,13.959l0 0c0,7.678 -6.281,13.959 -13.959,13.959l-238.503 0c-7.678,0 -13.959,-6.281 -13.959,-13.959l0 0c0,-7.678 6.281,-13.959 13.959,-13.959z"/>
    </clipPath>
    <clipPath id="id5">
     <path d="M110.361 370.163l267.693 0c8.618,0 15.668,7.05 15.668,15.667l0 0.001c0,8.617 -7.05,15.667 -15.668,15.667l-267.693 0c-8.617,0 -15.667,-7.05 -15.667,-15.667l0 -0.001c0,-8.617 7.05,-15.667 15.667,-15.667z"/>
    </clipPath>
    <clipPath id="id6">
     <path d="M423.909 214.023c10.228,0 18.52,8.292 18.52,18.521 0,10.228 -8.292,18.52 -18.52,18.52 -10.229,0 -18.521,-8.292 -18.521,-18.52 0,-10.229 8.292,-18.521 18.521,-18.521z"/>
    </clipPath>
    <clipPath id="id7">
     <path d="M76.173 269.964c10.229,0 18.52,8.292 18.52,18.52 0,10.229 -8.291,18.521 -18.52,18.521 -10.229,0 -18.52,-8.292 -18.52,-18.521 0,-10.228 8.291,-18.52 18.52,-18.52z"/>
    </clipPath>
    <clipPath id="id8">
     <path d="M370.236 323.284c10.229,0 18.521,8.292 18.521,18.52 0,10.229 -8.292,18.521 -18.521,18.521 -10.228,0 -18.52,-8.292 -18.52,-18.521 0,-10.228 8.292,-18.52 18.52,-18.52z"/>
    </clipPath>
 </defs>
 <g id="Layer_x0020_1">
  <metadata id="CorelCorpID_0Corel-Layer"/>
  <g id="_1292599752">
   <path class="fil0" d="M144.452 98.502c59.923,0 108.5,48.577 108.5,108.5 0,59.923 -48.577,108.5 -108.5,108.5 -59.923,0 -108.5,-48.577 -108.5,-108.5 0,-59.923 48.577,-108.5 108.5,-108.5z"/>
   <g style="clip-path:url(#id0)">
    <g>
     <path id="1" class="fil1" d="M221.528 134.118c23.645,19.865 38.679,49.648 38.679,82.946 0,59.807 -48.483,108.29 -108.29,108.29 -41.925,0 -78.282,-23.828 -96.277,-58.678 18.823,15.814 43.102,25.344 69.611,25.344 59.806,0 108.289,-48.483 108.289,-108.29 0,-17.881 -4.337,-34.748 -12.012,-49.612z"/>
     <path class="fil2" d="M9.148 191.325c0.503,2.264 0.777,4.68 0.777,7.186l0 0.001c0,12.681 -6.975,23.056 -15.5,23.056l-35.001 0c-8.525,0 -15.499,-10.375 -15.499,-23.056l0 -0.001c0,-0.923 0.038,-1.833 0.11,-2.729 2.042,9.19 7.883,15.87 14.722,15.87l35.001 0c7.905,0 14.475,-8.92 15.39,-20.327z"/>
     <path class="fil2" d="M345.815 223.19c0.503,-2.264 0.777,-4.68 0.777,-7.186l0 -0.001c0,-12.681 -6.975,-23.056 -15.5,-23.056l-35.001 0c-8.524,0 -15.499,10.375 -15.499,23.056l0 0.001c0,0.923 0.038,1.833 0.11,2.729 2.042,-9.19 7.883,-15.87 14.723,-15.87l35.001 0c7.904,0 14.474,8.92 15.389,20.327z"/>
     <path class="fil2" d="M58.859 98.364c-1.245,1.957 -2.76,3.858 -4.532,5.631l-0.001 0.001c-8.966,8.966 -21.235,11.37 -27.263,5.343l-24.749 -24.75c-6.028,-6.028 -3.624,-18.296 5.343,-27.263l0.001 0c0.652,-0.653 1.323,-1.27 2.007,-1.852 -5.054,7.942 -5.647,16.795 -0.811,21.632l24.75 24.749c5.589,5.589 16.542,3.928 25.255,-3.491z"/>
     <path class="fil2" d="M36.272 291.898c1.956,1.245 3.858,2.76 5.631,4.532l0 0.001c8.967,8.967 11.371,21.235 5.343,27.263l-24.749 24.75c-6.028,6.027 -18.296,3.623 -27.263,-5.344l-0.001 0c-0.652,-0.653 -1.269,-1.324 -1.852,-2.008 7.943,5.054 16.796,5.647 21.632,0.811l24.75 -24.749c5.589,-5.59 3.928,-16.543 -3.491,-25.256z"/>
     <path class="fil2" d="M130.47 342.845c2.264,-0.504 4.68,-0.777 7.186,-0.777l0.001 0c12.681,0 23.056,6.975 23.056,15.499l0 35.001c0,8.525 -10.375,15.5 -23.056,15.5l-0.001 0c-0.923,0 -1.833,-0.038 -2.729,-0.11 9.19,-2.042 15.87,-7.883 15.87,-14.723l0 -35.001c0,-7.904 -8.92,-14.474 -20.327,-15.389z"/>
     <path class="fil2" d="M229.992 314.103c1.245,-1.957 2.759,-3.858 4.532,-5.631l0 -0.001c8.967,-8.966 21.235,-11.371 27.263,-5.343l24.75 24.75c6.028,6.028 3.623,18.296 -5.343,27.262l-0.001 0.001c-0.653,0.653 -1.324,1.27 -2.008,1.852 5.055,-7.942 5.648,-16.795 0.811,-21.632l-24.749 -24.749c-5.589,-5.59 -16.543,-3.928 -25.255,3.491z"/>
     <path class="fil2" d="M251.296 120.998c-1.957,-1.245 -3.858,-2.76 -5.631,-4.532l0 -0.001c-8.967,-8.966 -11.371,-21.234 -5.344,-27.262l24.75 -24.75c6.028,-6.028 18.296,-3.623 27.263,5.343l0.001 0.001c0.652,0.653 1.269,1.324 1.851,2.008 -7.942,-5.055 -16.795,-5.648 -21.632,-0.811l-24.749 24.749c-5.589,5.589 -3.928,16.543 3.491,25.255z"/>
     <path class="fil2" d="M159.047 70.79c-2.264,0.503 -4.68,0.777 -7.186,0.777l-0.001 0c-12.681,0 -23.056,-6.975 -23.056,-15.5l0 -35.001c0,-8.524 10.375,-15.499 23.056,-15.499l0.001 0c0.923,0 1.833,0.038 2.729,0.11 -9.19,2.042 -15.87,7.883 -15.87,14.723l0 35.001c0,7.904 8.921,14.474 20.327,15.389z"/>
     <circle class="fil3" cx="91.593" cy="164.568" r="58.333"/>
    </g>
   </g>
   <path class="fil4 str0" d="M144.452 98.502c59.923,0 108.5,48.577 108.5,108.5 0,59.923 -48.577,108.5 -108.5,108.5 -59.923,0 -108.5,-48.577 -108.5,-108.5 0,-59.923 48.577,-108.5 108.5,-108.5z"/>
   <path class="fil5" d="M57.274 214.023l316.439 0c10.186,0 18.52,8.334 18.52,18.521l0 0c0,10.187 -8.334,18.521 -18.52,18.521l-316.439 0c-10.186,0 -18.52,-8.334 -18.52,-18.521l0 0c0,-10.187 8.334,-18.521 18.52,-18.521z"/>
   <g style="clip-path:url(#id1)">
    <g>
     <path id="1" class="fil6" d="M390.985 228.278c0.564,1.767 0.869,3.646 0.869,5.593l0 0.001c0,10.186 -8.334,18.52 -18.52,18.52l-316.439 0c-10.186,0 -18.52,-8.334 -18.52,-18.52l0 -0.001c0,-1.947 0.305,-3.826 0.869,-5.593 2.386,7.475 9.412,12.927 17.651,12.927l316.439 0c8.239,0 15.265,-5.452 17.651,-12.927z"/>
    </g>
   </g>
   <path class="fil4 str1" d="M57.274 214.023l316.439 0c10.186,0 18.52,8.334 18.52,18.521l0 0c0,10.187 -8.334,18.521 -18.52,18.521l-316.439 0c-10.186,0 -18.52,-8.334 -18.52,-18.521l0 0c0,-10.187 8.334,-18.521 18.52,-18.521z"/>
   <path class="fil5" d="M129.089 269.964l316.439 0c10.186,0 18.52,8.334 18.52,18.52l0 0.001c0,10.186 -8.334,18.52 -18.52,18.52l-316.439 0c-10.186,0 -18.52,-8.334 -18.52,-18.52l0 -0.001c0,-10.186 8.334,-18.52 18.52,-18.52z"/>
   <g style="clip-path:url(#id2)">
    <g>
     <path id="1" class="fil6" d="M464.319 284.277c0.564,1.767 0.869,3.646 0.869,5.593l0 0.001c0,10.186 -8.334,18.52 -18.521,18.52l-316.438 0c-10.186,0 -18.52,-8.334 -18.52,-18.52l0 -0.001c0,-1.947 0.305,-3.826 0.869,-5.593 2.386,7.475 9.412,12.927 17.651,12.927l316.438 0c8.239,0 15.266,-5.452 17.652,-12.927z"/>
    </g>
   </g>
   <path class="fil4 str1" d="M129.089 269.964l316.439 0c10.186,0 18.52,8.334 18.52,18.52l0 0.001c0,10.186 -8.334,18.52 -18.52,18.52l-316.439 0c-10.186,0 -18.52,-8.334 -18.52,-18.52l0 -0.001c0,-10.186 8.334,-18.52 18.52,-18.52z"/>
   <path class="fil5" d="M62.224 327.845l238.503 0c7.678,0 13.959,6.281 13.959,13.959l0 0c0,7.678 -6.281,13.959 -13.959,13.959l-238.503 0c-7.677,0 -13.959,-6.281 -13.959,-13.959l0 0c0,-7.678 6.282,-13.959 13.959,-13.959z"/>
   <g style="clip-path:url(#id3)">
    <g>
     <path id="1" class="fil6" d="M317.86 335.408c0.429,1.767 0.661,3.646 0.661,5.593l0 0.001c0,10.186 -6.333,18.52 -14.074,18.52l-240.475 0c-7.741,0 -14.074,-8.334 -14.074,-18.52l0 -0.001c0,-1.947 0.232,-3.826 0.661,-5.593 1.812,7.475 7.152,12.927 13.413,12.927l240.475 0c6.261,0 11.601,-5.452 13.413,-12.927z"/>
    </g>
   </g>
   <path class="fil4 str1" d="M62.224 327.845l238.503 0c7.678,0 13.959,6.281 13.959,13.959l0 0c0,7.678 -6.281,13.959 -13.959,13.959l-238.503 0c-7.677,0 -13.959,-6.281 -13.959,-13.959l0 0c0,-7.678 6.282,-13.959 13.959,-13.959z"/>
   <path class="fil5" d="M167.617 172.498l238.503 0c7.678,0 13.959,6.281 13.959,13.959l0 0c0,7.678 -6.281,13.959 -13.959,13.959l-238.503 0c-7.678,0 -13.959,-6.281 -13.959,-13.959l0 0c0,-7.678 6.281,-13.959 13.959,-13.959z"/>
   <g style="clip-path:url(#id4)">
    <g>
     <path id="1" class="fil6" d="M422.444 181.407c0.435,1.767 0.671,3.646 0.671,5.594l0 0c0,10.187 -6.43,18.52 -14.29,18.52l-244.16 0c-7.859,0 -14.29,-8.333 -14.29,-18.52l0 0c0,-1.948 0.236,-3.827 0.671,-5.594 1.841,7.475 7.262,12.927 13.619,12.927l244.16 0c6.357,0 11.778,-5.452 13.619,-12.927z"/>
    </g>
   </g>
   <path class="fil4 str1" d="M167.617 172.498l238.503 0c7.678,0 13.959,6.281 13.959,13.959l0 0c0,7.678 -6.281,13.959 -13.959,13.959l-238.503 0c-7.678,0 -13.959,-6.281 -13.959,-13.959l0 0c0,-7.678 6.281,-13.959 13.959,-13.959z"/>
   <path class="fil5" d="M110.361 370.163l267.693 0c8.618,0 15.668,7.05 15.668,15.667l0 0.001c0,8.617 -7.05,15.667 -15.668,15.667l-267.693 0c-8.617,0 -15.667,-7.05 -15.667,-15.667l0 -0.001c0,-8.617 7.05,-15.667 15.667,-15.667z"/>
   <g style="clip-path:url(#id5)">
    <g>
     <path id="1" class="fil6" d="M394.985 378.741c0.564,1.767 0.87,3.646 0.87,5.594l0 0c0,10.187 -8.334,18.52 -18.521,18.52l-316.438 0c-10.186,0 -18.521,-8.333 -18.521,-18.52l0 0c0,-1.948 0.306,-3.827 0.87,-5.594 2.386,7.475 9.412,12.927 17.651,12.927l316.438 0c8.239,0 15.266,-5.452 17.651,-12.927z"/>
    </g>
   </g>
   <path class="fil4 str1" d="M110.361 370.163l267.693 0c8.618,0 15.668,7.05 15.668,15.667l0 0.001c0,8.617 -7.05,15.667 -15.668,15.667l-267.693 0c-8.617,0 -15.667,-7.05 -15.667,-15.667l0 -0.001c0,-8.617 7.05,-15.667 15.667,-15.667z"/>
   <path class="fil5" d="M423.909 214.023c10.228,0 18.52,8.292 18.52,18.521 0,10.228 -8.292,18.52 -18.52,18.52 -10.229,0 -18.521,-8.292 -18.521,-18.52 0,-10.229 8.292,-18.521 18.521,-18.521z"/>
   <g style="clip-path:url(#id6)">
    <g>
     <path id="1" class="fil6 str2" d="M426.515 214.668c-1.068,0 -2.114,0.095 -3.129,0.276 7.132,3.057 12.128,10.14 12.128,18.391 0,6.957 -3.552,13.083 -8.942,16.666 9.731,-0.032 17.609,-7.929 17.609,-17.666 0,-9.757 -7.91,-17.667 -17.666,-17.667z"/>
    </g>
   </g>
   <path class="fil4 str1" d="M423.909 214.023c10.228,0 18.52,8.292 18.52,18.521 0,10.228 -8.292,18.52 -18.52,18.52 -10.229,0 -18.521,-8.292 -18.521,-18.52 0,-10.229 8.292,-18.521 18.521,-18.521z"/>
   <path class="fil5" d="M76.173 269.964c10.229,0 18.52,8.292 18.52,18.52 0,10.229 -8.291,18.521 -18.52,18.521 -10.229,0 -18.52,-8.292 -18.52,-18.521 0,-10.228 8.291,-18.52 18.52,-18.52z"/>
   <g style="clip-path:url(#id7)">
    <g>
     <path id="1" class="fil6 str2" d="M75.052 270.668c1.067,0 2.113,0.095 3.129,0.276 -7.132,3.057 -12.129,10.14 -12.129,18.391 0,6.956 3.553,13.083 8.942,16.666 -9.731,-0.032 -17.609,-7.929 -17.609,-17.666 0,-9.757 7.91,-17.667 17.667,-17.667z"/>
    </g>
   </g>
   <path class="fil4 str1" d="M76.173 269.964c10.229,0 18.52,8.292 18.52,18.52 0,10.229 -8.291,18.521 -18.52,18.521 -10.229,0 -18.52,-8.292 -18.52,-18.521 0,-10.228 8.291,-18.52 18.52,-18.52z"/>
   <path class="fil5" d="M370.236 323.284c10.229,0 18.521,8.292 18.521,18.52 0,10.229 -8.292,18.521 -18.521,18.521 -10.228,0 -18.52,-8.292 -18.52,-18.521 0,-10.228 8.292,-18.52 18.52,-18.52z"/>
   <g style="clip-path:url(#id8)">
    <g>
     <path id="1" class="fil6 str2" d="M358.267 357.272c-0.819,-0.685 -1.56,-1.429 -2.221,-2.221 7.429,2.237 15.808,0.017 21.107,-6.308 4.467,-5.332 5.679,-12.31 3.848,-18.517 7.439,6.273 8.407,17.385 2.153,24.85 -6.265,7.479 -17.408,8.462 -24.887,2.196z"/>
    </g>
   </g>
   <path class="fil4 str1" d="M370.236 323.284c10.229,0 18.521,8.292 18.521,18.52 0,10.229 -8.292,18.521 -18.521,18.521 -10.228,0 -18.52,-8.292 -18.52,-18.521 0,-10.228 8.292,-18.52 18.52,-18.52z"/>
  </g>
  <path class="fil6 str3" d="M-41.823 336.267c0.564,1.767 0.87,3.646 0.87,5.594l0 0c0,10.187 -8.335,18.52 -18.521,18.52l-316.439 0c-10.186,0 -18.52,-8.333 -18.52,-18.52l0 0c0,-1.948 0.306,-3.827 0.869,-5.594 2.386,7.475 9.412,12.927 17.651,12.927l316.439 0c8.239,0 15.265,-5.452 17.651,-12.927z"/>
  <path class="fil6 str2" d="M-104.423 272.194c1.068,0 2.113,0.095 3.129,0.276 -7.132,3.057 -12.129,10.14 -12.129,18.391 0,6.956 3.553,13.083 8.942,16.666 -9.73,-0.032 -17.609,-7.929 -17.609,-17.666 0,-9.757 7.91,-17.667 17.667,-17.667z"/>
 </g>
</svg>
