<?xml version="1.0" encoding="UTF-8"?>
<!DOCTYPE svg PUBLIC "-//W3C//DTD SVG 1.1//EN" "http://www.w3.org/Graphics/SVG/1.1/DTD/svg11.dtd">
<!-- Creator: CorelDRAW 2019 -->
<svg xmlns="http://www.w3.org/2000/svg" xml:space="preserve" width="500px" height="500px" version="1.1" style="shape-rendering:geometricPrecision; text-rendering:geometricPrecision; image-rendering:optimizeQuality; fill-rule:evenodd; clip-rule:evenodd"
viewBox="0 0 500 500"
 xmlns:xlink="http://www.w3.org/1999/xlink"
 xmlns:xodm="http://www.corel.com/coreldraw/odm/2003">
 <defs>
  <style type="text/css">
   <![CDATA[
    .str1 {stroke:black;stroke-width:5;stroke-miterlimit:22.9256}
    .str0 {stroke:#333333;stroke-width:5;stroke-miterlimit:22.9256}
    .fil1 {fill:#E6E6E6}
    .fil0 {fill:#FFFF66}
   ]]>
  </style>
 </defs>
 <g id="Layer_x0020_1">
  <metadata id="CorelCorpID_0Corel-Layer"/>
  <g id="_1298905928">
   <path class="fil0 str0" d="M141.95 108.975c62.146,0 112.525,50.379 112.525,112.525 0,62.145 -50.379,112.524 -112.525,112.524 -62.145,0 -112.524,-50.379 -112.524,-112.524 0,-62.146 50.379,-112.525 112.524,-112.525z"/>
   <g>
    <rect class="fil1 str1" x="45.279" y="203.55" width="353.479" height="37.041" rx="18.521" ry="18.521"/>
    <rect class="fil1 str1" x="117.094" y="259.49" width="353.479" height="37.041" rx="18.521" ry="18.521"/>
    <rect class="fil1 str1" x="54.791" y="317.371" width="266.421" height="27.918" rx="13.959" ry="13.959"/>
    <rect class="fil1 str1" x="160.183" y="162.024" width="266.421" height="27.918" rx="13.959" ry="13.959"/>
    <rect class="fil1 str1" x="101.219" y="359.689" width="299.027" height="31.335" rx="15.668" ry="15.668"/>
    <circle class="fil1 str1" cx="430.434" cy="222.07" r="18.52"/>
    <circle class="fil1 str1" cx="82.698" cy="278.01" r="18.52"/>
    <circle class="fil1 str1" cx="376.762" cy="331.331" r="18.52"/>
   </g>
  </g>
 </g>
</svg>
