<?xml version="1.0" encoding="UTF-8"?>
<!DOCTYPE svg PUBLIC "-//W3C//DTD SVG 1.1//EN" "http://www.w3.org/Graphics/SVG/1.1/DTD/svg11.dtd">
<!-- Creator: CorelDRAW 2019 -->
<svg xmlns="http://www.w3.org/2000/svg" xml:space="preserve" width="500px" height="500px" version="1.1" style="shape-rendering:geometricPrecision; text-rendering:geometricPrecision; image-rendering:optimizeQuality; fill-rule:evenodd; clip-rule:evenodd"
viewBox="0 0 500 500"
 xmlns:xlink="http://www.w3.org/1999/xlink"
 xmlns:xodm="http://www.corel.com/coreldraw/odm/2003">
 <defs>
  <style type="text/css">
   <![CDATA[
    .str1 {stroke:#1A1A1A;stroke-width:5;stroke-miterlimit:22.9256}
    .str0 {stroke:#333333;stroke-width:5;stroke-miterlimit:22.9256}
    .fil4 {fill:none}
    .fil6 {fill:#00CCFF}
    .fil7 {fill:#66FFCC}
    .fil5 {fill:#99FFFF}
    .fil2 {fill:#FFCC00}
    .fil1 {fill:#FFCC00}
    .fil0 {fill:#FFFF66}
    .fil3 {fill:#FFFF99}
   ]]>
  </style>
    <clipPath id="id0">
     <path d="M64.032 234.323l35 0c8.525,0 15.5,6.975 15.5,15.5l0 0c0,8.525 -6.975,15.5 -15.5,15.5l-35 0c-8.525,0 -15.5,-6.975 -15.5,-15.5l0 0c0,-8.525 6.975,-15.5 15.5,-15.5zm185.968 -92.823c59.923,0 108.5,48.577 108.5,108.5 0,59.923 -48.577,108.5 -108.5,108.5 -59.923,0 -108.5,-48.577 -108.5,-108.5 0,-59.923 48.577,-108.5 108.5,-108.5zm-120.414 -34.085l24.749 24.749c6.028,6.028 6.028,15.892 0,21.92l0 0c-6.029,6.029 -15.892,6.029 -21.92,0.001l-24.749 -24.75c-6.028,-6.027 -6.028,-15.891 0,-21.92l0 0c6.028,-6.028 15.892,-6.028 21.92,0zm238 238.5l24.749 24.749c6.028,6.028 6.028,15.892 0,21.92l0 0c-6.029,6.028 -15.892,6.028 -21.92,0l-24.749 -24.749c-6.028,-6.028 -6.028,-15.892 0,-21.92l0 0c6.028,-6.028 15.892,-6.028 21.92,0zm-21.921 -213.751l24.749 -24.749c6.028,-6.028 15.892,-6.028 21.92,0l0 0c6.028,6.029 6.028,15.893 0,21.92l-24.749 24.75c-6.028,6.028 -15.891,6.028 -21.92,0l0 0c-6.028,-6.029 -6.028,-15.893 0,-21.921zm-237.999 238.501l24.749 -24.75c6.028,-6.028 15.891,-6.028 21.919,0l0 0c6.029,6.029 6.029,15.893 0.001,21.921l-24.749 24.749c-6.028,6.028 -15.892,6.028 -21.92,0l0 0c-6.028,-6.029 -6.028,-15.893 0,-21.92zm126.658 -271.633l0 -35.001c0,-8.525 6.974,-15.5 15.499,-15.5l0 0c8.526,0 15.5,6.975 15.5,15.5l0 35.001c0,8.525 -6.974,15.499 -15.5,15.499l0 0c-8.525,0 -15.499,-6.974 -15.499,-15.499zm0.353 336.936l0 -35c0,-8.525 6.975,-15.5 15.5,-15.5l0 0c8.525,0 15.5,6.975 15.5,15.5l0 35c0,8.525 -6.975,15.5 -15.5,15.5l0 0c-8.525,0 -15.5,-6.975 -15.5,-15.5zm166.291 -201.291l35 0c8.525,0 15.5,6.974 15.5,15.5l0 0c0,8.525 -6.975,15.499 -15.5,15.499l-35 0c-8.525,0 -15.5,-6.974 -15.5,-15.499l0 0c0,-8.526 6.975,-15.5 15.5,-15.5z"/>
    </clipPath>
    <clipPath id="id1">
     <path d="M67.422 324.935c92.919,-7.494 133.331,37.052 211.041,-10.844 87.312,-53.814 155.98,-1.049 206.037,35.034 -97.799,-3.845 -127.569,-31.34 -188.519,6.673 -67.397,42.035 -166.892,11.524 -228.559,-30.863z"/>
    </clipPath>
    <clipPath id="id2">
     <path d="M122.036 298.362c57.133,-13.147 86.346,10.881 130.327,-26.017 49.414,-41.457 96.959,-14.895 131.401,2.987 -61.205,6.537 -82.239,-7.854 -116.693,21.365 -38.098,32.309 -102.793,22.409 -145.035,1.665z"/>
    </clipPath>
    <clipPath id="id3">
     <path d="M177.17 394.892c54.794,-9.978 81.467,14.103 124.818,-18.99 48.707,-37.181 92.666,-9.895 124.57,8.581 -58.37,3.528 -77.702,-11.049 -111.677,15.173 -37.568,28.994 -98.531,16.77 -137.711,-4.764z"/>
    </clipPath>
 </defs>
 <g id="Layer_x0020_1">
  <metadata id="CorelCorpID_0Corel-Layer"/>
  <g id="_1292599608">
   <path class="fil0" d="M64.032 234.323l35 0c8.525,0 15.5,6.975 15.5,15.5l0 0c0,8.525 -6.975,15.5 -15.5,15.5l-35 0c-8.525,0 -15.5,-6.975 -15.5,-15.5l0 0c0,-8.525 6.975,-15.5 15.5,-15.5zm185.968 -92.823c59.923,0 108.5,48.577 108.5,108.5 0,59.923 -48.577,108.5 -108.5,108.5 -59.923,0 -108.5,-48.577 -108.5,-108.5 0,-59.923 48.577,-108.5 108.5,-108.5zm-120.414 -34.085l24.749 24.749c6.028,6.028 6.028,15.892 0,21.92l0 0c-6.029,6.029 -15.892,6.029 -21.92,0.001l-24.749 -24.75c-6.028,-6.027 -6.028,-15.891 0,-21.92l0 0c6.028,-6.028 15.892,-6.028 21.92,0zm238 238.5l24.749 24.749c6.028,6.028 6.028,15.892 0,21.92l0 0c-6.029,6.028 -15.892,6.028 -21.92,0l-24.749 -24.749c-6.028,-6.028 -6.028,-15.892 0,-21.92l0 0c6.028,-6.028 15.892,-6.028 21.92,0zm-21.921 -213.751l24.749 -24.749c6.028,-6.028 15.892,-6.028 21.92,0l0 0c6.028,6.029 6.028,15.893 0,21.92l-24.749 24.75c-6.028,6.028 -15.891,6.028 -21.92,0l0 0c-6.028,-6.029 -6.028,-15.893 0,-21.921zm-237.999 238.501l24.749 -24.75c6.028,-6.028 15.891,-6.028 21.919,0l0 0c6.029,6.029 6.029,15.893 0.001,21.921l-24.749 24.749c-6.028,6.028 -15.892,6.028 -21.92,0l0 0c-6.028,-6.029 -6.028,-15.893 0,-21.92zm126.658 -271.633l0 -35.001c0,-8.525 6.974,-15.5 15.499,-15.5l0 0c8.526,0 15.5,6.975 15.5,15.5l0 35.001c0,8.525 -6.974,15.499 -15.5,15.499l0 0c-8.525,0 -15.499,-6.974 -15.499,-15.499zm0.353 336.936l0 -35c0,-8.525 6.975,-15.5 15.5,-15.5l0 0c8.525,0 15.5,6.975 15.5,15.5l0 35c0,8.525 -6.975,15.5 -15.5,15.5l0 0c-8.525,0 -15.5,-6.975 -15.5,-15.5zm166.291 -201.291l35 0c8.525,0 15.5,6.974 15.5,15.5l0 0c0,8.525 -6.975,15.499 -15.5,15.499l-35 0c-8.525,0 -15.5,-6.974 -15.5,-15.499l0 0c0,-8.526 6.975,-15.5 15.5,-15.5z"/>
   <g style="clip-path:url(#id0)">
    <g>
     <path id="1" class="fil1" d="M327.076 177.117c23.645,19.864 38.679,49.647 38.679,82.945 0,59.807 -48.483,108.29 -108.29,108.29 -41.925,0 -78.282,-23.828 -96.277,-58.678 18.823,15.814 43.102,25.344 69.61,25.344 59.807,0 108.29,-48.483 108.29,-108.289 0,-17.882 -4.337,-34.749 -12.012,-49.612z"/>
     <path class="fil2" d="M114.696 234.323c0.503,2.264 0.777,4.68 0.777,7.186l0 0.001c0,12.681 -6.975,23.056 -15.5,23.056l-35.001 0c-8.525,0 -15.499,-10.375 -15.499,-23.056l0 -0.001c0,-0.923 0.038,-1.833 0.11,-2.729 2.042,9.19 7.882,15.87 14.722,15.87l35.001 0c7.905,0 14.475,-8.92 15.39,-20.327z"/>
     <path class="fil2" d="M451.363 266.188c0.503,-2.264 0.777,-4.68 0.777,-7.186l0 -0.001c0,-12.681 -6.975,-23.056 -15.5,-23.056l-35.001 0c-8.524,0 -15.499,10.375 -15.499,23.056l0 0.001c0,0.923 0.038,1.833 0.11,2.729 2.042,-9.19 7.883,-15.87 14.723,-15.87l35.001 0c7.904,0 14.474,8.92 15.389,20.327z"/>
     <path class="fil2" d="M164.407 141.362c-1.245,1.957 -2.76,3.858 -4.532,5.631l-0.001 0.001c-8.966,8.966 -21.235,11.371 -27.263,5.343l-24.749 -24.75c-6.028,-6.028 -3.624,-18.296 5.343,-27.262l0.001 -0.001c0.652,-0.653 1.323,-1.27 2.007,-1.852 -5.054,7.942 -5.647,16.795 -0.811,21.632l24.75 24.749c5.589,5.59 16.542,3.928 25.255,-3.491z"/>
     <path class="fil2" d="M141.82 334.897c1.956,1.245 3.858,2.759 5.63,4.532l0.001 0c8.967,8.967 11.371,21.235 5.343,27.263l-24.75 24.75c-6.027,6.028 -18.296,3.623 -27.262,-5.343l-0.001 -0.001c-0.653,-0.653 -1.269,-1.324 -1.852,-2.008 7.942,5.055 16.796,5.648 21.632,0.811l24.75 -24.749c5.589,-5.589 3.928,-16.543 -3.491,-25.255z"/>
     <path class="fil2" d="M236.018 385.843c2.264,-0.503 4.68,-0.777 7.186,-0.777l0.001 0c12.681,0 23.056,6.975 23.056,15.499l0 35.002c0,8.524 -10.375,15.499 -23.056,15.499l-0.001 0c-0.923,0 -1.833,-0.038 -2.729,-0.11 9.19,-2.042 15.87,-7.883 15.87,-14.723l0 -35.001c0,-7.904 -8.92,-14.474 -20.327,-15.389z"/>
     <path class="fil2" d="M335.539 357.101c1.245,-1.957 2.76,-3.858 4.532,-5.631l0.001 -0.001c8.967,-8.966 21.235,-11.37 27.263,-5.343l24.75 24.75c6.028,6.028 3.623,18.296 -5.344,27.263l0 0c-0.653,0.653 -1.324,1.27 -2.008,1.852 5.054,-7.942 5.647,-16.795 0.811,-21.632l-24.749 -24.749c-5.59,-5.589 -16.543,-3.928 -25.256,3.491z"/>
     <path class="fil2" d="M356.844 163.996c-1.957,-1.245 -3.858,-2.759 -5.631,-4.532l-0.001 0c-8.966,-8.967 -11.37,-21.235 -5.343,-27.263l24.75 -24.75c6.028,-6.028 18.296,-3.623 27.263,5.343l0 0.001c0.653,0.653 1.27,1.324 1.852,2.008 -7.942,-5.055 -16.795,-5.648 -21.632,-0.811l-24.749 24.749c-5.589,5.589 -3.928,16.543 3.491,25.255z"/>
     <path class="fil2" d="M264.595 113.788c-2.264,0.503 -4.68,0.777 -7.186,0.777l-0.001 0c-12.681,0 -23.056,-6.975 -23.056,-15.499l0 -35.001c0,-8.525 10.375,-15.5 23.056,-15.5l0.001 0c0.923,0 1.833,0.038 2.729,0.11 -9.19,2.042 -15.87,7.883 -15.87,14.723l0 35.001c0,7.904 8.92,14.474 20.327,15.389z"/>
     <circle class="fil3" cx="197.141" cy="207.566" r="58.333"/>
    </g>
   </g>
   <path class="fil4 str0" d="M64.032 234.323l35 0c8.525,0 15.5,6.975 15.5,15.5l0 0c0,8.525 -6.975,15.5 -15.5,15.5l-35 0c-8.525,0 -15.5,-6.975 -15.5,-15.5l0 0c0,-8.525 6.975,-15.5 15.5,-15.5zm185.968 -92.823c59.923,0 108.5,48.577 108.5,108.5 0,59.923 -48.577,108.5 -108.5,108.5 -59.923,0 -108.5,-48.577 -108.5,-108.5 0,-59.923 48.577,-108.5 108.5,-108.5zm-120.414 -34.085l24.749 24.749c6.028,6.028 6.028,15.892 0,21.92l0 0c-6.029,6.029 -15.892,6.029 -21.92,0.001l-24.749 -24.75c-6.028,-6.027 -6.028,-15.891 0,-21.92l0 0c6.028,-6.028 15.892,-6.028 21.92,0zm238 238.5l24.749 24.749c6.028,6.028 6.028,15.892 0,21.92l0 0c-6.029,6.028 -15.892,6.028 -21.92,0l-24.749 -24.749c-6.028,-6.028 -6.028,-15.892 0,-21.92l0 0c6.028,-6.028 15.892,-6.028 21.92,0zm-21.921 -213.751l24.749 -24.749c6.028,-6.028 15.892,-6.028 21.92,0l0 0c6.028,6.029 6.028,15.893 0,21.92l-24.749 24.75c-6.028,6.028 -15.891,6.028 -21.92,0l0 0c-6.028,-6.029 -6.028,-15.893 0,-21.921zm-237.999 238.501l24.749 -24.75c6.028,-6.028 15.891,-6.028 21.919,0l0 0c6.029,6.029 6.029,15.893 0.001,21.921l-24.749 24.749c-6.028,6.028 -15.892,6.028 -21.92,0l0 0c-6.028,-6.029 -6.028,-15.893 0,-21.92zm126.658 -271.633l0 -35.001c0,-8.525 6.974,-15.5 15.499,-15.5l0 0c8.526,0 15.5,6.975 15.5,15.5l0 35.001c0,8.525 -6.974,15.499 -15.5,15.499l0 0c-8.525,0 -15.499,-6.974 -15.499,-15.499zm0.353 336.936l0 -35c0,-8.525 6.975,-15.5 15.5,-15.5l0 0c8.525,0 15.5,6.975 15.5,15.5l0 35c0,8.525 -6.975,15.5 -15.5,15.5l0 0c-8.525,0 -15.5,-6.975 -15.5,-15.5zm166.291 -201.291l35 0c8.525,0 15.5,6.974 15.5,15.5l0 0c0,8.525 -6.975,15.499 -15.5,15.499l-35 0c-8.525,0 -15.5,-6.974 -15.5,-15.499l0 0c0,-8.526 6.975,-15.5 15.5,-15.5z"/>
   <path class="fil5" d="M67.422 324.935c92.919,-7.494 133.331,37.052 211.041,-10.844 87.312,-53.814 155.98,-1.049 206.037,35.034 -97.799,-3.845 -127.569,-31.34 -188.519,6.673 -67.397,42.035 -166.892,11.524 -228.559,-30.863z"/>
   <g style="clip-path:url(#id1)">
    <g>
     <g>
      <path id="1" class="fil6" d="M75.594 314.768c22.867,7.194 49.939,23.999 71.335,30.933 6.194,2.009 42.391,12.294 48.291,13.411 14.998,2.841 50.66,5.237 65.346,0.382 47.458,-15.687 37.444,-33.204 100.245,-32.448 45.226,0.545 66.624,6.504 109.388,16.782 9.137,2.196 6.325,1.08 12.332,4.238 -15.588,4.098 -45.122,-1.295 -60.562,-3.145 -25.885,-3.102 -82.233,-5.017 -105.396,9.462 -42.627,26.648 -50.804,34.639 -104.709,32.67 -27.994,-1.022 -70.432,-11.432 -96.793,-22.444 -20.489,-8.559 -7.274,-3.205 -26.398,-10.326 -3.698,-1.377 -12.304,-5.571 -16.385,-7.524l1.179 -0.062c-8.817,-0.587 -15.488,-8.211 -14.901,-17.028 0.587,-8.817 8.211,-15.488 17.028,-14.901z"/>
     </g>
     <path class="fil4" d="M74.53 330.733c3.926,0.261 17.638,9.685 28.724,11.943 0.176,0.036 33.845,16.108 41.334,17.333 19.974,3.269 40.535,14.057 67.276,14.057 17.352,0 37.773,2.967 53.391,-3.886 70.136,-30.776 32.552,-34.78 124.667,-34.78 22.229,0 44.297,6.463 65.39,9.39 2.759,0.383 26.984,3.296 27.219,3.276"/>
     <g>
      <g>
       <path class="fil7" d="M179.063 316.126c16.313,3.151 58.101,4.33 74.411,1.048l-1.758 1.223c9.379,-6.15 12.089,-2.992 15.997,-4.981 41.154,-20.953 76.409,-23.904 121.588,-15.865 21.903,3.897 57.274,16.373 73.231,30.515 -10.743,-0.002 -5.901,0.488 -20.39,-3.09 -45.119,-11.138 -49.496,-12.861 -96.692,-10.762 -42.558,1.893 -53.176,21.606 -78.313,26.306 1.547,-0.379 2.586,-1.177 3.997,-2.099 -1.297,0.758 -2.702,1.468 -4.195,2.135 -0.233,0.043 -0.466,0.087 -0.702,0.127 0.232,-0.028 0.452,-0.065 0.662,-0.109 -24.614,10.98 -74.112,9.881 -98.176,6.099 -9.153,-2.631 -14.259,-11.603 -11.403,-20.038 2.855,-8.436 12.59,-13.141 21.743,-10.509zm88.074 24.394l-0.198 0.036 -0.04 0.018c0.081,-0.017 0.16,-0.035 0.238,-0.054z"/>
      </g>
      <path class="fil4" d="M173.894 331.399c12.117,3.483 79.231,3.85 87.531,-2.99 2.438,-2.009 8.479,0.279 15.419,-5.238 5.901,-4.691 44.74,-19.105 56.012,-19.105 35.205,0 55.016,-1.431 89.227,9.162 4.077,1.262 40.409,14.841 40.449,14.838"/>
     </g>
    </g>
   </g>
   <path class="fil4 str1" d="M67.422 324.935c92.919,-7.494 133.331,37.052 211.041,-10.844 87.312,-53.814 155.98,-1.049 206.037,35.034 -97.799,-3.845 -127.569,-31.34 -188.519,6.673 -67.397,42.035 -166.892,11.524 -228.559,-30.863z"/>
   <path class="fil5" d="M122.036 298.362c57.133,-13.147 86.346,10.881 130.327,-26.017 49.414,-41.457 96.959,-14.895 131.401,2.987 -61.205,6.537 -82.239,-7.854 -116.693,21.365 -38.098,32.309 -102.793,22.409 -145.035,1.665z"/>
   <g style="clip-path:url(#id2)">
    <g>
     <g>
      <path id="1" class="fil6" d="M126.193 291.29c14.885,2.388 33.265,10.372 47.211,12.734 4.038,0.684 27.5,3.779 31.273,3.935 9.592,0.398 32,-1.367 40.695,-5.729 28.098,-14.094 20.267,-24.079 59.413,-29.343 28.19,-3.791 42.049,-2.036 69.597,0.454 5.886,0.532 4.034,0.095 8.06,1.511 -9.325,3.973 -28.195,3.315 -37.97,3.573 -16.39,0.433 -51.627,4.387 -64.717,15.511 -24.091,20.473 -28.45,26.192 -62.17,29.889 -17.513,1.92 -44.87,-0.683 -62.277,-5.128 -13.531,-3.454 -4.819,-1.329 -17.368,-4.014 -2.428,-0.519 -8.165,-2.343 -10.883,-3.186l0.728 -0.146c-5.54,0.439 -10.387,-3.695 -10.827,-9.235 -0.439,-5.54 3.695,-10.387 9.235,-10.826z"/>
     </g>
     <path class="fil4" d="M126.989 301.32c2.467,-0.195 11.859,4.416 18.963,4.809 0.113,0.006 22.531,6.932 27.302,7.011 12.727,0.211 26.506,5.046 43.145,2.604 10.797,-1.584 23.774,-1.602 32.866,-7.293 40.831,-25.554 17.08,-24.614 74.396,-33.024 13.832,-2.03 28.153,-0.024 41.545,-0.128 1.752,-0.014 17.092,-0.413 17.236,-0.447"/>
     <g>
      <g>
       <path class="fil7" d="M190.699 282.687c10.438,0.471 36.547,-2.611 46.396,-6.142l-0.982 0.921c5.274,-4.683 7.249,-2.966 9.499,-4.56 23.694,-16.795 45.361,-21.85 74.207,-20.974 13.985,0.426 37.133,4.959 48.353,12.302 -6.685,0.979 -3.627,0.842 -12.97,-0.061 -29.091,-2.811 -31.972,-3.483 -61.147,2.132 -26.308,5.064 -31.115,18.299 -46.327,23.519 0.928,-0.377 1.502,-0.969 2.296,-1.672 -0.738,0.591 -1.548,1.161 -2.415,1.712 -0.142,0.049 -0.283,0.097 -0.426,0.144 0.142,-0.039 0.275,-0.082 0.402,-0.129 -14.313,9.08 -45.213,12.916 -60.531,12.76 -5.936,-0.802 -9.932,-5.918 -8.925,-11.428 1.006,-5.509 6.634,-9.326 12.57,-8.524zm57.029 7.137l-0.119 0.04 -0.024 0.015c0.049,-0.018 0.097,-0.036 0.143,-0.055z"/>
      </g>
      <path class="fil4" d="M188.876 292.663c7.858,1.06 49.652,-4.839 54.192,-9.854 1.334,-1.472 5.302,-0.6 9.116,-4.667 3.243,-3.457 26.094,-15.972 33.108,-17.002 21.906,-3.214 34.102,-5.913 56.356,-2.446 2.653,0.414 26.499,5.545 26.524,5.54"/>
     </g>
    </g>
   </g>
   <path class="fil4 str1" d="M122.036 298.362c57.133,-13.147 86.346,10.881 130.327,-26.017 49.414,-41.457 96.959,-14.895 131.401,2.987 -61.205,6.537 -82.239,-7.854 -116.693,21.365 -38.098,32.309 -102.793,22.409 -145.035,1.665z"/>
   <path class="fil5" d="M177.17 394.892c54.794,-9.978 81.467,14.103 124.818,-18.99 48.707,-37.181 92.666,-9.895 124.57,8.581 -58.37,3.528 -77.702,-11.049 -111.677,15.173 -37.568,28.994 -98.531,16.77 -137.711,-4.764z"/>
   <g style="clip-path:url(#id3)">
    <g>
     <g>
      <path id="1" class="fil6" d="M181.424 388.363c14.022,2.917 31.115,11.298 44.247,14.149 3.802,0.826 25.932,4.789 29.506,5.103 9.085,0.797 30.428,0.101 38.87,-3.657 27.281,-12.147 20.287,-21.965 57.666,-25.249 26.919,-2.364 39.994,-0.093 66.028,3.475 5.563,0.762 3.824,0.266 7.583,1.787 -9.024,3.362 -26.902,1.912 -36.19,1.73 -15.573,-0.306 -49.186,1.904 -62.095,11.889 -23.758,18.376 -28.144,23.612 -60.307,25.646 -16.703,1.056 -42.551,-2.61 -58.876,-7.59 -12.69,-3.87 -4.516,-1.472 -16.308,-4.569 -2.28,-0.599 -7.646,-2.581 -10.188,-3.499l0.697 -0.107c-5.276,0.175 -9.695,-3.961 -9.87,-9.237 -0.175,-5.277 3.961,-9.696 9.237,-9.871z"/>
     </g>
     <path class="fil4" d="M181.741 397.917c2.349,-0.078 11.061,4.709 17.786,5.393 0.106,0.01 21.078,7.564 25.603,7.847 12.068,0.757 24.933,5.948 40.83,4.358 10.316,-1.031 22.632,-0.481 31.509,-5.483 39.867,-22.465 17.285,-22.612 72.047,-28.087 13.215,-1.321 26.719,1.209 39.432,1.696 1.663,0.063 16.238,0.355 16.376,0.33"/>
     <g>
      <g>
       <path class="fil7" d="M243.017 383.02c9.885,0.903 34.797,-0.879 44.298,-3.8l-0.972 0.831c5.21,-4.213 7.009,-2.497 9.214,-3.911 23.22,-14.903 44.003,-18.753 71.34,-16.659 13.253,1.015 35.022,6.33 45.349,13.788 -6.387,0.637 -3.479,0.641 -12.305,-0.624 -27.485,-3.941 -30.19,-4.704 -58.122,-0.652 -25.189,3.656 -30.329,16.006 -44.993,20.294 0.897,-0.317 1.467,-0.854 2.251,-1.486 -0.726,0.528 -1.519,1.034 -2.367,1.519 -0.136,0.04 -0.272,0.08 -0.41,0.118 0.136,-0.031 0.265,-0.066 0.387,-0.105 -13.98,7.991 -43.471,10.28 -58.002,9.462 -5.598,-1.02 -9.166,-6.051 -7.97,-11.235 1.196,-5.185 6.703,-8.561 12.302,-7.54zm53.809 9.267l-0.116 0.033 -0.023 0.013c0.047,-0.014 0.093,-0.03 0.139,-0.046z"/>
      </g>
      <path class="fil4" d="M240.851 392.407c7.411,1.35 47.331,-2.42 51.859,-6.98 1.33,-1.34 5.057,-0.338 8.855,-4.031 3.229,-3.139 25.462,-14.017 32.163,-14.687 20.929,-2.093 32.621,-4.121 53.589,0.143 2.5,0.509 24.906,6.422 24.929,6.417"/>
     </g>
    </g>
   </g>
   <path class="fil4 str1" d="M177.17 394.892c54.794,-9.978 81.467,14.103 124.818,-18.99 48.707,-37.181 92.666,-9.895 124.57,8.581 -58.37,3.528 -77.702,-11.049 -111.677,15.173 -37.568,28.994 -98.531,16.77 -137.711,-4.764z"/>
  </g>
 </g>
</svg>
