<?xml version="1.0" encoding="UTF-8"?>
<!DOCTYPE svg PUBLIC "-//W3C//DTD SVG 1.1//EN" "http://www.w3.org/Graphics/SVG/1.1/DTD/svg11.dtd">
<!-- Creator: CorelDRAW 2019 -->
<svg xmlns="http://www.w3.org/2000/svg" xml:space="preserve" width="500px" height="500px" version="1.1" style="shape-rendering:geometricPrecision; text-rendering:geometricPrecision; image-rendering:optimizeQuality; fill-rule:evenodd; clip-rule:evenodd"
viewBox="0 0 500 500"
 xmlns:xlink="http://www.w3.org/1999/xlink"
 xmlns:xodm="http://www.corel.com/coreldraw/odm/2003">
 <defs>
  <style type="text/css">
   <![CDATA[
    .str1 {stroke:#1A1A1A;stroke-width:5;stroke-miterlimit:22.9256}
    .str0 {stroke:#333333;stroke-width:5;stroke-miterlimit:22.9256}
    .fil1 {fill:#99FFFF}
    .fil0 {fill:#FFFF66}
   ]]>
  </style>
 </defs>
 <g id="Layer_x0020_1">
  <metadata id="CorelCorpID_0Corel-Layer"/>
  <path class="fil0 str0" d="M53.135 224.628l28.532 0c6.949,0 12.635,5.685 12.635,12.635l0 0c0,6.949 -5.686,12.635 -12.635,12.635l-28.532 0c-6.95,0 -12.635,-5.686 -12.635,-12.635l0 0c0,-6.95 5.685,-12.635 12.635,-12.635zm151.599 -75.668c48.848,0 88.447,39.599 88.447,88.447 0,48.848 -39.599,88.448 -88.447,88.448 -48.849,0 -88.448,-39.6 -88.448,-88.448 0,-48.848 39.599,-88.447 88.448,-88.447zm-98.16 -27.786l20.175 20.175c4.914,4.914 4.914,12.955 0,17.869l0 0c-4.914,4.914 -12.955,4.914 -17.869,0l-20.175 -20.175c-4.914,-4.914 -4.914,-12.954 0,-17.869l0 0c4.914,-4.914 12.955,-4.914 17.869,0zm176.144 20.175l20.175 -20.175c4.915,-4.914 12.955,-4.914 17.869,0l0 0c4.914,4.915 4.914,12.955 0,17.869l-20.175 20.175c-4.914,4.914 -12.955,4.914 -17.869,0l0 0c-4.914,-4.914 -4.914,-12.955 0,-17.869zm-194.013 194.422l20.175 -20.175c4.914,-4.914 12.955,-4.914 17.868,0l0 0c4.915,4.914 4.915,12.955 0.001,17.869l-20.175 20.175c-4.914,4.914 -12.955,4.914 -17.869,0l0 0c-4.914,-4.915 -4.914,-12.955 0,-17.869zm103.249 -221.431l0 -28.532c0,-6.949 5.686,-12.635 12.636,-12.635l0 0c6.949,0 12.635,5.686 12.635,12.635l0 28.532c0,6.95 -5.686,12.635 -12.635,12.635l0 0c-6.95,0 -12.636,-5.685 -12.636,-12.635zm135.846 110.576l28.532 0c6.95,0 12.635,5.686 12.635,12.635l0 0c0,6.949 -5.685,12.635 -12.635,12.635l-28.532 0c-6.949,0 -12.635,-5.686 -12.635,-12.635l0 0c0,-6.949 5.686,-12.635 12.635,-12.635z"/>
  <path class="fil1 str1" d="M67.422 324.935c92.919,-7.494 133.331,37.052 211.041,-10.844 87.312,-53.814 155.98,-1.049 206.037,35.034 -97.799,-3.845 -127.569,-31.34 -188.519,6.673 -67.397,42.035 -166.892,11.524 -228.559,-30.863z"/>
  <path class="fil1 str1" d="M177.582 407.903c51.778,-10.715 77.64,11.534 118.033,-20.859 45.383,-36.395 87.725,-11.495 118.424,5.315 -55.319,4.674 -73.998,-8.722 -105.648,16.937 -34.997,28.372 -93.134,18.154 -130.809,-1.393z"/>
  <path class="fil1 str1" d="M124.644 273.433c62.01,-9.01 91.028,19.139 141.103,-16.322 56.261,-39.841 104.586,-7.39 139.712,14.668 -65.769,1.614 -86.918,-15.554 -126.173,12.559 -43.408,31.086 -111.458,14.885 -154.642,-10.905z"/>
 </g>
</svg>
