<?xml version="1.0" encoding="UTF-8"?>
<!DOCTYPE svg PUBLIC "-//W3C//DTD SVG 1.1//EN" "http://www.w3.org/Graphics/SVG/1.1/DTD/svg11.dtd">
<!-- Creator: CorelDRAW 2019 -->
<svg xmlns="http://www.w3.org/2000/svg" xml:space="preserve" width="500px" height="500px" version="1.1" style="shape-rendering:geometricPrecision; text-rendering:geometricPrecision; image-rendering:optimizeQuality; fill-rule:evenodd; clip-rule:evenodd"
viewBox="0 0 500 500"
 xmlns:xlink="http://www.w3.org/1999/xlink"
 xmlns:xodm="http://www.corel.com/coreldraw/odm/2003">
 <defs>
  <style type="text/css">
   <![CDATA[
    .str1 {stroke:black;stroke-width:5;stroke-miterlimit:22.9256}
    .str0 {stroke:#339966;stroke-width:5;stroke-miterlimit:22.9256}
    .fil2 {fill:none}
    .fil4 {fill:#00CCFF}
    .fil7 {fill:#666666}
    .fil5 {fill:gray}
    .fil6 {fill:#999999}
    .fil0 {fill:#99FF99}
    .fil9 {fill:#99FFFF}
    .fil3 {fill:#B3B3B3}
    .fil1 {fill:#CCFFCC}
    .fil8 {fill:#E6E6E6}
   ]]>
  </style>
   <clipPath id="id0">
    <path d="M250 323.499c124.54,0 225.5,34.027 225.5,76.001 0,41.974 -100.96,76 -225.5,76 -124.54,0 -225.5,-34.026 -225.5,-76 0,-41.974 100.96,-76.001 225.5,-76.001z"/>
   </clipPath>
   <clipPath id="id1">
    <path d="M146.248 98.056c21.479,0 40.129,11.952 49.52,29.49 0.997,-0.083 2.006,-0.128 3.025,-0.128 17.483,0 32.058,12.443 35.357,28.955 11.021,5.14 18.707,16.335 18.707,29.241l0 0c0,17.731 -14.507,32.239 -32.239,32.239l-148.739 0c-17.732,0 -32.239,-14.508 -32.239,-32.239l0 0c0,-17.732 14.507,-32.239 32.239,-32.239l0.24 0c2.716,-8.964 10.823,-15.585 20.549,-16.089 6.974,-22.704 28.322,-39.23 53.58,-39.23z"/>
   </clipPath>
   <clipPath id="id2">
    <path d="M314.196 73c-29.448,0 -55.018,16.386 -67.892,40.431 -1.368,-0.114 -2.751,-0.175 -4.148,-0.175 -23.97,0 -43.953,17.06 -48.476,39.699 -15.11,7.046 -25.648,22.396 -25.648,40.089l0 0.001c0,24.31 19.89,44.2 44.201,44.2l203.927 0c24.31,0 44.2,-19.89 44.2,-44.2l0 -0.001c0,-24.31 -19.89,-44.2 -44.2,-44.2l-0.33 0c-3.724,-12.29 -14.839,-21.368 -28.173,-22.058 -9.562,-31.128 -38.831,-53.786 -73.461,-53.786z"/>
   </clipPath>
   <clipPath id="id3">
    <path d="M205.095 146.203c21.479,0 40.129,11.952 49.519,29.49 0.998,-0.083 2.006,-0.128 3.025,-0.128 17.483,0 32.059,12.443 35.358,28.956 11.02,5.139 18.706,16.334 18.706,29.24l0 0c0,17.732 -14.507,32.239 -32.238,32.239l-148.74 0c-17.731,0 -32.238,-14.507 -32.238,-32.239l0 0c0,-17.731 14.507,-32.239 32.238,-32.239l0.241 0c2.716,-8.964 10.823,-15.585 20.548,-16.088 6.975,-22.704 28.323,-39.231 53.581,-39.231z"/>
   </clipPath>
   <clipPath id="id4">
    <path d="M113.728 326.714c0.629,1.162 1.128,2.404 1.481,3.706l0.328 1.454c0.18,1.001 0.274,2.031 0.274,3.083 0,9.568 -7.757,17.325 -17.324,17.325 -9.569,0 -17.325,-7.757 -17.325,-17.325 0,-1.052 0.094,-2.082 0.274,-3.083l0.37 -1.61c0.333,-1.187 0.79,-2.322 1.356,-3.391l15.314 -38.31 15.252 38.151z"/>
   </clipPath>
   <clipPath id="id5">
    <path d="M265.242 326.714c0.629,1.162 1.128,2.404 1.481,3.706l0.328 1.454c0.18,1.001 0.274,2.031 0.274,3.083 0,9.568 -7.757,17.325 -17.325,17.325 -9.568,0 -17.324,-7.757 -17.324,-17.325 0,-1.052 0.094,-2.082 0.273,-3.083l0.37 -1.61c0.334,-1.187 0.791,-2.322 1.357,-3.391l15.314 -38.31 15.252 38.151z"/>
   </clipPath>
   <clipPath id="id6">
    <path d="M416.755 326.714c0.63,1.162 1.129,2.404 1.482,3.706l0.328 1.454c0.18,1.001 0.273,2.031 0.273,3.083 0,9.568 -7.756,17.325 -17.324,17.325 -9.568,0 -17.324,-7.757 -17.324,-17.325 0,-1.052 0.093,-2.082 0.273,-3.083l0.37 -1.61c0.334,-1.187 0.791,-2.322 1.356,-3.391l15.315 -38.31 15.251 38.151z"/>
   </clipPath>
   <clipPath id="id7">
    <path d="M190.066 401.433c0.629,1.161 1.128,2.403 1.481,3.705l0.328 1.455c0.18,1 0.274,2.03 0.274,3.083 0,9.568 -7.757,17.324 -17.325,17.324 -9.568,0 -17.324,-7.756 -17.324,-17.324 0,-1.053 0.094,-2.083 0.273,-3.083l0.37 -1.611c0.334,-1.187 0.791,-2.322 1.357,-3.391l15.314 -38.309 15.252 38.151z"/>
   </clipPath>
   <clipPath id="id8">
    <path d="M340.424 401.433c0.629,1.161 1.129,2.403 1.481,3.705l0.328 1.455c0.18,1 0.274,2.03 0.274,3.083 0,9.568 -7.756,17.324 -17.324,17.324 -9.568,0 -17.325,-7.756 -17.325,-17.324 0,-1.053 0.094,-2.083 0.274,-3.083l0.37 -1.611c0.334,-1.187 0.791,-2.322 1.356,-3.391l15.315 -38.309 15.251 38.151z"/>
   </clipPath>
 </defs>
 <g id="Layer_x0020_1">
  <metadata id="CorelCorpID_0Corel-Layer"/>
  <path class="fil0" d="M250 323.499c124.54,0 225.5,34.027 225.5,76.001 0,41.974 -100.96,76 -225.5,76 -124.54,0 -225.5,-34.026 -225.5,-76 0,-41.974 100.96,-76.001 225.5,-76.001z"/>
  <g style="clip-path:url(#id0)">
   <g id="_1368196624">
    <rect class="fil1" transform="matrix(0.922103 -0.386944 0.386944 0.922103 79.3341 475.588)" width="412" height="168"/>
   </g>
  </g>
  <path class="fil2 str0" d="M250 323.499c124.54,0 225.5,34.027 225.5,76.001 0,41.974 -100.96,76 -225.5,76 -124.54,0 -225.5,-34.026 -225.5,-76 0,-41.974 100.96,-76.001 225.5,-76.001z"/>
  <path class="fil3" d="M146.248 98.056c21.479,0 40.129,11.952 49.52,29.49 0.997,-0.083 2.006,-0.128 3.025,-0.128 17.483,0 32.058,12.443 35.357,28.955 11.021,5.14 18.707,16.335 18.707,29.241l0 0c0,17.731 -14.507,32.239 -32.239,32.239l-148.739 0c-17.732,0 -32.239,-14.508 -32.239,-32.239l0 0c0,-17.732 14.507,-32.239 32.239,-32.239l0.24 0c2.716,-8.964 10.823,-15.585 20.549,-16.089 6.974,-22.704 28.322,-39.23 53.58,-39.23z"/>
  <g style="clip-path:url(#id1)">
   <g id="_1368195352">
    <path id="1" class="fil4" d="M102.454 276.837c13.081,9.234 21.624,24.467 21.624,41.697 0,28.171 -22.838,51.008 -51.009,51.008 -17.229,0 -32.462,-8.543 -41.697,-21.623 8.307,5.864 18.443,9.311 29.385,9.311 28.171,0 51.008,-22.838 51.008,-51.009 0,-10.941 -3.446,-21.078 -9.311,-29.384z"/>
    <path class="fil5" d="M196.836 179.885c0.843,2.858 1.298,5.878 1.298,9l0 0c0,17.601 -14.399,32 -31.999,32l-97.335 0c-17.6,0 -31.999,-14.399 -31.999,-32l0 0c0,-3.122 0.455,-6.142 1.298,-9 3.913,13.255 16.223,23 30.701,23l97.335 0c14.478,0 26.788,-9.745 30.701,-23z"/>
   </g>
  </g>
  <path class="fil2 str1" d="M146.248 98.056c21.479,0 40.129,11.952 49.52,29.49 0.997,-0.083 2.006,-0.128 3.025,-0.128 17.483,0 32.058,12.443 35.357,28.955 11.021,5.14 18.707,16.335 18.707,29.241l0 0c0,17.731 -14.507,32.239 -32.239,32.239l-148.739 0c-17.732,0 -32.239,-14.508 -32.239,-32.239l0 0c0,-17.732 14.507,-32.239 32.239,-32.239l0.24 0c2.716,-8.964 10.823,-15.585 20.549,-16.089 6.974,-22.704 28.322,-39.23 53.58,-39.23z"/>
  <path class="fil6" d="M314.196 73c-29.448,0 -55.018,16.386 -67.892,40.431 -1.368,-0.114 -2.751,-0.175 -4.148,-0.175 -23.97,0 -43.953,17.06 -48.476,39.699 -15.11,7.046 -25.648,22.396 -25.648,40.089l0 0.001c0,24.31 19.89,44.2 44.201,44.2l203.927 0c24.31,0 44.2,-19.89 44.2,-44.2l0 -0.001c0,-24.31 -19.89,-44.2 -44.2,-44.2l-0.33 0c-3.724,-12.29 -14.839,-21.368 -28.173,-22.058 -9.562,-31.128 -38.831,-53.786 -73.461,-53.786z"/>
  <g style="clip-path:url(#id2)">
   <g id="_1368193864">
    <path id="1" class="fil4" d="M102.454 276.837c13.081,9.234 21.624,24.467 21.624,41.697 0,28.171 -22.838,51.008 -51.009,51.008 -17.229,0 -32.462,-8.543 -41.697,-21.623 8.307,5.864 18.443,9.311 29.385,9.311 28.171,0 51.008,-22.838 51.008,-51.009 0,-10.941 -3.446,-21.078 -9.311,-29.384z"/>
    <path class="fil7" d="M458.778 183.085c1.079,3.708 1.661,7.622 1.661,11.666l0 0.001c0,23.1 -18.9,42 -42,42l-143.334 0c-23.1,0 -42,-18.9 -42,-42l0 -0.001c0,-4.044 0.581,-7.958 1.66,-11.666 5.088,17.471 21.284,30.333 40.34,30.333l143.334 0c19.056,0 35.251,-12.862 40.339,-30.333z"/>
   </g>
  </g>
  <path class="fil2 str1" d="M314.196 73c-29.448,0 -55.018,16.386 -67.892,40.431 -1.368,-0.114 -2.751,-0.175 -4.148,-0.175 -23.97,0 -43.953,17.06 -48.476,39.699 -15.11,7.046 -25.648,22.396 -25.648,40.089l0 0.001c0,24.31 19.89,44.2 44.201,44.2l203.927 0c24.31,0 44.2,-19.89 44.2,-44.2l0 -0.001c0,-24.31 -19.89,-44.2 -44.2,-44.2l-0.33 0c-3.724,-12.29 -14.839,-21.368 -28.173,-22.058 -9.562,-31.128 -38.831,-53.786 -73.461,-53.786z"/>
  <path class="fil8" d="M205.095 146.203c21.479,0 40.129,11.952 49.519,29.49 0.998,-0.083 2.006,-0.128 3.025,-0.128 17.483,0 32.059,12.443 35.358,28.956 11.02,5.139 18.706,16.334 18.706,29.24l0 0c0,17.732 -14.507,32.239 -32.238,32.239l-148.74 0c-17.731,0 -32.238,-14.507 -32.238,-32.239l0 0c0,-17.731 14.507,-32.239 32.238,-32.239l0.241 0c2.716,-8.964 10.823,-15.585 20.548,-16.088 6.975,-22.704 28.323,-39.231 53.581,-39.231z"/>
  <g style="clip-path:url(#id3)">
   <g id="_1368193720">
    <path id="1" class="fil4" d="M102.454 276.837c13.081,9.234 21.624,24.467 21.624,41.697 0,28.171 -22.838,51.008 -51.009,51.008 -17.229,0 -32.462,-8.543 -41.697,-21.623 8.307,5.864 18.443,9.311 29.385,9.311 28.171,0 51.008,-22.838 51.008,-51.009 0,-10.941 -3.446,-21.078 -9.311,-29.384z"/>
    <path class="fil3" d="M316.601 232.584c0.654,2.238 1.004,4.584 1.004,7l0 0c0,15.217 -13.835,27.667 -30.746,27.667l-161.509 0c-16.91,0 -30.745,-12.45 -30.745,-27.667l0 0c0,-2.416 0.35,-4.762 1.004,-7 3.468,11.856 15.516,20.666 29.741,20.666l161.509 0c14.225,0 26.274,-8.81 29.742,-20.666z"/>
   </g>
  </g>
  <path class="fil2 str1" d="M205.095 146.203c21.479,0 40.129,11.952 49.519,29.49 0.998,-0.083 2.006,-0.128 3.025,-0.128 17.483,0 32.059,12.443 35.358,28.956 11.02,5.139 18.706,16.334 18.706,29.24l0 0c0,17.732 -14.507,32.239 -32.238,32.239l-148.74 0c-17.731,0 -32.238,-14.507 -32.238,-32.239l0 0c0,-17.731 14.507,-32.239 32.238,-32.239l0.241 0c2.716,-8.964 10.823,-15.585 20.548,-16.088 6.975,-22.704 28.323,-39.231 53.581,-39.231z"/>
  <path class="fil9" d="M113.728 326.714c0.629,1.162 1.128,2.404 1.481,3.706l0.328 1.454c0.18,1.001 0.274,2.031 0.274,3.083 0,9.568 -7.757,17.325 -17.324,17.325 -9.569,0 -17.325,-7.757 -17.325,-17.325 0,-1.052 0.094,-2.082 0.274,-3.083l0.37 -1.61c0.333,-1.187 0.79,-2.322 1.356,-3.391l15.314 -38.31 15.252 38.151z"/>
  <g style="clip-path:url(#id4)">
   <g id="_1368192712">
    <path id="1" class="fil4" d="M102.454 276.837c13.081,9.234 21.624,24.467 21.624,41.697 0,28.171 -22.838,51.008 -51.009,51.008 -17.229,0 -32.462,-8.543 -41.697,-21.623 8.307,5.864 18.443,9.311 29.385,9.311 28.171,0 51.008,-22.838 51.008,-51.009 0,-10.941 -3.446,-21.078 -9.311,-29.384z"/>
   </g>
  </g>
  <path class="fil2 str1" d="M113.728 326.714c0.629,1.162 1.128,2.404 1.481,3.706l0.328 1.454c0.18,1.001 0.274,2.031 0.274,3.083 0,9.568 -7.757,17.325 -17.324,17.325 -9.569,0 -17.325,-7.757 -17.325,-17.325 0,-1.052 0.094,-2.082 0.274,-3.083l0.37 -1.61c0.333,-1.187 0.79,-2.322 1.356,-3.391l15.314 -38.31 15.252 38.151z"/>
  <path class="fil9" d="M265.242 326.714c0.629,1.162 1.128,2.404 1.481,3.706l0.328 1.454c0.18,1.001 0.274,2.031 0.274,3.083 0,9.568 -7.757,17.325 -17.325,17.325 -9.568,0 -17.324,-7.757 -17.324,-17.325 0,-1.052 0.094,-2.082 0.273,-3.083l0.37 -1.61c0.334,-1.187 0.791,-2.322 1.357,-3.391l15.314 -38.31 15.252 38.151z"/>
  <g style="clip-path:url(#id5)">
   <g id="_1368192832">
    <path id="1" class="fil4" d="M253.968 276.837c13.08,9.234 21.624,24.467 21.624,41.697 0,28.171 -22.838,51.008 -51.009,51.008 -17.229,0 -32.462,-8.543 -41.697,-21.623 8.306,5.864 18.443,9.311 29.384,9.311 28.172,0 51.009,-22.838 51.009,-51.009 0,-10.941 -3.447,-21.078 -9.311,-29.384z"/>
   </g>
  </g>
  <path class="fil2 str1" d="M265.242 326.714c0.629,1.162 1.128,2.404 1.481,3.706l0.328 1.454c0.18,1.001 0.274,2.031 0.274,3.083 0,9.568 -7.757,17.325 -17.325,17.325 -9.568,0 -17.324,-7.757 -17.324,-17.325 0,-1.052 0.094,-2.082 0.273,-3.083l0.37 -1.61c0.334,-1.187 0.791,-2.322 1.357,-3.391l15.314 -38.31 15.252 38.151z"/>
  <path class="fil9" d="M416.755 326.714c0.63,1.162 1.129,2.404 1.482,3.706l0.328 1.454c0.18,1.001 0.273,2.031 0.273,3.083 0,9.568 -7.756,17.325 -17.324,17.325 -9.568,0 -17.324,-7.757 -17.324,-17.325 0,-1.052 0.093,-2.082 0.273,-3.083l0.37 -1.61c0.334,-1.187 0.791,-2.322 1.356,-3.391l15.315 -38.31 15.251 38.151z"/>
  <g style="clip-path:url(#id6)">
   <g id="_1368191944">
    <path id="1" class="fil4" d="M405.482 276.837c13.08,9.234 21.623,24.467 21.623,41.697 0,28.171 -22.837,51.008 -51.008,51.008 -17.23,0 -32.463,-8.543 -41.697,-21.623 8.306,5.864 18.443,9.311 29.384,9.311 28.171,0 51.009,-22.838 51.009,-51.009 0,-10.941 -3.447,-21.078 -9.311,-29.384z"/>
   </g>
  </g>
  <path class="fil2 str1" d="M416.755 326.714c0.63,1.162 1.129,2.404 1.482,3.706l0.328 1.454c0.18,1.001 0.273,2.031 0.273,3.083 0,9.568 -7.756,17.325 -17.324,17.325 -9.568,0 -17.324,-7.757 -17.324,-17.325 0,-1.052 0.093,-2.082 0.273,-3.083l0.37 -1.61c0.334,-1.187 0.791,-2.322 1.356,-3.391l15.315 -38.31 15.251 38.151z"/>
  <path class="fil9" d="M190.066 401.433c0.629,1.161 1.128,2.403 1.481,3.705l0.328 1.455c0.18,1 0.274,2.03 0.274,3.083 0,9.568 -7.757,17.324 -17.325,17.324 -9.568,0 -17.324,-7.756 -17.324,-17.324 0,-1.053 0.094,-2.083 0.273,-3.083l0.37 -1.611c0.334,-1.187 0.791,-2.322 1.357,-3.391l15.314 -38.309 15.252 38.151z"/>
  <g style="clip-path:url(#id7)">
   <g id="_1368191368">
    <path id="1" class="fil4" d="M178.792 351.555c13.08,9.235 21.624,24.468 21.624,41.697 0,28.171 -22.838,51.009 -51.009,51.009 -17.229,0 -32.462,-8.544 -41.697,-21.624 8.306,5.865 18.443,9.311 29.384,9.311 28.172,0 51.009,-22.837 51.009,-51.008 0,-10.942 -3.447,-21.079 -9.311,-29.385z"/>
   </g>
  </g>
  <path class="fil2 str1" d="M190.066 401.433c0.629,1.161 1.128,2.403 1.481,3.705l0.328 1.455c0.18,1 0.274,2.03 0.274,3.083 0,9.568 -7.757,17.324 -17.325,17.324 -9.568,0 -17.324,-7.756 -17.324,-17.324 0,-1.053 0.094,-2.083 0.273,-3.083l0.37 -1.611c0.334,-1.187 0.791,-2.322 1.357,-3.391l15.314 -38.309 15.252 38.151z"/>
  <path class="fil9" d="M340.424 401.433c0.629,1.161 1.129,2.403 1.481,3.705l0.328 1.455c0.18,1 0.274,2.03 0.274,3.083 0,9.568 -7.756,17.324 -17.324,17.324 -9.568,0 -17.325,-7.756 -17.325,-17.324 0,-1.053 0.094,-2.083 0.274,-3.083l0.37 -1.611c0.334,-1.187 0.791,-2.322 1.356,-3.391l15.315 -38.309 15.251 38.151z"/>
  <g style="clip-path:url(#id8)">
   <g id="_1368186640">
    <path id="1" class="fil4" d="M329.15 351.555c13.081,9.235 21.624,24.468 21.624,41.697 0,28.171 -22.837,51.009 -51.009,51.009 -17.229,0 -32.462,-8.544 -41.697,-21.624 8.307,5.865 18.443,9.311 29.385,9.311 28.171,0 51.008,-22.837 51.008,-51.008 0,-10.942 -3.446,-21.079 -9.311,-29.385z"/>
   </g>
  </g>
  <path class="fil2 str1" d="M340.424 401.433c0.629,1.161 1.129,2.403 1.481,3.705l0.328 1.455c0.18,1 0.274,2.03 0.274,3.083 0,9.568 -7.756,17.324 -17.324,17.324 -9.568,0 -17.325,-7.756 -17.325,-17.324 0,-1.053 0.094,-2.083 0.274,-3.083l0.37 -1.611c0.334,-1.187 0.791,-2.322 1.356,-3.391l15.315 -38.309 15.251 38.151z"/>
 </g>
</svg>
