<?xml version="1.0" encoding="UTF-8"?>
<!DOCTYPE svg PUBLIC "-//W3C//DTD SVG 1.1//EN" "http://www.w3.org/Graphics/SVG/1.1/DTD/svg11.dtd">
<!-- Creator: CorelDRAW 2019 -->
<svg xmlns="http://www.w3.org/2000/svg" xml:space="preserve" width="500px" height="500px" version="1.1" style="shape-rendering:geometricPrecision; text-rendering:geometricPrecision; image-rendering:optimizeQuality; fill-rule:evenodd; clip-rule:evenodd"
viewBox="0 0 500 500"
 xmlns:xlink="http://www.w3.org/1999/xlink"
 xmlns:xodm="http://www.corel.com/coreldraw/odm/2003">
 <defs>
  <style type="text/css">
   <![CDATA[
    .str1 {stroke:black;stroke-width:5;stroke-miterlimit:22.9256}
    .str0 {stroke:#339966;stroke-width:5;stroke-miterlimit:22.9256}
    .fil2 {fill:#999999}
    .fil0 {fill:#99FF99}
    .fil4 {fill:#99FFFF}
    .fil1 {fill:#B3B3B3}
    .fil3 {fill:#E6E6E6}
   ]]>
  </style>
 </defs>
 <g id="Layer_x0020_1">
  <metadata id="CorelCorpID_0Corel-Layer"/>
  <ellipse class="fil0 str0" cx="250" cy="399.5" rx="225.5" ry="76"/>
  <g id="_1043783464">
   <path class="fil1 str1" d="M146.248 98.056c21.479,0 40.129,11.952 49.52,29.49 0.997,-0.083 2.006,-0.128 3.025,-0.128 17.483,0 32.058,12.443 35.357,28.955 11.021,5.14 18.707,16.335 18.707,29.241l0 0c0,17.731 -14.507,32.239 -32.239,32.239l-148.739 0c-17.732,0 -32.239,-14.508 -32.239,-32.239l0 0c0,-17.732 14.507,-32.239 32.239,-32.239l0.24 0c2.716,-8.964 10.823,-15.585 20.549,-16.089 6.974,-22.704 28.322,-39.23 53.58,-39.23z"/>
   <path class="fil2 str1" d="M314.196 73c-29.448,0 -55.018,16.386 -67.892,40.431 -1.368,-0.114 -2.751,-0.175 -4.148,-0.175 -23.97,0 -43.953,17.06 -48.476,39.699 -15.11,7.046 -25.648,22.396 -25.648,40.089l0 0.001c0,24.31 19.89,44.2 44.201,44.2l203.927 0c24.31,0 44.2,-19.89 44.2,-44.2l0 -0.001c0,-24.31 -19.89,-44.2 -44.2,-44.2l-0.33 0c-3.724,-12.29 -14.839,-21.368 -28.173,-22.058 -9.562,-31.128 -38.831,-53.786 -73.461,-53.786z"/>
   <path class="fil3 str1" d="M205.095 146.203c21.479,0 40.129,11.952 49.519,29.49 0.998,-0.083 2.006,-0.128 3.025,-0.128 17.483,0 32.059,12.443 35.358,28.956 11.02,5.139 18.706,16.334 18.706,29.24l0 0c0,17.732 -14.507,32.239 -32.238,32.239l-148.74 0c-17.731,0 -32.238,-14.507 -32.238,-32.239l0 0c0,-17.731 14.507,-32.239 32.238,-32.239l0.241 0c2.716,-8.964 10.823,-15.585 20.548,-16.088 6.975,-22.704 28.323,-39.231 53.581,-39.231z"/>
   <path class="fil4 str1" d="M113.728 326.714c0.629,1.162 1.128,2.404 1.481,3.706l0.328 1.454c0.18,1.001 0.274,2.031 0.274,3.083 0,9.568 -7.757,17.325 -17.324,17.325 -9.569,0 -17.325,-7.757 -17.325,-17.325 0,-1.052 0.094,-2.082 0.274,-3.083l0.37 -1.61c0.333,-1.187 0.79,-2.322 1.356,-3.391l15.314 -38.31 15.252 38.151z"/>
   <path class="fil4 str1" d="M265.242 326.714c0.629,1.162 1.128,2.404 1.481,3.706l0.328 1.454c0.18,1.001 0.274,2.031 0.274,3.083 0,9.568 -7.757,17.325 -17.325,17.325 -9.568,0 -17.324,-7.757 -17.324,-17.325 0,-1.052 0.094,-2.082 0.273,-3.083l0.37 -1.61c0.334,-1.187 0.791,-2.322 1.357,-3.391l15.314 -38.31 15.252 38.151z"/>
   <path class="fil4 str1" d="M190.066 401.433c0.629,1.161 1.128,2.403 1.481,3.705l0.328 1.455c0.18,1 0.274,2.03 0.274,3.083 0,9.568 -7.757,17.324 -17.325,17.324 -9.568,0 -17.324,-7.756 -17.324,-17.324 0,-1.053 0.094,-2.083 0.273,-3.083l0.37 -1.611c0.334,-1.187 0.791,-2.322 1.357,-3.391l15.314 -38.309 15.252 38.151z"/>
   <path class="fil4 str1" d="M416.755 328.292c0.63,1.161 1.129,2.403 1.482,3.706l0.328 1.454c0.18,1 0.273,2.031 0.273,3.083 0,9.568 -7.756,17.324 -17.324,17.324 -9.568,0 -17.324,-7.756 -17.324,-17.324 0,-1.052 0.093,-2.083 0.273,-3.083l0.37 -1.61c0.334,-1.188 0.791,-2.323 1.356,-3.392l15.315 -38.309 15.251 38.151z"/>
   <path class="fil4 str1" d="M340.424 401.433c0.629,1.161 1.129,2.403 1.481,3.705l0.328 1.455c0.18,1 0.274,2.03 0.274,3.083 0,9.568 -7.756,17.324 -17.324,17.324 -9.568,0 -17.325,-7.756 -17.325,-17.324 0,-1.053 0.094,-2.083 0.274,-3.083l0.37 -1.611c0.334,-1.187 0.791,-2.322 1.356,-3.391l15.315 -38.309 15.251 38.151z"/>
  </g>
 </g>
</svg>
