<?xml version="1.0" encoding="UTF-8"?>
<!DOCTYPE svg PUBLIC "-//W3C//DTD SVG 1.1//EN" "http://www.w3.org/Graphics/SVG/1.1/DTD/svg11.dtd">
<!-- Creator: CorelDRAW 2019 -->
<svg xmlns="http://www.w3.org/2000/svg" xml:space="preserve" width="500px" height="500px" version="1.1" style="shape-rendering:geometricPrecision; text-rendering:geometricPrecision; image-rendering:optimizeQuality; fill-rule:evenodd; clip-rule:evenodd"
viewBox="0 0 500 500"
 xmlns:xlink="http://www.w3.org/1999/xlink"
 xmlns:xodm="http://www.corel.com/coreldraw/odm/2003">
 <defs>
  <style type="text/css">
   <![CDATA[
    .str1 {stroke:black;stroke-width:5;stroke-miterlimit:22.9256}
    .str0 {stroke:#333333;stroke-width:5;stroke-miterlimit:22.9256}
    .fil1 {fill:#B3B3B3}
    .fil2 {fill:#E6E6E6}
    .fil0 {fill:#FFFF66}
   ]]>
  </style>
 </defs>
 <g id="Layer_x0020_1">
  <metadata id="CorelCorpID_0Corel-Layer"/>
  <path class="fil0 str0" d="M211.976 124.484c62.145,0 112.524,50.38 112.524,112.525 0,62.146 -50.379,112.525 -112.524,112.525 -62.146,0 -112.525,-50.379 -112.525,-112.525 0,-62.145 50.379,-112.525 112.525,-112.525z"/>
  <path class="fil1 str1" d="M130.81 276.646c18.8,0 35.124,10.461 43.343,25.811 0.873,-0.072 1.755,-0.111 2.648,-0.111 15.302,0 28.059,10.89 30.947,25.343 9.646,4.498 16.373,14.298 16.373,25.593l0 0c0,15.52 -12.698,28.218 -28.217,28.218l-130.187 0c-15.52,0 -28.217,-12.698 -28.217,-28.218l0 0c0,-15.519 12.697,-28.217 28.217,-28.217l0.211 0c2.377,-7.846 9.472,-13.642 17.985,-14.082 6.104,-19.872 24.79,-34.337 46.897,-34.337z"/>
  <path class="fil2 str1" d="M308.391 263.635c32.119,0 60.01,17.873 74.052,44.099 1.491,-0.124 2.999,-0.19 4.523,-0.19 26.145,0 47.941,18.607 52.874,43.3 16.48,7.685 27.975,24.427 27.975,43.726l0 0.001c0,26.515 -21.695,48.21 -48.211,48.21l-222.427 0c-26.516,0 -48.21,-21.695 -48.21,-48.21l0 -0.001c0,-26.515 21.694,-48.21 48.21,-48.21l0.36 0c4.061,-13.405 16.184,-23.307 30.728,-24.059 10.43,-33.952 42.355,-58.666 80.126,-58.666z"/>
 </g>
</svg>
