<?xml version="1.0" encoding="UTF-8"?>
<!DOCTYPE svg PUBLIC "-//W3C//DTD SVG 1.1//EN" "http://www.w3.org/Graphics/SVG/1.1/DTD/svg11.dtd">
<!-- Creator: CorelDRAW 2019 -->
<svg xmlns="http://www.w3.org/2000/svg" xml:space="preserve" width="500px" height="500px" version="1.1" style="shape-rendering:geometricPrecision; text-rendering:geometricPrecision; image-rendering:optimizeQuality; fill-rule:evenodd; clip-rule:evenodd"
viewBox="0 0 500 500"
 xmlns:xlink="http://www.w3.org/1999/xlink"
 xmlns:xodm="http://www.corel.com/coreldraw/odm/2003">
 <defs>
  <style type="text/css">
   <![CDATA[
    .str1 {stroke:black;stroke-width:5;stroke-miterlimit:22.9256}
    .str0 {stroke:#333333;stroke-width:5;stroke-miterlimit:22.9256}
    .fil4 {fill:none}
    .fil6 {fill:#666666}
    .fil5 {fill:#B3B3B3}
    .fil7 {fill:#E6E6E6}
    .fil2 {fill:#FFCC00}
    .fil1 {fill:#FFCC00}
    .fil0 {fill:#FFFF66}
    .fil3 {fill:#FFFF99}
    .fil8 {fill:white}
   ]]>
  </style>
    <clipPath id="id0">
     <path d="M247.343 99.359c59.923,0 108.5,48.577 108.5,108.5 0,59.923 -48.577,108.5 -108.5,108.5 -59.923,0 -108.5,-48.577 -108.5,-108.5 0,-59.923 48.577,-108.5 108.5,-108.5z"/>
    </clipPath>
    <clipPath id="id1">
     <path d="M128.153 234.505c18.8,0 35.124,10.461 43.343,25.812 0.873,-0.073 1.755,-0.112 2.648,-0.112 15.302,0 28.059,10.89 30.947,25.343 9.646,4.499 16.373,14.298 16.373,25.593l0 0.001c0,15.52 -12.698,28.217 -28.217,28.217l-130.187 0c-15.52,0 -28.217,-12.697 -28.217,-28.217l0 -0.001c0,-15.519 12.697,-28.217 28.217,-28.217l0.211 0c2.377,-7.846 9.472,-13.641 17.985,-14.082 6.104,-19.872 24.79,-34.337 46.897,-34.337z"/>
    </clipPath>
    <clipPath id="id2">
     <path d="M305.734 221.495c32.119,0 60.01,17.872 74.052,44.099 1.491,-0.124 2.999,-0.191 4.523,-0.191 26.144,0 47.941,18.607 52.874,43.3 16.48,7.686 27.975,24.427 27.975,43.727l0 0c0,26.516 -21.695,48.211 -48.211,48.211l-222.427 0c-26.516,0 -48.21,-21.695 -48.21,-48.211l0 0c0,-26.516 21.694,-48.21 48.21,-48.21l0.36 0c4.061,-13.406 16.184,-23.307 30.728,-24.06 10.43,-33.952 42.355,-58.665 80.126,-58.665z"/>
    </clipPath>
 </defs>
 <g id="Layer_x0020_1">
  <metadata id="CorelCorpID_0Corel-Layer"/>
  <g id="_1287833656">
   <path class="fil0" d="M247.343 99.359c59.923,0 108.5,48.577 108.5,108.5 0,59.923 -48.577,108.5 -108.5,108.5 -59.923,0 -108.5,-48.577 -108.5,-108.5 0,-59.923 48.577,-108.5 108.5,-108.5z"/>
   <g style="clip-path:url(#id0)">
    <g>
     <path id="1" class="fil1" d="M324.419 134.976c23.645,19.865 38.679,49.647 38.679,82.946 0,59.806 -48.483,108.289 -108.29,108.289 -41.925,0 -78.282,-23.827 -96.277,-58.677 18.823,15.814 43.102,25.344 69.61,25.344 59.807,0 108.29,-48.483 108.29,-108.29 0,-17.881 -4.337,-34.748 -12.012,-49.612z"/>
     <path class="fil2" d="M112.039 192.183c0.503,2.264 0.777,4.679 0.777,7.186l0 0.001c0,12.681 -6.975,23.056 -15.5,23.056l-35.001 0c-8.525,0 -15.499,-10.375 -15.499,-23.056l0 -0.001c0,-0.923 0.038,-1.833 0.11,-2.729 2.042,9.19 7.882,15.869 14.722,15.869l35.001 0c7.905,0 14.475,-8.92 15.39,-20.326z"/>
     <path class="fil2" d="M448.706 224.047c0.503,-2.263 0.777,-4.679 0.777,-7.186l0 -0.001c0,-12.68 -6.975,-23.056 -15.5,-23.056l-35.001 0c-8.524,0 -15.499,10.376 -15.499,23.056l0 0.001c0,0.923 0.038,1.834 0.11,2.729 2.042,-9.19 7.883,-15.869 14.723,-15.869l35.001 0c7.904,0 14.474,8.92 15.389,20.326z"/>
     <path class="fil2" d="M161.75 99.222c-1.245,1.956 -2.76,3.858 -4.532,5.63l-0.001 0.001c-8.966,8.967 -21.235,11.371 -27.263,5.343l-24.749 -24.75c-6.028,-6.027 -3.624,-18.295 5.343,-27.262l0.001 -0.001c0.652,-0.653 1.323,-1.269 2.007,-1.852 -5.054,7.943 -5.647,16.796 -0.811,21.632l24.75 24.75c5.589,5.589 16.542,3.928 25.255,-3.491z"/>
     <path class="fil2" d="M139.163 292.756c1.956,1.245 3.858,2.76 5.63,4.532l0.001 0.001c8.967,8.966 11.371,21.235 5.343,27.263l-24.75 24.749c-6.027,6.028 -18.296,3.624 -27.262,-5.343l-0.001 -0.001c-0.653,-0.653 -1.269,-1.323 -1.852,-2.007 7.942,5.054 16.796,5.647 21.632,0.811l24.75 -24.75c5.589,-5.589 3.927,-16.543 -3.491,-25.255z"/>
     <path class="fil2" d="M233.361 343.702c2.264,-0.503 4.68,-0.777 7.186,-0.777l0.001 0c12.681,0 23.056,6.975 23.056,15.5l0 35.001c0,8.525 -10.375,15.499 -23.056,15.499l-0.001 0c-0.923,0 -1.833,-0.038 -2.729,-0.11 9.19,-2.042 15.87,-7.883 15.87,-14.722l0 -35.001c0,-7.905 -8.92,-14.475 -20.327,-15.39z"/>
     <path class="fil2" d="M332.882 314.96c1.245,-1.956 2.76,-3.858 4.532,-5.63l0.001 -0.001c8.967,-8.967 21.235,-11.371 27.263,-5.343l24.75 24.75c6.028,6.027 3.623,18.295 -5.344,27.262l0 0.001c-0.653,0.653 -1.324,1.269 -2.008,1.852 5.054,-7.943 5.647,-16.796 0.811,-21.632l-24.749 -24.75c-5.59,-5.589 -16.543,-3.928 -25.256,3.491z"/>
     <path class="fil2" d="M354.187 121.856c-1.957,-1.245 -3.858,-2.76 -5.631,-4.532l-0.001 -0.001c-8.966,-8.967 -11.37,-21.235 -5.343,-27.263l24.75 -24.749c6.028,-6.028 18.296,-3.624 27.263,5.343l0 0.001c0.653,0.652 1.27,1.323 1.852,2.007 -7.942,-5.054 -16.795,-5.647 -21.632,-0.811l-24.749 24.75c-5.589,5.589 -3.928,16.542 3.491,25.255z"/>
     <path class="fil2" d="M261.938 71.648c-2.264,0.503 -4.68,0.776 -7.186,0.776l-0.001 0c-12.681,0 -23.056,-6.974 -23.056,-15.499l0 -35.001c0,-8.525 10.375,-15.5 23.056,-15.5l0.001 0c0.923,0 1.833,0.039 2.729,0.11 -9.19,2.043 -15.87,7.883 -15.87,14.723l0 35.001c0,7.904 8.92,14.475 20.327,15.39z"/>
     <circle class="fil3" cx="194.484" cy="165.425" r="58.333"/>
    </g>
   </g>
   <path class="fil4 str0" d="M247.343 99.359c59.923,0 108.5,48.577 108.5,108.5 0,59.923 -48.577,108.5 -108.5,108.5 -59.923,0 -108.5,-48.577 -108.5,-108.5 0,-59.923 48.577,-108.5 108.5,-108.5z"/>
   <path class="fil5" d="M128.153 234.505c18.8,0 35.124,10.461 43.343,25.812 0.873,-0.073 1.755,-0.112 2.648,-0.112 15.302,0 28.059,10.89 30.947,25.343 9.646,4.499 16.373,14.298 16.373,25.593l0 0.001c0,15.52 -12.698,28.217 -28.217,28.217l-130.187 0c-15.52,0 -28.217,-12.697 -28.217,-28.217l0 -0.001c0,-15.519 12.697,-28.217 28.217,-28.217l0.211 0c2.377,-7.846 9.472,-13.641 17.985,-14.082 6.104,-19.872 24.79,-34.337 46.897,-34.337z"/>
   <g style="clip-path:url(#id1)">
    <g>
     <path id="1" class="fil6" d="M231.855 296.391c0.544,2.654 0.831,5.399 0.831,8.208l0 0c0,22.573 -18.469,41.041 -41.042,41.041l-121.951 0c-22.573,0 -41.041,-18.468 -41.041,-41.041l0 0c0,-2.809 0.286,-5.554 0.831,-8.208 3.829,18.675 20.446,32.833 40.21,32.833l121.951 0c19.764,0 36.381,-14.158 40.211,-32.833z"/>
    </g>
   </g>
   <path class="fil4 str1" d="M128.153 234.505c18.8,0 35.124,10.461 43.343,25.812 0.873,-0.073 1.755,-0.112 2.648,-0.112 15.302,0 28.059,10.89 30.947,25.343 9.646,4.499 16.373,14.298 16.373,25.593l0 0.001c0,15.52 -12.698,28.217 -28.217,28.217l-130.187 0c-15.52,0 -28.217,-12.697 -28.217,-28.217l0 -0.001c0,-15.519 12.697,-28.217 28.217,-28.217l0.211 0c2.377,-7.846 9.472,-13.641 17.985,-14.082 6.104,-19.872 24.79,-34.337 46.897,-34.337z"/>
   <path class="fil7" d="M305.734 221.495c32.119,0 60.01,17.872 74.052,44.099 1.491,-0.124 2.999,-0.191 4.523,-0.191 26.144,0 47.941,18.607 52.874,43.3 16.48,7.686 27.975,24.427 27.975,43.727l0 0c0,26.516 -21.695,48.211 -48.211,48.211l-222.427 0c-26.516,0 -48.21,-21.695 -48.21,-48.211l0 0c0,-26.516 21.694,-48.21 48.21,-48.21l0.36 0c4.061,-13.406 16.184,-23.307 30.728,-24.06 10.43,-33.952 42.355,-58.665 80.126,-58.665z"/>
   <g style="clip-path:url(#id2)">
    <g>
     <path id="1" class="fil8" d="M311.781 212.789c35.87,3.046 64.145,29.453 71.137,62.976 -12.486,-22.149 -35.349,-37.94 -62.593,-40.254 -43.769,-3.717 -82.263,28.75 -85.98,72.518 -0.671,7.898 -0.158,15.623 1.382,23.004 -7.572,-13.433 -11.328,-29.202 -9.925,-45.726 3.717,-43.768 42.211,-76.236 85.979,-72.518z"/>
     <path class="fil5" d="M480.678 330.397c0.778,3.791 1.187,7.713 1.187,11.726l0 0c0,32.247 -26.383,58.63 -58.63,58.63l-228.659 0c-32.247,0 -58.63,-26.383 -58.63,-58.63l0 0c0,-4.013 0.409,-7.935 1.186,-11.726 5.471,26.678 29.21,46.904 57.444,46.904l228.659 0c28.234,0 51.972,-20.226 57.443,-46.904z"/>
    </g>
   </g>
   <path class="fil4 str1" d="M305.734 221.495c32.119,0 60.01,17.872 74.052,44.099 1.491,-0.124 2.999,-0.191 4.523,-0.191 26.144,0 47.941,18.607 52.874,43.3 16.48,7.686 27.975,24.427 27.975,43.727l0 0c0,26.516 -21.695,48.211 -48.211,48.211l-222.427 0c-26.516,0 -48.21,-21.695 -48.21,-48.211l0 0c0,-26.516 21.694,-48.21 48.21,-48.21l0.36 0c4.061,-13.406 16.184,-23.307 30.728,-24.06 10.43,-33.952 42.355,-58.665 80.126,-58.665z"/>
  </g>
 </g>
</svg>
