<?xml version="1.0" encoding="UTF-8"?>
<!DOCTYPE svg PUBLIC "-//W3C//DTD SVG 1.1//EN" "http://www.w3.org/Graphics/SVG/1.1/DTD/svg11.dtd">
<!-- Creator: CorelDRAW 2019 -->
<svg xmlns="http://www.w3.org/2000/svg" xml:space="preserve" width="500px" height="500px" version="1.1" style="shape-rendering:geometricPrecision; text-rendering:geometricPrecision; image-rendering:optimizeQuality; fill-rule:evenodd; clip-rule:evenodd"
viewBox="0 0 500 500"
 xmlns:xlink="http://www.w3.org/1999/xlink"
 xmlns:xodm="http://www.corel.com/coreldraw/odm/2003">
 <defs>
  <style type="text/css">
   <![CDATA[
    .str0 {stroke:black;stroke-width:5;stroke-miterlimit:22.9256}
    .fil0 {fill:#666666}
    .fil1 {fill:#999999}
    .fil2 {fill:#E6E6E6}
   ]]>
  </style>
 </defs>
 <g id="Layer_x0020_1">
  <metadata id="CorelCorpID_0Corel-Layer"/>
  <g id="_1043637920">
   <path class="fil0 str0" d="M146.248 178.556c21.479,0 40.129,11.952 49.52,29.489 0.997,-0.082 2.006,-0.127 3.025,-0.127 17.483,0 32.058,12.443 35.357,28.955 11.021,5.139 18.707,16.335 18.707,29.241l0 0c0,17.731 -14.507,32.239 -32.239,32.239l-148.739 0c-17.732,0 -32.239,-14.508 -32.239,-32.239l0 0c0,-17.732 14.507,-32.239 32.239,-32.239l0.24 0c2.716,-8.965 10.823,-15.586 20.549,-16.089 6.974,-22.704 28.322,-39.23 53.58,-39.23z"/>
   <path class="fil1 str0" d="M314.196 153.5c-29.448,0 -55.018,16.386 -67.892,40.431 -1.368,-0.114 -2.751,-0.175 -4.148,-0.175 -23.97,0 -43.953,17.059 -48.476,39.699 -15.11,7.046 -25.648,22.395 -25.648,40.089l0 0.001c0,24.31 19.89,44.2 44.201,44.2l203.927 0c24.31,0 44.2,-19.89 44.2,-44.2l0 -0.001c0,-24.31 -19.89,-44.2 -44.2,-44.2l-0.33 0c-3.724,-12.291 -14.839,-21.368 -28.173,-22.058 -9.562,-31.128 -38.831,-53.786 -73.461,-53.786z"/>
   <path class="fil2 str0" d="M205.095 226.703c21.479,0 40.129,11.952 49.519,29.489 0.998,-0.082 2.006,-0.127 3.025,-0.127 17.483,0 32.059,12.443 35.358,28.955 11.02,5.139 18.706,16.335 18.706,29.241l0 0c0,17.731 -14.507,32.239 -32.238,32.239l-148.74 0c-17.731,0 -32.238,-14.508 -32.238,-32.239l0 0c0,-17.732 14.507,-32.239 32.238,-32.239l0.241 0c2.716,-8.965 10.823,-15.586 20.548,-16.089 6.975,-22.704 28.323,-39.23 53.581,-39.23z"/>
  </g>
 </g>
</svg>
