<?xml version="1.0" encoding="UTF-8"?>
<!DOCTYPE svg PUBLIC "-//W3C//DTD SVG 1.1//EN" "http://www.w3.org/Graphics/SVG/1.1/DTD/svg11.dtd">
<!-- Creator: CorelDRAW 2019 -->
<svg xmlns="http://www.w3.org/2000/svg" xml:space="preserve" width="500px" height="500px" version="1.1" style="shape-rendering:geometricPrecision; text-rendering:geometricPrecision; image-rendering:optimizeQuality; fill-rule:evenodd; clip-rule:evenodd"
viewBox="0 0 500 500"
 xmlns:xlink="http://www.w3.org/1999/xlink"
 xmlns:xodm="http://www.corel.com/coreldraw/odm/2003">
 <defs>
  <style type="text/css">
   <![CDATA[
    .str0 {stroke:black;stroke-width:5;stroke-miterlimit:22.9256}
    .fil3 {fill:none}
    .fil1 {fill:#00CCFF}
    .fil5 {fill:#666666}
    .fil2 {fill:gray}
    .fil4 {fill:#999999}
    .fil0 {fill:#B3B3B3}
    .fil6 {fill:#E6E6E6}
   ]]>
  </style>
    <clipPath id="id0">
     <path d="M129.416 166.965c24.963,0 46.639,13.891 57.553,34.274 1.159,-0.096 2.331,-0.148 3.516,-0.148 20.319,0 37.259,14.461 41.094,33.653 12.808,5.973 21.741,18.985 21.741,33.984l0 0.001c0,20.608 -16.861,37.469 -37.469,37.469l-172.871 0c-20.608,0 -37.469,-16.861 -37.469,-37.469l0 -0.001c0,-20.608 16.861,-37.469 37.469,-37.469l0.28 0c3.156,-10.419 12.578,-18.114 23.882,-18.699 8.106,-26.388 32.918,-45.595 62.274,-45.595z"/>
    </clipPath>
    <clipPath id="id1">
     <path d="M324.612 137.844c-34.226,0 -63.945,19.045 -78.908,46.99 -1.59,-0.131 -3.197,-0.202 -4.821,-0.202 -27.858,0 -51.083,19.827 -56.341,46.139 -17.56,8.189 -29.808,26.029 -29.808,46.594l0 0c0,28.255 23.117,51.372 51.371,51.372l237.012 0c28.255,0 51.372,-23.117 51.372,-51.372l0 0c0,-28.255 -23.117,-51.372 -51.372,-51.372l-0.384 0c-4.326,-14.285 -17.245,-24.835 -32.742,-25.637 -11.114,-36.178 -45.131,-62.512 -85.379,-62.512z"/>
    </clipPath>
    <clipPath id="id2">
     <path d="M197.81 222.924c24.963,0 46.639,13.89 57.553,34.273 1.159,-0.096 2.331,-0.147 3.516,-0.147 20.319,0 37.259,14.461 41.094,33.653 12.808,5.972 21.741,18.984 21.741,33.984l0 0c0,20.608 -16.861,37.469 -37.469,37.469l-172.871 0c-20.608,0 -37.469,-16.861 -37.469,-37.469l0 0c0,-20.608 16.861,-37.469 37.469,-37.469l0.28 0c3.156,-10.419 12.578,-18.114 23.882,-18.699 8.106,-26.388 32.918,-45.595 62.274,-45.595z"/>
    </clipPath>
 </defs>
 <g id="Layer_x0020_1">
  <metadata id="CorelCorpID_0Corel-Layer"/>
  <g id="_1291327992">
   <path class="fil0" d="M129.416 166.965c24.963,0 46.639,13.891 57.553,34.274 1.159,-0.096 2.331,-0.148 3.516,-0.148 20.319,0 37.259,14.461 41.094,33.653 12.808,5.973 21.741,18.985 21.741,33.984l0 0.001c0,20.608 -16.861,37.469 -37.469,37.469l-172.871 0c-20.608,0 -37.469,-16.861 -37.469,-37.469l0 -0.001c0,-20.608 16.861,-37.469 37.469,-37.469l0.28 0c3.156,-10.419 12.578,-18.114 23.882,-18.699 8.106,-26.388 32.918,-45.595 62.274,-45.595z"/>
   <g style="clip-path:url(#id0)">
    <g>
     <path id="1" class="fil1" d="M78.516 374.751c15.203,10.733 25.132,28.437 25.132,48.462 0,32.742 -26.542,59.284 -59.284,59.284 -20.025,0 -37.729,-9.929 -48.462,-25.132 9.654,6.816 21.435,10.822 34.152,10.822 32.741,0 59.284,-26.542 59.284,-59.284 0,-12.717 -4.006,-24.498 -10.822,-34.152z"/>
     <path class="fil2" d="M188.21 262.07c0.98,3.322 1.51,6.832 1.51,10.46l0 0.001c0,20.455 -16.736,37.191 -37.192,37.191l-113.126 0c-20.455,0 -37.191,-16.736 -37.191,-37.191l0 -0.001c0,-3.628 0.53,-7.138 1.51,-10.46 4.547,15.406 18.854,26.732 35.681,26.732l113.126 0c16.827,0 31.135,-11.326 35.682,-26.732z"/>
    </g>
   </g>
   <path class="fil3 str0" d="M129.416 166.965c24.963,0 46.639,13.891 57.553,34.274 1.159,-0.096 2.331,-0.148 3.516,-0.148 20.319,0 37.259,14.461 41.094,33.653 12.808,5.973 21.741,18.985 21.741,33.984l0 0.001c0,20.608 -16.861,37.469 -37.469,37.469l-172.871 0c-20.608,0 -37.469,-16.861 -37.469,-37.469l0 -0.001c0,-20.608 16.861,-37.469 37.469,-37.469l0.28 0c3.156,-10.419 12.578,-18.114 23.882,-18.699 8.106,-26.388 32.918,-45.595 62.274,-45.595z"/>
   <path class="fil4" d="M324.612 137.844c-34.226,0 -63.945,19.045 -78.908,46.99 -1.59,-0.131 -3.197,-0.202 -4.821,-0.202 -27.858,0 -51.083,19.827 -56.341,46.139 -17.56,8.189 -29.808,26.029 -29.808,46.594l0 0c0,28.255 23.117,51.372 51.371,51.372l237.012 0c28.255,0 51.372,-23.117 51.372,-51.372l0 0c0,-28.255 -23.117,-51.372 -51.372,-51.372l-0.384 0c-4.326,-14.285 -17.245,-24.835 -32.742,-25.637 -11.114,-36.178 -45.131,-62.512 -85.379,-62.512z"/>
   <g style="clip-path:url(#id1)">
    <g>
     <path id="1" class="fil1" d="M78.516 374.751c15.203,10.733 25.132,28.437 25.132,48.462 0,32.742 -26.542,59.284 -59.284,59.284 -20.025,0 -37.729,-9.929 -48.462,-25.132 9.654,6.816 21.435,10.822 34.152,10.822 32.741,0 59.284,-26.542 59.284,-59.284 0,-12.717 -4.006,-24.498 -10.822,-34.152z"/>
     <path class="fil5" d="M492.65 265.789c1.254,4.309 1.93,8.859 1.93,13.559l0 0.001c0,26.847 -21.966,48.814 -48.814,48.814l-166.588 0c-26.848,0 -48.814,-21.967 -48.814,-48.814l0 -0.001c0,-4.7 0.675,-9.25 1.93,-13.559 5.913,20.306 24.736,35.255 46.884,35.255l166.588 0c22.148,0 40.971,-14.949 46.884,-35.255z"/>
    </g>
   </g>
   <path class="fil3 str0" d="M324.612 137.844c-34.226,0 -63.945,19.045 -78.908,46.99 -1.59,-0.131 -3.197,-0.202 -4.821,-0.202 -27.858,0 -51.083,19.827 -56.341,46.139 -17.56,8.189 -29.808,26.029 -29.808,46.594l0 0c0,28.255 23.117,51.372 51.371,51.372l237.012 0c28.255,0 51.372,-23.117 51.372,-51.372l0 0c0,-28.255 -23.117,-51.372 -51.372,-51.372l-0.384 0c-4.326,-14.285 -17.245,-24.835 -32.742,-25.637 -11.114,-36.178 -45.131,-62.512 -85.379,-62.512z"/>
   <path class="fil6" d="M197.81 222.924c24.963,0 46.639,13.89 57.553,34.273 1.159,-0.096 2.331,-0.147 3.516,-0.147 20.319,0 37.259,14.461 41.094,33.653 12.808,5.972 21.741,18.984 21.741,33.984l0 0c0,20.608 -16.861,37.469 -37.469,37.469l-172.871 0c-20.608,0 -37.469,-16.861 -37.469,-37.469l0 0c0,-20.608 16.861,-37.469 37.469,-37.469l0.28 0c3.156,-10.419 12.578,-18.114 23.882,-18.699 8.106,-26.388 32.918,-45.595 62.274,-45.595z"/>
   <g style="clip-path:url(#id2)">
    <g>
     <path id="1" class="fil1" d="M78.516 374.751c15.203,10.733 25.132,28.437 25.132,48.462 0,32.742 -26.542,59.284 -59.284,59.284 -20.025,0 -37.729,-9.929 -48.462,-25.132 9.654,6.816 21.435,10.822 34.152,10.822 32.741,0 59.284,-26.542 59.284,-59.284 0,-12.717 -4.006,-24.498 -10.822,-34.152z"/>
     <path class="fil0" d="M327.406 323.319c0.76,2.601 1.167,5.327 1.167,8.136l0 0c0,17.685 -16.08,32.155 -35.734,32.155l-187.712 0c-19.654,0 -35.734,-14.47 -35.734,-32.155l0 0c0,-2.809 0.407,-5.535 1.168,-8.136 4.03,13.78 18.033,24.019 34.566,24.019l187.712 0c16.534,0 30.536,-10.239 34.567,-24.019z"/>
    </g>
   </g>
   <path class="fil3 str0" d="M197.81 222.924c24.963,0 46.639,13.89 57.553,34.273 1.159,-0.096 2.331,-0.147 3.516,-0.147 20.319,0 37.259,14.461 41.094,33.653 12.808,5.972 21.741,18.984 21.741,33.984l0 0c0,20.608 -16.861,37.469 -37.469,37.469l-172.871 0c-20.608,0 -37.469,-16.861 -37.469,-37.469l0 0c0,-20.608 16.861,-37.469 37.469,-37.469l0.28 0c3.156,-10.419 12.578,-18.114 23.882,-18.699 8.106,-26.388 32.918,-45.595 62.274,-45.595z"/>
  </g>
 </g>
</svg>
