<?xml version="1.0" encoding="UTF-8"?>
<!DOCTYPE svg PUBLIC "-//W3C//DTD SVG 1.1//EN" "http://www.w3.org/Graphics/SVG/1.1/DTD/svg11.dtd">
<!-- Creator: CorelDRAW 2019 -->
<svg xmlns="http://www.w3.org/2000/svg" xml:space="preserve" width="500px" height="500px" version="1.1" style="shape-rendering:geometricPrecision; text-rendering:geometricPrecision; image-rendering:optimizeQuality; fill-rule:evenodd; clip-rule:evenodd"
viewBox="0 0 500 500"
 xmlns:xlink="http://www.w3.org/1999/xlink"
 xmlns:xodm="http://www.corel.com/coreldraw/odm/2003">
 <defs>
  <style type="text/css">
   <![CDATA[
    .str1 {stroke:black;stroke-width:5;stroke-miterlimit:22.9256}
    .str0 {stroke:#333333;stroke-width:5;stroke-miterlimit:22.9256}
    .fil1 {fill:#E6E6E6}
    .fil0 {fill:#FFFF66}
   ]]>
  </style>
 </defs>
 <g id="Layer_x0020_1">
  <metadata id="CorelCorpID_0Corel-Layer"/>
  <path class="fil0 str0" d="M67.449 233.66l31.234 0c7.608,0 13.832,6.224 13.832,13.832l0 0c0,7.608 -6.224,13.832 -13.832,13.832l-31.234 0c-7.608,0 -13.832,-6.224 -13.832,-13.832l0 0c0,-7.608 6.224,-13.832 13.832,-13.832zm165.958 -82.836c53.476,0 96.826,43.351 96.826,96.826 0,53.475 -43.35,96.826 -96.826,96.826 -53.475,0 -96.825,-43.351 -96.825,-96.826 0,-53.475 43.35,-96.826 96.825,-96.826zm-107.458 -30.417l22.086 22.087c5.38,5.379 5.38,14.181 0,19.561l0 0c-5.379,5.379 -14.182,5.379 -19.561,0l-22.086 -22.086c-5.38,-5.38 -5.38,-14.182 0,-19.562l0 0c5.379,-5.379 14.182,-5.379 19.561,0zm212.392 212.838l22.086 22.086c5.379,5.379 5.379,14.182 0,19.561l0 0c-5.38,5.38 -14.182,5.38 -19.562,0l-22.086 -22.086c-5.379,-5.379 -5.379,-14.182 0,-19.561l0 0c5.38,-5.38 14.182,-5.38 19.562,0zm-19.562 -190.751l22.086 -22.087c5.379,-5.379 14.182,-5.379 19.561,0l0 0c5.38,5.38 5.38,14.182 0.001,19.562l-22.087 22.086c-5.379,5.379 -14.181,5.379 -19.561,0l0 0c-5.38,-5.38 -5.38,-14.182 0,-19.561zm-212.391 212.837l22.086 -22.086c5.379,-5.38 14.182,-5.38 19.561,0l0 0c5.38,5.38 5.38,14.182 0,19.562l-22.086 22.086c-5.379,5.379 -14.182,5.379 -19.561,0l0 0c-5.38,-5.38 -5.38,-14.183 0,-19.562zm113.03 -242.405l0 -31.234c0,-7.608 6.224,-13.833 13.832,-13.833l0 0c7.607,0 13.832,6.225 13.832,13.833l0 31.234c0,7.608 -6.225,13.832 -13.832,13.832l0 0c-7.608,0 -13.832,-6.224 -13.832,-13.832zm0.315 300.682l0 -31.234c0,-7.608 6.224,-13.832 13.832,-13.832l0 0c7.608,0 13.832,6.224 13.832,13.832l0 31.234c0,7.608 -6.224,13.833 -13.832,13.833l0 0c-7.608,0 -13.832,-6.225 -13.832,-13.833zm148.398 -179.632l31.234 0c7.608,0 13.832,6.224 13.832,13.831l0 0c0,7.608 -6.224,13.833 -13.832,13.833l-31.234 0c-7.608,0 -13.832,-6.225 -13.832,-13.833l0 0c0,-7.607 6.224,-13.831 13.832,-13.831z"/>
  <path class="fil1 str1" d="M314.157 283.558c26.64,0 49.772,14.823 61.419,36.575 1.237,-0.102 2.488,-0.158 3.752,-0.158 21.683,0 39.761,15.433 43.853,35.913 13.669,6.374 23.202,20.26 23.202,36.267l0 0c0,21.992 -17.993,39.986 -39.985,39.986l-184.481 0c-21.992,0 -39.986,-17.994 -39.986,-39.986l0 0c0,-21.992 17.994,-39.986 39.986,-39.986l0.299 0c3.368,-11.118 13.423,-19.33 25.485,-19.954 8.651,-28.16 35.129,-48.657 66.456,-48.657z"/>
 </g>
</svg>
