<?xml version="1.0" encoding="UTF-8"?>
<!DOCTYPE svg PUBLIC "-//W3C//DTD SVG 1.1//EN" "http://www.w3.org/Graphics/SVG/1.1/DTD/svg11.dtd">
<!-- Creator: CorelDRAW 2019 -->
<svg xmlns="http://www.w3.org/2000/svg" xml:space="preserve" width="500px" height="500px" version="1.1" style="shape-rendering:geometricPrecision; text-rendering:geometricPrecision; image-rendering:optimizeQuality; fill-rule:evenodd; clip-rule:evenodd"
viewBox="0 0 500 500"
 xmlns:xlink="http://www.w3.org/1999/xlink"
 xmlns:xodm="http://www.corel.com/coreldraw/odm/2003">
 <defs>
  <style type="text/css">
   <![CDATA[
    .str2 {stroke:black;stroke-miterlimit:22.9256}
    .str1 {stroke:black;stroke-width:5;stroke-miterlimit:22.9256}
    .str0 {stroke:#333333;stroke-width:5;stroke-miterlimit:22.9256}
    .fil4 {fill:none}
    .fil6 {fill:#B3B3B3}
    .fil5 {fill:#E6E6E6}
    .fil2 {fill:#FFCC00}
    .fil1 {fill:#FFCC00}
    .fil0 {fill:#FFFF66}
    .fil3 {fill:#FFFF99}
    .fil7 {fill:white}
   ]]>
  </style>
   <clipPath id="id0">
    <path d="M64.032 234.323l35 0c8.525,0 15.5,6.975 15.5,15.5l0 0c0,8.525 -6.975,15.5 -15.5,15.5l-35 0c-8.525,0 -15.5,-6.975 -15.5,-15.5l0 0c0,-8.525 6.975,-15.5 15.5,-15.5zm185.968 -92.823c59.923,0 108.5,48.577 108.5,108.5 0,59.923 -48.577,108.5 -108.5,108.5 -59.923,0 -108.5,-48.577 -108.5,-108.5 0,-59.923 48.577,-108.5 108.5,-108.5zm-120.414 -34.085l24.749 24.749c6.028,6.028 6.028,15.892 0,21.92l0 0c-6.029,6.029 -15.892,6.029 -21.92,0.001l-24.749 -24.75c-6.028,-6.027 -6.028,-15.891 0,-21.92l0 0c6.028,-6.028 15.892,-6.028 21.92,0zm238 238.5l24.749 24.749c6.028,6.028 6.028,15.892 0,21.92l0 0c-6.029,6.028 -15.892,6.028 -21.92,0l-24.749 -24.749c-6.028,-6.028 -6.028,-15.892 0,-21.92l0 0c6.028,-6.028 15.892,-6.028 21.92,0zm-21.921 -213.751l24.749 -24.749c6.028,-6.028 15.892,-6.028 21.92,0l0 0c6.028,6.029 6.028,15.893 0,21.92l-24.749 24.75c-6.028,6.028 -15.891,6.028 -21.92,0l0 0c-6.028,-6.029 -6.028,-15.893 0,-21.921zm-237.999 238.501l24.749 -24.75c6.028,-6.028 15.891,-6.028 21.919,0l0 0c6.029,6.029 6.029,15.893 0.001,21.921l-24.749 24.749c-6.028,6.028 -15.892,6.028 -21.92,0l0 0c-6.028,-6.029 -6.028,-15.893 0,-21.92zm126.658 -271.633l0 -35.001c0,-8.525 6.974,-15.5 15.499,-15.5l0 0c8.526,0 15.5,6.975 15.5,15.5l0 35.001c0,8.525 -6.974,15.499 -15.5,15.499l0 0c-8.525,0 -15.499,-6.974 -15.499,-15.499zm166.644 135.645l35 0c8.525,0 15.5,6.974 15.5,15.5l0 0c0,8.525 -6.975,15.499 -15.5,15.499l-35 0c-8.525,0 -15.5,-6.974 -15.5,-15.499l0 0c0,-8.526 6.975,-15.5 15.5,-15.5z"/>
   </clipPath>
   <clipPath id="id1">
    <path d="M314.157 283.558c26.64,0 49.772,14.823 61.419,36.575 1.237,-0.102 2.488,-0.158 3.752,-0.158 21.683,0 39.761,15.433 43.853,35.913 13.669,6.374 23.202,20.26 23.202,36.267l0 0c0,21.992 -17.993,39.986 -39.985,39.986l-184.481 0c-21.992,0 -39.986,-17.994 -39.986,-39.986l0 0c0,-21.992 17.994,-39.986 39.986,-39.986l0.299 0c3.368,-11.118 13.423,-19.33 25.485,-19.954 8.651,-28.16 35.129,-48.657 66.456,-48.657z"/>
   </clipPath>
 </defs>
 <g id="Layer_x0020_1">
  <metadata id="CorelCorpID_0Corel-Layer"/>
  <path class="fil0" d="M64.032 234.323l35 0c8.525,0 15.5,6.975 15.5,15.5l0 0c0,8.525 -6.975,15.5 -15.5,15.5l-35 0c-8.525,0 -15.5,-6.975 -15.5,-15.5l0 0c0,-8.525 6.975,-15.5 15.5,-15.5zm185.968 -92.823c59.923,0 108.5,48.577 108.5,108.5 0,59.923 -48.577,108.5 -108.5,108.5 -59.923,0 -108.5,-48.577 -108.5,-108.5 0,-59.923 48.577,-108.5 108.5,-108.5zm-120.414 -34.085l24.749 24.749c6.028,6.028 6.028,15.892 0,21.92l0 0c-6.029,6.029 -15.892,6.029 -21.92,0.001l-24.749 -24.75c-6.028,-6.027 -6.028,-15.891 0,-21.92l0 0c6.028,-6.028 15.892,-6.028 21.92,0zm238 238.5l24.749 24.749c6.028,6.028 6.028,15.892 0,21.92l0 0c-6.029,6.028 -15.892,6.028 -21.92,0l-24.749 -24.749c-6.028,-6.028 -6.028,-15.892 0,-21.92l0 0c6.028,-6.028 15.892,-6.028 21.92,0zm-21.921 -213.751l24.749 -24.749c6.028,-6.028 15.892,-6.028 21.92,0l0 0c6.028,6.029 6.028,15.893 0,21.92l-24.749 24.75c-6.028,6.028 -15.891,6.028 -21.92,0l0 0c-6.028,-6.029 -6.028,-15.893 0,-21.921zm-237.999 238.501l24.749 -24.75c6.028,-6.028 15.891,-6.028 21.919,0l0 0c6.029,6.029 6.029,15.893 0.001,21.921l-24.749 24.749c-6.028,6.028 -15.892,6.028 -21.92,0l0 0c-6.028,-6.029 -6.028,-15.893 0,-21.92zm126.658 -271.633l0 -35.001c0,-8.525 6.974,-15.5 15.499,-15.5l0 0c8.526,0 15.5,6.975 15.5,15.5l0 35.001c0,8.525 -6.974,15.499 -15.5,15.499l0 0c-8.525,0 -15.499,-6.974 -15.499,-15.499zm166.644 135.645l35 0c8.525,0 15.5,6.974 15.5,15.5l0 0c0,8.525 -6.975,15.499 -15.5,15.499l-35 0c-8.525,0 -15.5,-6.974 -15.5,-15.499l0 0c0,-8.526 6.975,-15.5 15.5,-15.5z"/>
  <g style="clip-path:url(#id0)">
   <g id="_948018952">
    <path id="1" class="fil1" d="M327.076 177.117c23.645,19.864 38.679,49.647 38.679,82.945 0,59.807 -48.483,108.29 -108.29,108.29 -41.925,0 -78.282,-23.828 -96.277,-58.678 18.823,15.814 43.102,25.344 69.61,25.344 59.807,0 108.29,-48.483 108.29,-108.289 0,-17.882 -4.337,-34.749 -12.012,-49.612z"/>
    <path class="fil2" d="M114.696 234.323c0.503,2.264 0.777,4.68 0.777,7.186l0 0.001c0,12.681 -6.975,23.056 -15.5,23.056l-35.001 0c-8.525,0 -15.499,-10.375 -15.499,-23.056l0 -0.001c0,-0.923 0.038,-1.833 0.11,-2.729 2.042,9.19 7.882,15.87 14.722,15.87l35.001 0c7.905,0 14.475,-8.92 15.39,-20.327z"/>
    <path class="fil2" d="M451.363 266.188c0.503,-2.264 0.777,-4.68 0.777,-7.186l0 -0.001c0,-12.681 -6.975,-23.056 -15.5,-23.056l-35.001 0c-8.524,0 -15.499,10.375 -15.499,23.056l0 0.001c0,0.923 0.038,1.833 0.11,2.729 2.042,-9.19 7.883,-15.87 14.723,-15.87l35.001 0c7.904,0 14.474,8.92 15.389,20.327z"/>
    <path class="fil2" d="M164.407 141.362c-1.245,1.957 -2.76,3.858 -4.532,5.631l-0.001 0.001c-8.966,8.966 -21.235,11.371 -27.263,5.343l-24.749 -24.75c-6.028,-6.028 -3.624,-18.296 5.343,-27.262l0.001 -0.001c0.652,-0.653 1.323,-1.27 2.007,-1.852 -5.054,7.942 -5.647,16.795 -0.811,21.632l24.75 24.749c5.589,5.59 16.542,3.928 25.255,-3.491z"/>
    <path class="fil2" d="M141.82 334.897c1.956,1.245 3.858,2.759 5.63,4.532l0.001 0c8.967,8.967 11.371,21.235 5.343,27.263l-24.75 24.75c-6.027,6.028 -18.296,3.623 -27.262,-5.343l-0.001 -0.001c-0.653,-0.653 -1.269,-1.324 -1.852,-2.008 7.942,5.055 16.796,5.648 21.632,0.811l24.75 -24.749c5.589,-5.589 3.928,-16.543 -3.491,-25.255z"/>
    <path class="fil2" d="M236.018 385.843c2.264,-0.503 4.68,-0.777 7.186,-0.777l0.001 0c12.681,0 23.056,6.975 23.056,15.499l0 35.002c0,8.524 -10.375,15.499 -23.056,15.499l-0.001 0c-0.923,0 -1.833,-0.038 -2.729,-0.11 9.19,-2.042 15.87,-7.883 15.87,-14.723l0 -35.001c0,-7.904 -8.92,-14.474 -20.327,-15.389z"/>
    <path class="fil2" d="M335.539 357.101c1.245,-1.957 2.76,-3.858 4.532,-5.631l0.001 -0.001c8.967,-8.966 21.235,-11.37 27.263,-5.343l24.75 24.75c6.028,6.028 3.623,18.296 -5.344,27.263l0 0c-0.653,0.653 -1.324,1.27 -2.008,1.852 5.054,-7.942 5.647,-16.795 0.811,-21.632l-24.749 -24.749c-5.59,-5.589 -16.543,-3.928 -25.256,3.491z"/>
    <path class="fil2" d="M356.844 163.996c-1.957,-1.245 -3.858,-2.759 -5.631,-4.532l-0.001 0c-8.966,-8.967 -11.37,-21.235 -5.343,-27.263l24.75 -24.75c6.028,-6.028 18.296,-3.623 27.263,5.343l0 0.001c0.653,0.653 1.27,1.324 1.852,2.008 -7.942,-5.055 -16.795,-5.648 -21.632,-0.811l-24.749 24.749c-5.589,5.589 -3.928,16.543 3.491,25.255z"/>
    <path class="fil2" d="M264.595 113.788c-2.264,0.503 -4.68,0.777 -7.186,0.777l-0.001 0c-12.681,0 -23.056,-6.975 -23.056,-15.499l0 -35.001c0,-8.525 10.375,-15.5 23.056,-15.5l0.001 0c0.923,0 1.833,0.038 2.729,0.11 -9.19,2.042 -15.87,7.883 -15.87,14.723l0 35.001c0,7.904 8.92,14.474 20.327,15.389z"/>
    <circle class="fil3" cx="197.141" cy="207.566" r="58.333"/>
   </g>
  </g>
  <path class="fil4 str0" d="M64.032 234.323l35 0c8.525,0 15.5,6.975 15.5,15.5l0 0c0,8.525 -6.975,15.5 -15.5,15.5l-35 0c-8.525,0 -15.5,-6.975 -15.5,-15.5l0 0c0,-8.525 6.975,-15.5 15.5,-15.5zm185.968 -92.823c59.923,0 108.5,48.577 108.5,108.5 0,59.923 -48.577,108.5 -108.5,108.5 -59.923,0 -108.5,-48.577 -108.5,-108.5 0,-59.923 48.577,-108.5 108.5,-108.5zm-120.414 -34.085l24.749 24.749c6.028,6.028 6.028,15.892 0,21.92l0 0c-6.029,6.029 -15.892,6.029 -21.92,0.001l-24.749 -24.75c-6.028,-6.027 -6.028,-15.891 0,-21.92l0 0c6.028,-6.028 15.892,-6.028 21.92,0zm238 238.5l24.749 24.749c6.028,6.028 6.028,15.892 0,21.92l0 0c-6.029,6.028 -15.892,6.028 -21.92,0l-24.749 -24.749c-6.028,-6.028 -6.028,-15.892 0,-21.92l0 0c6.028,-6.028 15.892,-6.028 21.92,0zm-21.921 -213.751l24.749 -24.749c6.028,-6.028 15.892,-6.028 21.92,0l0 0c6.028,6.029 6.028,15.893 0,21.92l-24.749 24.75c-6.028,6.028 -15.891,6.028 -21.92,0l0 0c-6.028,-6.029 -6.028,-15.893 0,-21.921zm-237.999 238.501l24.749 -24.75c6.028,-6.028 15.891,-6.028 21.919,0l0 0c6.029,6.029 6.029,15.893 0.001,21.921l-24.749 24.749c-6.028,6.028 -15.892,6.028 -21.92,0l0 0c-6.028,-6.029 -6.028,-15.893 0,-21.92zm126.658 -271.633l0 -35.001c0,-8.525 6.974,-15.5 15.499,-15.5l0 0c8.526,0 15.5,6.975 15.5,15.5l0 35.001c0,8.525 -6.974,15.499 -15.5,15.499l0 0c-8.525,0 -15.499,-6.974 -15.499,-15.499zm166.644 135.645l35 0c8.525,0 15.5,6.974 15.5,15.5l0 0c0,8.525 -6.975,15.499 -15.5,15.499l-35 0c-8.525,0 -15.5,-6.974 -15.5,-15.499l0 0c0,-8.526 6.975,-15.5 15.5,-15.5z"/>
  <path class="fil5" d="M314.157 283.558c26.64,0 49.772,14.823 61.419,36.575 1.237,-0.102 2.488,-0.158 3.752,-0.158 21.683,0 39.761,15.433 43.853,35.913 13.669,6.374 23.202,20.26 23.202,36.267l0 0c0,21.992 -17.993,39.986 -39.985,39.986l-184.481 0c-21.992,0 -39.986,-17.994 -39.986,-39.986l0 0c0,-21.992 17.994,-39.986 39.986,-39.986l0.299 0c3.368,-11.118 13.423,-19.33 25.485,-19.954 8.651,-28.16 35.129,-48.657 66.456,-48.657z"/>
  <g style="clip-path:url(#id1)">
   <g id="_1285073512">
    <path id="1" class="fil6" d="M450.884 380.58c0.67,3.47 1.026,7.084 1.026,10.796l0 0c0,25.825 -17.166,46.954 -38.148,46.954l-197.703 0c-20.982,0 -38.149,-21.129 -38.149,-46.954l0 0c0,-3.712 0.357,-7.326 1.027,-10.796 3.989,20.666 19.156,36.158 37.122,36.158l197.703 0c17.966,0 33.133,-15.492 37.122,-36.158z"/>
    <path class="fil7" d="M247.396 332.327c6.848,-23.135 25.898,-41.837 51.182,-47.036 30.408,-6.255 60.241,8.995 73.726,35.349 -15.534,-16.439 -38.962,-24.703 -62.745,-19.813 -19.926,4.098 -35.981,16.581 -45.244,33.011 -3.565,-1.266 -7.403,-1.958 -11.403,-1.958 -1.879,0 -3.721,0.154 -5.516,0.447z"/>
    <path class="fil7" d="M217.14 382.78c-4.706,-22.883 10.029,-45.248 32.912,-49.954 19.044,-3.917 37.728,5.634 46.174,22.139 -9.729,-10.296 -24.402,-15.472 -39.297,-12.409 -22.883,4.706 -37.618,27.071 -32.912,49.954 0.789,3.838 2.078,7.446 3.78,10.773 -5.217,-5.522 -9.014,-12.515 -10.657,-20.503z"/>
   </g>
  </g>
  <path class="fil4 str1" d="M314.157 283.558c26.64,0 49.772,14.823 61.419,36.575 1.237,-0.102 2.488,-0.158 3.752,-0.158 21.683,0 39.761,15.433 43.853,35.913 13.669,6.374 23.202,20.26 23.202,36.267l0 0c0,21.992 -17.993,39.986 -39.985,39.986l-184.481 0c-21.992,0 -39.986,-17.994 -39.986,-39.986l0 0c0,-21.992 17.994,-39.986 39.986,-39.986l0.299 0c3.368,-11.118 13.423,-19.33 25.485,-19.954 8.651,-28.16 35.129,-48.657 66.456,-48.657z"/>
  <path class="fil4 str2" d="M667.489 343.585c-9.197,-44.719 19.6,-88.427 64.32,-97.624 37.218,-7.654 73.731,11.011 90.237,43.266 -19.013,-20.121 -47.689,-30.237 -76.798,-24.251 -44.719,9.197 -73.516,52.905 -64.319,97.625 1.542,7.501 4.06,14.552 7.387,21.053 -10.197,-10.791 -17.617,-24.458 -20.827,-40.069z"/>
 </g>
</svg>
