<?xml version="1.0" encoding="UTF-8"?>
<!DOCTYPE svg PUBLIC "-//W3C//DTD SVG 1.1//EN" "http://www.w3.org/Graphics/SVG/1.1/DTD/svg11.dtd">
<!-- Creator: CorelDRAW 2019 -->
<svg xmlns="http://www.w3.org/2000/svg" xml:space="preserve" width="500px" height="500px" version="1.1" style="shape-rendering:geometricPrecision; text-rendering:geometricPrecision; image-rendering:optimizeQuality; fill-rule:evenodd; clip-rule:evenodd"
viewBox="0 0 500 500"
 xmlns:xlink="http://www.w3.org/1999/xlink"
 xmlns:xodm="http://www.corel.com/coreldraw/odm/2003">
 <defs>
  <style type="text/css">
   <![CDATA[
    .str0 {stroke:black;stroke-width:5;stroke-miterlimit:22.9256}
    .fil0 {fill:#CCCCCC}
   ]]>
  </style>
 </defs>
 <g id="Layer_x0020_1">
  <metadata id="CorelCorpID_0Corel-Layer"/>
  <g id="_1046350008">
   <path class="fil0 str0" d="M203.985 43.781c30.077,-15.943 64.21,-13.629 102.101,3.694 43.721,22.581 70.679,73.377 39.001,119.516 -17.421,25.375 -54.191,26.624 -74.18,54.511 -31.653,47.769 -19.128,82.097 -3.694,102.101 -40.572,-8.903 -42.566,-48.055 -28.365,-113.127 15.644,-56.605 112.756,-40.253 73.736,-109.433 -15.6,-12.228 -32.996,-20.329 -53.882,-20.394 -20.103,-0.869 -34.118,3.327 -42.231,16.296 4.224,-3.047 9.408,-4.844 15.013,-4.844 14.186,0 25.687,11.5 25.687,25.686l0 0.016c0.029,0.434 0.045,0.872 0.045,1.314 0,2.153 -0.358,4.223 -1.018,6.152 0.397,-0.16 0.792,-0.32 1.193,-0.486 -6.028,19.203 -19.306,31.183 -39.58,36.194 -14.998,2.335 -30.37,-7.273 -41.051,-18.458 -16.351,-45.702 -8.96,-63.677 27.225,-98.738z"/>
   <path class="fil0 str0" d="M302.074 220.125c23.38,-12.394 49.916,-10.595 79.372,2.871 33.987,17.555 54.944,57.043 30.318,92.911 -13.543,19.725 -42.127,20.696 -57.666,42.375 -24.606,37.135 -14.869,63.821 -2.872,79.372 -31.539,-6.921 -33.09,-37.358 -22.05,-87.943 12.161,-44.003 87.655,-31.292 57.321,-85.071 -12.128,-9.506 -25.651,-15.804 -41.887,-15.854 -15.703,-0.679 -26.629,2.617 -32.921,12.814l-0.061 0.177c13.226,1.853 23.403,13.21 23.403,26.947 0,15.029 -12.184,27.213 -27.213,27.213 -11.64,0 -21.573,-7.31 -25.461,-17.589 -0.493,-0.484 -0.976,-0.972 -1.447,-1.466 -12.711,-35.528 -6.966,-49.501 21.164,-76.757z"/>
   <path class="fil0 str0" d="M176.849 198.291c-19.288,-10.225 -41.179,-8.741 -65.48,2.369 -28.039,14.482 -45.328,47.059 -25.012,76.649 11.173,16.274 34.754,17.075 47.574,34.959 20.299,30.635 12.266,52.651 2.368,65.48 26.02,-5.71 27.299,-30.819 18.192,-72.551 -10.033,-36.302 -72.313,-25.815 -47.289,-70.182 10.005,-7.842 21.161,-13.038 34.556,-13.08 12.954,-0.559 21.969,2.159 27.159,10.572 0.661,1.937 1.194,3.739 1.606,5.414 -2.966,-2.708 -6.912,-4.36 -11.245,-4.36 -9.211,0 -16.679,7.468 -16.679,16.679 0,6.48 3.694,12.097 9.092,14.858 4.264,3.947 9.701,6.725 16.291,8.353 9.618,1.499 19.478,-4.664 26.327,-11.837 10.486,-29.309 5.747,-40.837 -17.46,-63.323z"/>
   <path class="fil0 str0" d="M255.122 342.27c-13.401,-7.104 -28.61,-6.073 -45.493,1.646 -19.48,10.061 -31.492,32.694 -17.377,53.252 7.762,11.306 24.145,11.863 33.052,24.288 14.103,21.285 8.522,36.58 1.645,45.493 18.078,-3.967 18.966,-21.412 12.639,-50.406 -6.97,-25.221 -50.24,-17.935 -32.854,-48.759 6.951,-5.448 14.701,-9.058 24.008,-9.087 9,-0.389 15.263,1.5 18.869,7.344 0.459,1.347 0.829,2.598 1.115,3.762 -2.06,-1.881 -4.802,-3.029 -7.812,-3.029 -6.4,0 -11.588,5.188 -11.588,11.588 0,4.502 2.567,8.404 6.317,10.323 2.962,2.742 6.739,4.671 11.318,5.803 6.683,1.041 13.532,-3.241 18.291,-8.224 7.285,-20.363 3.993,-28.372 -12.13,-43.994z"/>
  </g>
  <path class="fil0 str0" d="M840.558 18.88c33.722,0 61.06,27.338 61.06,61.061 0,7.668 -1.417,15.005 -3.998,21.767l0.005 0 -0.017 0.03c-18.992,82.928 -88.306,189.093 -125.108,230.762 36.876,-69.438 64.679,-140.924 10.995,-230.792 -2.581,-6.762 -3.999,-14.099 -3.999,-21.767 0,-33.723 27.338,-61.061 61.062,-61.061z"/>
  <path class="fil0 str0" d="M742.535 150.544c-28.135,-4.915 -54.927,13.909 -59.842,42.044 -1.118,6.398 -1.005,12.725 0.163,18.743l-0.004 -0.001 0.01 0.027c3.759,71.955 46.114,170.63 70.745,210.758 -20.645,-63.307 -33.423,-126.999 24.464,-194.151 3.138,-5.265 5.39,-11.18 6.508,-17.578 4.915,-28.134 -13.909,-54.927 -42.044,-59.842z"/>
  <path class="fil0 str0" d="M840.56 304.837c-15.201,-5.412 -31.91,2.524 -37.322,17.725 -1.231,3.457 -1.769,6.991 -1.691,10.453l-0.002 -0.001 0.002 0.017c-4.746,40.428 9.461,99.406 19.363,124.094 -5.479,-37.217 -6.54,-73.902 32.08,-105.796 2.248,-2.633 4.065,-5.713 5.295,-9.17 5.412,-15.201 -2.524,-31.911 -17.725,-37.322z"/>
  <path class="fil0 str0" d="M932.513 148.559c22.83,0.971 40.551,20.266 39.58,43.096 -0.221,5.192 -1.392,10.118 -3.334,14.622l0.003 0 -0.012 0.02c-15.246,55.596 -100.629,196.433 -126.743,223.583 26.964,-45.948 83.246,-164.503 49.489,-226.89 -1.553,-4.652 -2.301,-9.659 -2.08,-14.851 0.97,-22.83 20.266,-40.551 43.097,-39.58z"/>
 </g>
</svg>
