<?xml version="1.0" encoding="UTF-8"?>
<!DOCTYPE svg PUBLIC "-//W3C//DTD SVG 1.1//EN" "http://www.w3.org/Graphics/SVG/1.1/DTD/svg11.dtd">
<!-- Creator: CorelDRAW 2019 -->
<svg xmlns="http://www.w3.org/2000/svg" xml:space="preserve" width="500px" height="500px" version="1.1" style="shape-rendering:geometricPrecision; text-rendering:geometricPrecision; image-rendering:optimizeQuality; fill-rule:evenodd; clip-rule:evenodd"
viewBox="0 0 500 500"
 xmlns:xlink="http://www.w3.org/1999/xlink"
 xmlns:xodm="http://www.corel.com/coreldraw/odm/2003">
 <defs>
  <style type="text/css">
   <![CDATA[
    .str0 {stroke:black;stroke-width:5;stroke-miterlimit:22.9256}
    .fil2 {fill:none}
    .fil1 {fill:#999999}
    .fil0 {fill:#CCCCCC}
    .fil3 {fill:#E6E6E6}
   ]]>
  </style>
   <clipPath id="id0">
    <path d="M203.985 43.781c30.077,-15.943 64.21,-13.629 102.101,3.694 43.721,22.581 70.679,73.377 39.001,119.516 -17.421,25.375 -54.191,26.624 -74.18,54.511 -31.653,47.769 -19.128,82.097 -3.694,102.101 -40.572,-8.903 -42.566,-48.055 -28.365,-113.127 15.644,-56.605 112.756,-40.253 73.736,-109.433 -15.6,-12.228 -32.996,-20.329 -53.882,-20.394 -20.103,-0.869 -34.118,3.327 -42.231,16.296 4.224,-3.047 9.408,-4.844 15.013,-4.844 14.186,0 25.687,11.5 25.687,25.686l0 0.016c0.029,0.434 0.045,0.872 0.045,1.314 0,2.153 -0.358,4.223 -1.018,6.152 0.397,-0.16 0.792,-0.32 1.193,-0.486 -6.028,19.203 -19.306,31.183 -39.58,36.194 -14.998,2.335 -30.37,-7.273 -41.051,-18.458 -16.351,-45.702 -8.96,-63.677 27.225,-98.738z"/>
   </clipPath>
   <clipPath id="id1">
    <path d="M305.157 224.777c21.857,-8.445 44.998,-4.082 69.485,10.847 28.043,18.998 42.329,55.915 16.915,84.869 -13.975,15.924 -39.209,13.78 -55.145,31.212 -25.528,30.07 -19.765,54.554 -10.847,69.485 -27.005,-9.392 -25.177,-36.315 -10.166,-79.635 15.306,-37.414 80.349,-18.322 59.318,-68.787 -9.666,-9.63 -20.896,-16.585 -35.166,-18.332 -13.669,-2.232 -23.591,-0.506 -30.193,7.697 3.135,-1.739 6.825,-2.544 10.656,-2.087 9.696,1.156 16.619,9.954 15.463,19.65l-0.001 0.011c-0.016,0.299 -0.04,0.6 -0.076,0.901 -0.176,1.472 -0.589,2.857 -1.197,4.122 0.283,-0.077 0.567,-0.153 0.854,-0.234 -5.685,12.633 -15.737,19.739 -30.002,21.512 -10.442,0.374 -20.166,-7.447 -26.554,-15.962 -7.451,-32.57 -0.935,-44.254 26.656,-65.269z"/>
   </clipPath>
   <clipPath id="id2">
    <path d="M165.509 165.76c-24.838,-9.598 -51.136,-4.639 -78.963,12.326 -31.867,21.59 -48.102,63.542 -19.222,96.445 15.882,18.096 44.558,15.661 62.666,35.469 29.011,34.172 22.462,61.996 12.328,78.963 30.688,-10.673 28.61,-41.268 11.552,-90.497 -17.393,-42.517 -91.309,-20.821 -67.409,-78.169 10.985,-10.944 23.746,-18.847 39.963,-20.832 15.534,-2.537 26.809,-0.577 34.311,8.745 -3.562,-1.975 -7.756,-2.89 -12.11,-2.371 -11.018,1.314 -18.885,11.312 -17.571,22.33l0.001 0.013c0.018,0.34 0.046,0.681 0.086,1.024 0.2,1.673 0.67,3.247 1.361,4.685 -0.323,-0.088 -0.644,-0.175 -0.971,-0.267 6.461,14.357 17.883,22.432 34.095,24.446 11.866,0.425 22.916,-8.462 30.176,-18.139 8.467,-37.013 1.061,-50.29 -30.293,-74.171z"/>
   </clipPath>
   <clipPath id="id3">
    <path d="M264.048 344.237c-14.087,-5.443 -29.001,-2.63 -44.783,6.991 -18.073,12.244 -27.28,36.037 -10.902,54.698 9.008,10.263 25.271,8.881 35.541,20.115 16.453,19.381 12.739,35.161 6.991,44.783 17.404,-6.053 16.226,-23.405 6.552,-51.324 -9.865,-24.113 -51.785,-11.808 -38.231,-44.333 6.23,-6.206 13.468,-10.688 22.665,-11.814 8.81,-1.439 15.204,-0.327 19.459,4.96 -2.02,-1.12 -4.399,-1.64 -6.868,-1.345 -6.249,0.745 -10.71,6.415 -9.965,12.664l0.001 0.007c0.009,0.193 0.025,0.387 0.048,0.581 0.113,0.949 0.38,1.842 0.772,2.657 -0.183,-0.05 -0.365,-0.099 -0.551,-0.151 3.664,8.142 10.142,12.722 19.337,13.864 6.729,0.241 12.996,-4.799 17.114,-10.287 4.801,-20.991 0.602,-28.521 -17.18,-42.066z"/>
   </clipPath>
 </defs>
 <g id="Layer_x0020_1">
  <metadata id="CorelCorpID_0Corel-Layer"/>
  <path class="fil0" d="M203.985 43.781c30.077,-15.943 64.21,-13.629 102.101,3.694 43.721,22.581 70.679,73.377 39.001,119.516 -17.421,25.375 -54.191,26.624 -74.18,54.511 -31.653,47.769 -19.128,82.097 -3.694,102.101 -40.572,-8.903 -42.566,-48.055 -28.365,-113.127 15.644,-56.605 112.756,-40.253 73.736,-109.433 -15.6,-12.228 -32.996,-20.329 -53.882,-20.394 -20.103,-0.869 -34.118,3.327 -42.231,16.296 4.224,-3.047 9.408,-4.844 15.013,-4.844 14.186,0 25.687,11.5 25.687,25.686l0 0.016c0.029,0.434 0.045,0.872 0.045,1.314 0,2.153 -0.358,4.223 -1.018,6.152 0.397,-0.16 0.792,-0.32 1.193,-0.486 -6.028,19.203 -19.306,31.183 -39.58,36.194 -14.998,2.335 -30.37,-7.273 -41.051,-18.458 -16.351,-45.702 -8.96,-63.677 27.225,-98.738z"/>
  <g style="clip-path:url(#id0)">
   <g id="_1285028040">
    <g>
     <path id="1" class="fil1" d="M346.056 355.51c-21.689,10.361 -13.972,31.509 -13.381,47.1l-7.347 0.204c-8.479,-2.143 -15.783,-15.288 -17.965,-22.689 -6.723,-22.805 2.306,-39.802 17.265,-55.748 8.597,-5.918 20.363,-3.745 26.281,4.852 5.917,8.597 3.744,20.364 -4.853,26.281z"/>
    </g>
    <path class="fil2" d="M335.342 339.943c-17.921,12.333 -24.734,45.992 -2.667,62.667"/>
    <g>
     <path class="fil1" d="M222.819 135.445c10.513,3.927 19.905,-26.86 -2.823,-13.531 -36.079,21.158 -49.041,-26.322 -19.369,-48.79 35.378,-26.788 105.186,-18.048 127.21,22.03 16.484,29.998 12.531,58.343 -17.999,74.616 -17.59,9.375 -46.866,17.632 -58.07,35.377 -6.107,9.672 -4.076,7.542 -11.74,17.708 -5.327,7.068 -11.227,21.374 -12.968,22.434l0.007 -0.122 -0.104 -0.019c-1.014,1.502 -0.449,1.034 -1.957,3.125 -1.494,-2.444 -2.042,-3.538 -0.283,-6.009 -0.189,0.123 -0.274,0.302 -0.375,0.316 4.566,-23.847 3.453,-15.237 13.103,-33.835l3.231 -9.604c7.093,-15.191 22.037,-24.795 35.816,-33.077 12.256,-7.367 39.236,-16.698 38.149,-33.689 -2.197,-34.338 -27.457,-44.532 -57.808,-45.534 -2.707,-0.089 -6.613,0.116 -10.955,0.688 17.17,6.901 27.328,26.137 21.415,49.847 -7.276,29.179 -29.867,41.16 -58.773,33.058 -9.662,-3.947 -14.295,-14.979 -10.348,-24.641 3.947,-9.662 14.979,-14.294 24.641,-10.348z"/>
    </g>
    <path class="fil2" d="M215.672 152.94c31.18,12.736 47.663,-37.521 24.839,-48.839 -26.142,-12.963 -39.079,24.57 -40.172,-3.161 -0.576,-14.602 29.038,-28.667 45.333,-28.667 31.881,0 65.867,6.144 76.667,40.724 9.594,30.717 -1.13,40.435 -26,52.838 -19.857,9.903 -47.265,21.494 -53.333,44.381 -0.55,2.073 -12.714,13.664 -16.61,32.781 -0.306,1.5 -1.39,-0.228 -1.39,5.276"/>
    <g>
     <path class="fil1" d="M211.007 165.837c-21.307,-3.14 -38.298,-16.843 -35.099,-39.781 7.253,-52.015 94.949,-11.485 64.643,11.602 -3.221,2.454 -7.092,4.066 -11.127,5.029 0.314,1.367 0.48,2.79 0.48,4.253 0,10.437 -8.461,18.897 -18.897,18.897zm6.983 -36.462l0.011 -0.007 -0.051 -0.009 0.04 0.016zm7.902 -5.028c0.548,-0.459 0.952,-0.868 1.173,-1.209l-0.264 0.002c-0.383,0.412 -0.682,0.813 -0.909,1.207zm-15.95 4.327c-1.582,0.164 -2.86,0.627 -3.573,1.55 0.356,0.235 2.287,-0.807 3.573,-1.55z"/>
    </g>
    <path class="fil2" d="M211.007 146.94c-25.065,0 -28.268,-41.621 9.828,-30.172 41.823,12.57 -16.802,26.843 -18.495,19.505"/>
    <g>
     <path class="fil3" d="M275.602 223.841c-8.776,3.559 -26.322,48.128 -23.33,61.196 3.969,17.339 10.341,34.317 17.402,50.57 -15.719,-16.193 -19.462,-25.347 -26.942,-46.879 -7.21,-20.757 8.229,-69.061 27.68,-80.022 4.18,-1.433 8.73,0.793 10.163,4.973 1.432,4.179 -0.794,8.729 -4.973,10.162z"/>
    </g>
    <path class="fil2" d="M273.007 216.273c-12.585,4.317 -31.154,56.008 -25.505,70.61 6.257,16.172 9.082,32.881 22.172,48.724"/>
   </g>
  </g>
  <path class="fil2 str0" d="M203.985 43.781c30.077,-15.943 64.21,-13.629 102.101,3.694 43.721,22.581 70.679,73.377 39.001,119.516 -17.421,25.375 -54.191,26.624 -74.18,54.511 -31.653,47.769 -19.128,82.097 -3.694,102.101 -40.572,-8.903 -42.566,-48.055 -28.365,-113.127 15.644,-56.605 112.756,-40.253 73.736,-109.433 -15.6,-12.228 -32.996,-20.329 -53.882,-20.394 -20.103,-0.869 -34.118,3.327 -42.231,16.296 4.224,-3.047 9.408,-4.844 15.013,-4.844 14.186,0 25.687,11.5 25.687,25.686l0 0.016c0.029,0.434 0.045,0.872 0.045,1.314 0,2.153 -0.358,4.223 -1.018,6.152 0.397,-0.16 0.792,-0.32 1.193,-0.486 -6.028,19.203 -19.306,31.183 -39.58,36.194 -14.998,2.335 -30.37,-7.273 -41.051,-18.458 -16.351,-45.702 -8.96,-63.677 27.225,-98.738z"/>
  <path class="fil0 str0" d="M840.558 18.88c33.722,0 61.06,27.338 61.06,61.061 0,7.668 -1.417,15.005 -3.998,21.767l0.005 0 -0.017 0.03c-18.992,82.928 -88.306,189.093 -125.108,230.762 36.876,-69.438 64.679,-140.924 10.995,-230.792 -2.581,-6.762 -3.999,-14.099 -3.999,-21.767 0,-33.723 27.338,-61.061 61.062,-61.061z"/>
  <path class="fil0 str0" d="M742.535 150.544c-28.135,-4.915 -54.927,13.909 -59.842,42.044 -1.118,6.398 -1.005,12.725 0.163,18.743l-0.004 -0.001 0.01 0.027c3.759,71.955 46.114,170.63 70.745,210.758 -20.645,-63.307 -33.423,-126.999 24.464,-194.151 3.138,-5.265 5.39,-11.18 6.508,-17.578 4.915,-28.134 -13.909,-54.927 -42.044,-59.842z"/>
  <path class="fil0 str0" d="M840.56 304.837c-15.201,-5.412 -31.91,2.524 -37.322,17.725 -1.231,3.457 -1.769,6.991 -1.691,10.453l-0.002 -0.001 0.002 0.017c-4.746,40.428 9.461,99.406 19.363,124.094 -5.479,-37.217 -6.54,-73.902 32.08,-105.796 2.248,-2.633 4.065,-5.713 5.295,-9.17 5.412,-15.201 -2.524,-31.911 -17.725,-37.322z"/>
  <path class="fil0 str0" d="M932.513 148.559c22.83,0.971 40.551,20.266 39.58,43.096 -0.221,5.192 -1.392,10.118 -3.334,14.622l0.003 0 -0.012 0.02c-15.246,55.596 -100.629,196.433 -126.743,223.583 26.964,-45.948 83.246,-164.503 49.489,-226.89 -1.553,-4.652 -2.301,-9.659 -2.08,-14.851 0.97,-22.83 20.266,-40.551 43.097,-39.58z"/>
  <path class="fil2" d="M244.008 118.609c-2.99,-7.174 -19.498,-14.191 -16,-21.333"/>
  <path class="fil0" d="M305.157 224.777c21.857,-8.445 44.998,-4.082 69.485,10.847 28.043,18.998 42.329,55.915 16.915,84.869 -13.975,15.924 -39.209,13.78 -55.145,31.212 -25.528,30.07 -19.765,54.554 -10.847,69.485 -27.005,-9.392 -25.177,-36.315 -10.166,-79.635 15.306,-37.414 80.349,-18.322 59.318,-68.787 -9.666,-9.63 -20.896,-16.585 -35.166,-18.332 -13.669,-2.232 -23.591,-0.506 -30.193,7.697 3.135,-1.739 6.825,-2.544 10.656,-2.087 9.696,1.156 16.619,9.954 15.463,19.65l-0.001 0.011c-0.016,0.299 -0.04,0.6 -0.076,0.901 -0.176,1.472 -0.589,2.857 -1.197,4.122 0.283,-0.077 0.567,-0.153 0.854,-0.234 -5.685,12.633 -15.737,19.739 -30.002,21.512 -10.442,0.374 -20.166,-7.447 -26.554,-15.962 -7.451,-32.57 -0.935,-44.254 26.656,-65.269z"/>
  <g style="clip-path:url(#id1)">
   <g id="_1285023048">
    <g>
     <path id="1" class="fil1" d="M376.854 449.425c-15.669,5.314 -12.118,20.398 -12.985,31.103l-5.039 -0.46c-5.62,-2.156 -9.541,-11.736 -10.429,-16.972 -2.737,-16.135 4.82,-27.017 16.344,-36.697 6.359,-3.344 14.224,-0.9 17.568,5.459 3.343,6.358 0.9,14.224 -5.459,17.567z"/>
    </g>
    <path class="fil2" d="M370.799 437.912c-13.254,6.968 -20.654,29.419 -6.93,42.616"/>
    <g>
     <path class="fil1" d="M310.558 288.965c6.866,3.541 15.795,-16.736 -0.826,-9.479 -26.385,11.521 -31.374,-21.988 -9.262,-34.926 26.364,-15.427 73.366,-3.763 85.153,25.426 8.822,21.847 3.809,40.899 -18.385,49.533 -12.787,4.974 -33.47,8.232 -42.575,19.447 -4.962,6.113 -3.4,4.823 -9.467,11.147 -4.217,4.396 -9.416,13.694 -10.692,14.276l0.014 -0.082 -0.069 -0.022c-0.816,0.944 -0.391,0.67 -1.593,1.977 -0.821,-1.793 -1.107,-2.585 0.297,-4.13 -0.139,0.068 -0.212,0.184 -0.282,0.185 5.065,-15.928 3.602,-10.133 11.714,-22.058l2.991 -6.302c6.086,-9.805 17.084,-15.151 27.176,-19.688 8.978,-4.037 28.179,-8.216 28.821,-19.917 1.297,-23.65 -15.137,-32.676 -35.8,-35.835 -1.843,-0.281 -4.53,-0.459 -7.544,-0.423 11.173,6.116 16.548,20.093 10.574,35.816 -7.352,19.351 -23.769,25.699 -42.866,17.805 -6.282,-3.485 -8.55,-11.403 -5.064,-17.685 3.485,-6.282 11.403,-8.55 17.685,-5.065z"/>
    </g>
    <path class="fil2" d="M304.248 300.34c20.273,11.247 35.635,-21.76 20.957,-31.356 -16.811,-10.991 -28.713,13.608 -27.199,-5.436 0.796,-10.027 22.184,-17.227 33.322,-15.898 21.79,2.598 44.519,9.567 49.082,34.083 4.054,21.778 -4.068,27.546 -22.077,33.996 -14.38,5.15 -34.058,10.839 -40.072,25.988 -0.544,1.372 -9.803,8.303 -14.024,21.052 -0.331,1 -0.932,-0.269 -1.381,3.493"/>
    <g>
     <path class="fil1" d="M300.007 308.775c-14.307,-3.883 -24.803,-14.633 -20.747,-30.051 9.197,-34.961 65.834,-0.111 43.238,13.199 -2.402,1.415 -5.179,2.201 -8.015,2.53 0.103,0.96 0.1,1.947 -0.019,2.946 -0.851,7.134 -7.323,12.227 -14.457,11.376zm7.745 -24.353l0.009 -0.003 -0.035 -0.011 0.026 0.014zm5.811 -2.792c0.412,-0.269 0.722,-0.516 0.901,-0.73l-0.181 -0.02c-0.296,0.249 -0.532,0.499 -0.72,0.75zm-11.255 1.657c-1.094,-0.016 -2.005,0.196 -2.568,0.769 0.224,0.19 1.629,-0.365 2.568,-0.769z"/>
    </g>
    <path class="fil2" d="M301.547 295.859c-17.131,-2.043 -15.928,-30.752 9.178,-19.821 27.561,12 -13.673,16.977 -14.232,11.824"/>
    <g>
     <path class="fil3" d="M339.43 353.686c-6.288,1.718 -21.914,30.75 -20.934,39.927 1.3,12.174 4.271,24.298 7.773,35.982 -9.425,-12.349 -11.237,-18.911 -14.594,-34.237 -3.236,-14.776 11.254,-46.533 25.442,-52.439 2.973,-0.639 5.902,1.253 6.54,4.227 0.639,2.973 -1.253,5.901 -4.227,6.54z"/>
    </g>
    <path class="fil2" d="M338.274 348.302c-8.954,1.925 -25.86,35.742 -23.188,46.183 2.958,11.564 3.527,23.215 11.183,35.11"/>
   </g>
  </g>
  <path class="fil2 str0" d="M305.157 224.777c21.857,-8.445 44.998,-4.082 69.485,10.847 28.043,18.998 42.329,55.915 16.915,84.869 -13.975,15.924 -39.209,13.78 -55.145,31.212 -25.528,30.07 -19.765,54.554 -10.847,69.485 -27.005,-9.392 -25.177,-36.315 -10.166,-79.635 15.306,-37.414 80.349,-18.322 59.318,-68.787 -9.666,-9.63 -20.896,-16.585 -35.166,-18.332 -13.669,-2.232 -23.591,-0.506 -30.193,7.697 3.135,-1.739 6.825,-2.544 10.656,-2.087 9.696,1.156 16.619,9.954 15.463,19.65l-0.001 0.011c-0.016,0.299 -0.04,0.6 -0.076,0.901 -0.176,1.472 -0.589,2.857 -1.197,4.122 0.283,-0.077 0.567,-0.153 0.854,-0.234 -5.685,12.633 -15.737,19.739 -30.002,21.512 -10.442,0.374 -20.166,-7.447 -26.554,-15.962 -7.451,-32.57 -0.935,-44.254 26.656,-65.269z"/>
  <path class="fil0" d="M165.509 165.76c-24.838,-9.598 -51.136,-4.639 -78.963,12.326 -31.867,21.59 -48.102,63.542 -19.222,96.445 15.882,18.096 44.558,15.661 62.666,35.469 29.011,34.172 22.462,61.996 12.328,78.963 30.688,-10.673 28.61,-41.268 11.552,-90.497 -17.393,-42.517 -91.309,-20.821 -67.409,-78.169 10.985,-10.944 23.746,-18.847 39.963,-20.832 15.534,-2.537 26.809,-0.577 34.311,8.745 -3.562,-1.975 -7.756,-2.89 -12.11,-2.371 -11.018,1.314 -18.885,11.312 -17.571,22.33l0.001 0.013c0.018,0.34 0.046,0.681 0.086,1.024 0.2,1.673 0.67,3.247 1.361,4.685 -0.323,-0.088 -0.644,-0.175 -0.971,-0.267 6.461,14.357 17.883,22.432 34.095,24.446 11.866,0.425 22.916,-8.462 30.176,-18.139 8.467,-37.013 1.061,-50.29 -30.293,-74.171z"/>
  <g style="clip-path:url(#id2)">
   <g id="_1285018896">
    <g>
     <path id="1" class="fil1" d="M84.033 421.05c17.806,6.039 13.771,23.18 14.756,35.345l5.726 -0.522c6.387,-2.45 10.843,-13.337 11.852,-19.287 3.11,-18.336 -5.477,-30.703 -18.574,-41.703 -7.226,-3.8 -16.164,-1.023 -19.963,6.203 -3.8,7.226 -1.023,16.164 6.203,19.964z"/>
    </g>
    <path class="fil2" d="M90.913 407.967c15.062,7.918 23.472,33.432 7.876,48.428"/>
    <g>
     <path class="fil1" d="M159.371 238.703c-7.802,4.024 -17.948,-19.019 0.94,-10.772 29.983,13.093 35.653,-24.987 10.525,-39.69 -29.961,-17.531 -83.374,-4.276 -96.768,28.894 -10.025,24.827 -4.329,46.477 20.892,56.289 14.531,5.653 38.035,9.355 48.382,22.1 5.639,6.948 3.865,5.481 10.758,12.668 4.793,4.996 10.701,15.561 12.152,16.223l-0.017 -0.093 0.079 -0.025c0.927,1.072 0.444,0.761 1.81,2.246 0.934,-2.037 1.258,-2.937 -0.337,-4.693 0.158,0.077 0.241,0.209 0.32,0.21 -5.755,-18.1 -4.093,-11.515 -13.311,-25.067l-3.399 -7.161c-6.917,-11.142 -19.414,-17.217 -30.884,-22.374 -10.202,-4.587 -32.022,-9.336 -32.752,-22.634 -1.474,-26.875 17.202,-37.133 40.684,-40.722 2.094,-0.32 5.147,-0.523 8.572,-0.481 -12.697,6.951 -18.805,22.833 -12.016,40.702 8.355,21.99 27.012,29.204 48.713,20.233 7.139,-3.96 9.716,-12.958 5.755,-20.098 -3.961,-7.139 -12.958,-9.716 -20.098,-5.755z"/>
    </g>
    <path class="fil2" d="M166.543 251.63c-23.038,12.781 -40.496,-24.729 -23.817,-35.634 19.104,-12.49 32.63,15.464 30.91,-6.177 -0.905,-11.395 -25.21,-19.577 -37.867,-18.067 -24.763,2.953 -50.592,10.873 -55.778,38.733 -4.606,24.747 4.624,31.302 25.089,38.633 16.341,5.853 38.704,12.317 45.537,29.532 0.619,1.559 11.141,9.436 15.938,23.923 0.377,1.137 1.059,-0.305 1.569,3.97"/>
    <g>
     <path class="fil1" d="M171.362 261.216c16.258,-4.413 28.186,-16.631 23.577,-34.151 -10.452,-39.73 -74.814,-0.126 -49.136,14.999 2.73,1.608 5.886,2.501 9.109,2.876 -0.118,1.09 -0.115,2.212 0.021,3.347 0.966,8.107 8.322,13.895 16.429,12.929zm-8.802 -27.675l-0.01 -0.004 0.04 -0.013 -0.03 0.017zm-6.603 -3.173c-0.469,-0.307 -0.821,-0.587 -1.024,-0.831l0.206 -0.022c0.335,0.283 0.604,0.568 0.818,0.853zm12.79 1.883c1.243,-0.019 2.278,0.222 2.918,0.873 -0.255,0.215 -1.851,-0.415 -2.918,-0.873z"/>
    </g>
    <path class="fil2" d="M169.611 246.537c19.468,-2.322 18.101,-34.946 -10.429,-22.525 -31.321,13.637 15.537,19.293 16.173,13.437"/>
    <g>
     <path class="fil3" d="M126.561 312.252c7.146,1.952 24.903,34.945 23.789,45.373 -1.477,13.835 -4.853,27.612 -8.832,40.89 10.71,-14.033 12.769,-21.49 16.584,-38.907 3.678,-16.791 -12.789,-52.88 -28.912,-59.592 -3.379,-0.726 -6.707,1.425 -7.433,4.803 -0.726,3.379 1.425,6.707 4.804,7.433z"/>
    </g>
    <path class="fil2" d="M127.875 306.134c10.175,2.187 29.387,40.617 26.351,52.482 -3.362,13.142 -4.009,26.382 -12.708,39.899"/>
   </g>
  </g>
  <path class="fil2 str0" d="M165.509 165.76c-24.838,-9.598 -51.136,-4.639 -78.963,12.326 -31.867,21.59 -48.102,63.542 -19.222,96.445 15.882,18.096 44.558,15.661 62.666,35.469 29.011,34.172 22.462,61.996 12.328,78.963 30.688,-10.673 28.61,-41.268 11.552,-90.497 -17.393,-42.517 -91.309,-20.821 -67.409,-78.169 10.985,-10.944 23.746,-18.847 39.963,-20.832 15.534,-2.537 26.809,-0.577 34.311,8.745 -3.562,-1.975 -7.756,-2.89 -12.11,-2.371 -11.018,1.314 -18.885,11.312 -17.571,22.33l0.001 0.013c0.018,0.34 0.046,0.681 0.086,1.024 0.2,1.673 0.67,3.247 1.361,4.685 -0.323,-0.088 -0.644,-0.175 -0.971,-0.267 6.461,14.357 17.883,22.432 34.095,24.446 11.866,0.425 22.916,-8.462 30.176,-18.139 8.467,-37.013 1.061,-50.29 -30.293,-74.171z"/>
  <path class="fil0" d="M264.048 344.237c-14.087,-5.443 -29.001,-2.63 -44.783,6.991 -18.073,12.244 -27.28,36.037 -10.902,54.698 9.008,10.263 25.271,8.881 35.541,20.115 16.453,19.381 12.739,35.161 6.991,44.783 17.404,-6.053 16.226,-23.405 6.552,-51.324 -9.865,-24.113 -51.785,-11.808 -38.231,-44.333 6.23,-6.206 13.468,-10.688 22.665,-11.814 8.81,-1.439 15.204,-0.327 19.459,4.96 -2.02,-1.12 -4.399,-1.64 -6.868,-1.345 -6.249,0.745 -10.71,6.415 -9.965,12.664l0.001 0.007c0.009,0.193 0.025,0.387 0.048,0.581 0.113,0.949 0.38,1.842 0.772,2.657 -0.183,-0.05 -0.365,-0.099 -0.551,-0.151 3.664,8.142 10.142,12.722 19.337,13.864 6.729,0.241 12.996,-4.799 17.114,-10.287 4.801,-20.991 0.602,-28.521 -17.18,-42.066z"/>
  <g style="clip-path:url(#id3)">
   <g id="_940884600">
    <g>
     <path id="1" class="fil1" d="M217.84 489.022c10.098,3.425 7.81,13.146 8.368,20.045l3.248 -0.296c3.622,-1.39 6.149,-7.564 6.722,-10.939 1.763,-10.399 -3.107,-17.412 -10.534,-23.651 -4.099,-2.155 -9.168,-0.58 -11.323,3.519 -2.154,4.098 -0.58,9.167 3.519,11.322z"/>
    </g>
    <path class="fil2" d="M221.742 481.602c8.542,4.49 13.311,18.96 4.466,27.465"/>
    <g>
     <path class="fil1" d="M260.567 385.606c-4.425,2.283 -10.18,-10.786 0.532,-6.109 17.005,7.425 20.221,-14.171 5.97,-22.51 -16.992,-9.942 -47.284,-2.425 -54.881,16.387 -5.685,14.081 -2.455,26.359 11.849,31.924 8.241,3.206 21.571,5.305 27.439,12.534 3.198,3.94 2.192,3.108 6.102,7.184 2.717,2.833 6.068,8.825 6.891,9.201l-0.01 -0.053 0.045 -0.014c0.526,0.608 0.252,0.431 1.026,1.273 0.53,-1.155 0.714,-1.665 -0.191,-2.662 0.09,0.045 0.137,0.119 0.182,0.12 -3.264,-10.265 -2.321,-6.531 -7.549,-14.216l-1.928 -4.062c-3.923,-6.319 -11.01,-9.764 -17.515,-12.689 -5.786,-2.601 -18.161,-5.294 -18.575,-12.836 -0.836,-15.242 9.756,-21.06 23.073,-23.095 1.188,-0.182 2.919,-0.297 4.862,-0.273 -7.201,3.942 -10.665,12.949 -6.815,23.083 4.738,12.472 15.319,16.563 27.627,11.475 4.049,-2.246 5.51,-7.349 3.264,-11.398 -2.246,-4.049 -7.35,-5.51 -11.398,-3.264z"/>
    </g>
    <path class="fil2" d="M264.634 392.937c-13.066,7.249 -22.967,-14.024 -13.507,-20.209 10.834,-7.083 18.505,8.771 17.53,-3.503 -0.514,-6.462 -14.298,-11.102 -21.476,-10.246 -14.044,1.674 -28.693,6.166 -31.634,21.966 -2.612,14.035 2.623,17.753 14.229,21.911 9.268,3.319 21.95,6.985 25.826,16.748 0.351,0.885 6.318,5.352 9.039,13.568 0.213,0.645 0.6,-0.173 0.889,2.251"/>
    <g>
     <path class="fil1" d="M267.367 398.374c9.22,-2.503 15.985,-9.432 13.371,-19.368 -5.927,-22.532 -42.429,-0.072 -27.866,8.507 1.548,0.911 3.337,1.418 5.166,1.63 -0.067,0.619 -0.065,1.255 0.011,1.899 0.549,4.598 4.72,7.88 9.318,7.332zm-4.992 -15.696l-0.005 -0.002 0.022 -0.007 -0.017 0.009zm-3.745 -1.799c-0.266,-0.174 -0.465,-0.333 -0.581,-0.471l0.117 -0.013c0.191,0.161 0.343,0.322 0.464,0.484zm7.253 1.068c0.706,-0.011 1.293,0.126 1.656,0.495 -0.144,0.122 -1.05,-0.235 -1.656,-0.495z"/>
    </g>
    <path class="fil2" d="M266.374 390.049c11.041,-1.316 10.266,-19.819 -5.915,-12.774 -17.763,7.734 8.812,10.941 9.173,7.62"/>
    <g>
     <path class="fil3" d="M241.959 427.319c4.052,1.107 14.123,19.818 13.491,25.732 -0.837,7.846 -2.752,15.66 -5.009,23.19 6.074,-7.958 7.242,-12.187 9.406,-22.065 2.086,-9.523 -7.253,-29.991 -16.397,-33.797 -1.917,-0.412 -3.804,0.808 -4.216,2.724 -0.411,1.916 0.808,3.804 2.725,4.216z"/>
    </g>
    <path class="fil2" d="M242.704 423.849c5.771,1.24 16.666,23.035 14.945,29.764 -1.907,7.453 -2.274,14.962 -7.208,22.628"/>
   </g>
  </g>
  <path class="fil2 str0" d="M264.048 344.237c-14.087,-5.443 -29.001,-2.63 -44.783,6.991 -18.073,12.244 -27.28,36.037 -10.902,54.698 9.008,10.263 25.271,8.881 35.541,20.115 16.453,19.381 12.739,35.161 6.991,44.783 17.404,-6.053 16.226,-23.405 6.552,-51.324 -9.865,-24.113 -51.785,-11.808 -38.231,-44.333 6.23,-6.206 13.468,-10.688 22.665,-11.814 8.81,-1.439 15.204,-0.327 19.459,4.96 -2.02,-1.12 -4.399,-1.64 -6.868,-1.345 -6.249,0.745 -10.71,6.415 -9.965,12.664l0.001 0.007c0.009,0.193 0.025,0.387 0.048,0.581 0.113,0.949 0.38,1.842 0.772,2.657 -0.183,-0.05 -0.365,-0.099 -0.551,-0.151 3.664,8.142 10.142,12.722 19.337,13.864 6.729,0.241 12.996,-4.799 17.114,-10.287 4.801,-20.991 0.602,-28.521 -17.18,-42.066z"/>
 </g>
</svg>
