<?xml version="1.0" encoding="UTF-8"?>
<!DOCTYPE svg PUBLIC "-//W3C//DTD SVG 1.1//EN" "http://www.w3.org/Graphics/SVG/1.1/DTD/svg11.dtd">
<!-- Creator: CorelDRAW 2019 -->
<svg xmlns="http://www.w3.org/2000/svg" xml:space="preserve" width="500px" height="500px" version="1.1" style="shape-rendering:geometricPrecision; text-rendering:geometricPrecision; image-rendering:optimizeQuality; fill-rule:evenodd; clip-rule:evenodd"
viewBox="0 0 500 500"
 xmlns:xlink="http://www.w3.org/1999/xlink"
 xmlns:xodm="http://www.corel.com/coreldraw/odm/2003">
 <defs>
  <style type="text/css">
   <![CDATA[
    .str0 {stroke:#333333;stroke-width:5;stroke-miterlimit:22.9256}
    .fil0 {fill:#FFFF66}
   ]]>
  </style>
 </defs>
 <g id="Layer_x0020_1">
  <metadata id="CorelCorpID_0Corel-Layer"/>
  <path class="fil0 str0" d="M64.032 234.323l35 0c8.525,0 15.5,6.975 15.5,15.5l0 0c0,8.525 -6.975,15.5 -15.5,15.5l-35 0c-8.525,0 -15.5,-6.975 -15.5,-15.5l0 0c0,-8.525 6.975,-15.5 15.5,-15.5zm185.968 -92.823c59.923,0 108.5,48.577 108.5,108.5 0,59.923 -48.577,108.5 -108.5,108.5 -59.923,0 -108.5,-48.577 -108.5,-108.5 0,-59.923 48.577,-108.5 108.5,-108.5zm-120.414 -34.085l24.749 24.749c6.028,6.028 6.028,15.892 0,21.92l0 0c-6.029,6.029 -15.892,6.029 -21.92,0.001l-24.749 -24.75c-6.028,-6.027 -6.028,-15.891 0,-21.92l0 0c6.028,-6.028 15.892,-6.028 21.92,0zm238 238.5l24.749 24.749c6.028,6.028 6.028,15.892 0,21.92l0 0c-6.029,6.028 -15.892,6.028 -21.92,0l-24.749 -24.749c-6.028,-6.028 -6.028,-15.892 0,-21.92l0 0c6.028,-6.028 15.892,-6.028 21.92,0zm-21.921 -213.751l24.749 -24.749c6.028,-6.028 15.892,-6.028 21.92,0l0 0c6.028,6.029 6.028,15.893 0,21.92l-24.749 24.75c-6.028,6.028 -15.891,6.028 -21.92,0l0 0c-6.028,-6.029 -6.028,-15.893 0,-21.921zm-237.999 238.501l24.749 -24.75c6.028,-6.028 15.891,-6.028 21.919,0l0 0c6.029,6.029 6.029,15.893 0.001,21.921l-24.749 24.749c-6.028,6.028 -15.892,6.028 -21.92,0l0 0c-6.028,-6.029 -6.028,-15.893 0,-21.92zm126.658 -271.633l0 -35.001c0,-8.525 6.974,-15.5 15.499,-15.5l0 0c8.526,0 15.5,6.975 15.5,15.5l0 35.001c0,8.525 -6.974,15.499 -15.5,15.499l0 0c-8.525,0 -15.499,-6.974 -15.499,-15.499zm0.353 336.936l0 -35c0,-8.525 6.975,-15.5 15.5,-15.5l0 0c8.525,0 15.5,6.975 15.5,15.5l0 35c0,8.525 -6.975,15.5 -15.5,15.5l0 0c-8.525,0 -15.5,-6.975 -15.5,-15.5zm166.291 -201.291l35 0c8.525,0 15.5,6.974 15.5,15.5l0 0c0,8.525 -6.975,15.499 -15.5,15.499l-35 0c-8.525,0 -15.5,-6.974 -15.5,-15.499l0 0c0,-8.526 6.975,-15.5 15.5,-15.5z"/>
 </g>
</svg>
