<?xml version="1.0" encoding="UTF-8"?>
<!DOCTYPE svg PUBLIC "-//W3C//DTD SVG 1.1//EN" "http://www.w3.org/Graphics/SVG/1.1/DTD/svg11.dtd">
<!-- Creator: CorelDRAW 2019 -->
<svg xmlns="http://www.w3.org/2000/svg" xml:space="preserve" width="500px" height="500px" version="1.1" style="shape-rendering:geometricPrecision; text-rendering:geometricPrecision; image-rendering:optimizeQuality; fill-rule:evenodd; clip-rule:evenodd"
viewBox="0 0 500 500"
 xmlns:xlink="http://www.w3.org/1999/xlink"
 xmlns:xodm="http://www.corel.com/coreldraw/odm/2003">
 <defs>
  <style type="text/css">
   <![CDATA[
    .str0 {stroke:black;stroke-width:5;stroke-miterlimit:22.9256}
    .str1 {stroke:#333300;stroke-width:5;stroke-miterlimit:22.9256}
    .fil3 {fill:none}
    .fil1 {fill:#00CCFF}
    .fil5 {fill:#666666}
    .fil2 {fill:gray}
    .fil4 {fill:#999999}
    .fil7 {fill:#99FFFF}
    .fil0 {fill:#B3B3B3}
    .fil9 {fill:#CCCC33}
    .fil6 {fill:#E6E6E6}
    .fil8 {fill:#FFFF66}
   ]]>
  </style>
    <clipPath id="id0">
     <path d="M148.788 98.056c21.478,0 40.129,11.952 49.519,29.49 0.998,-0.083 2.006,-0.128 3.025,-0.128 17.483,0 32.058,12.443 35.358,28.955 11.02,5.14 18.706,16.335 18.706,29.241l0 0c0,17.731 -14.507,32.239 -32.239,32.239l-148.739 0c-17.731,0 -32.239,-14.508 -32.239,-32.239l0 0c0,-17.732 14.508,-32.239 32.239,-32.239l0.241 0c2.716,-8.964 10.822,-15.585 20.548,-16.089 6.974,-22.704 28.323,-39.23 53.581,-39.23z"/>
    </clipPath>
    <clipPath id="id1">
     <path d="M316.736 73c-29.448,0 -55.019,16.386 -67.893,40.431 -1.368,-0.114 -2.75,-0.175 -4.148,-0.175 -23.969,0 -43.952,17.06 -48.476,39.699 -15.109,7.046 -25.647,22.396 -25.647,40.089l0 0.001c0,24.31 19.89,44.2 44.2,44.2l203.927 0c24.311,0 44.201,-19.89 44.201,-44.2l0 -0.001c0,-24.31 -19.89,-44.2 -44.201,-44.2l-0.33 0c-3.723,-12.29 -14.838,-21.368 -28.172,-22.058 -9.563,-31.128 -38.832,-53.786 -73.461,-53.786z"/>
    </clipPath>
    <clipPath id="id2">
     <path d="M207.634 146.203c21.479,0 40.13,11.952 49.52,29.49 0.997,-0.083 2.006,-0.128 3.025,-0.128 17.483,0 32.058,12.443 35.357,28.956 11.021,5.139 18.707,16.334 18.707,29.24l0 0c0,17.732 -14.507,32.239 -32.239,32.239l-148.739 0c-17.732,0 -32.239,-14.507 -32.239,-32.239l0 0c0,-17.731 14.507,-32.239 32.239,-32.239l0.241 0c2.715,-8.964 10.822,-15.585 20.548,-16.088 6.974,-22.704 28.322,-39.231 53.58,-39.231z"/>
    </clipPath>
    <clipPath id="id3">
     <path d="M116.267 326.714c0.63,1.162 1.129,2.404 1.482,3.706l0.328 1.454c0.18,1.001 0.273,2.031 0.273,3.083 0,9.568 -7.756,17.325 -17.324,17.325 -9.568,0 -17.325,-7.757 -17.325,-17.325 0,-1.052 0.094,-2.082 0.274,-3.083l0.37 -1.61c0.334,-1.187 0.791,-2.322 1.356,-3.391l15.315 -38.31 15.251 38.151z"/>
    </clipPath>
    <clipPath id="id4">
     <path d="M267.781 326.714c0.629,1.162 1.129,2.404 1.481,3.706l0.328 1.454c0.18,1.001 0.274,2.031 0.274,3.083 0,9.568 -7.756,17.325 -17.324,17.325 -9.568,0 -17.325,-7.757 -17.325,-17.325 0,-1.052 0.094,-2.082 0.274,-3.083l0.37 -1.61c0.334,-1.187 0.791,-2.322 1.356,-3.391l15.315 -38.31 15.251 38.151z"/>
    </clipPath>
    <clipPath id="id5">
     <path d="M419.295 326.714c0.629,1.162 1.129,2.404 1.481,3.706l0.328 1.454c0.18,1.001 0.274,2.031 0.274,3.083 0,9.568 -7.757,17.325 -17.324,17.325 -9.569,0 -17.325,-7.757 -17.325,-17.325 0,-1.052 0.094,-2.082 0.274,-3.083l0.37 -1.61c0.333,-1.187 0.79,-2.322 1.356,-3.391l15.314 -38.31 15.252 38.151z"/>
    </clipPath>
    <clipPath id="id6">
     <path d="M192.605 401.433c0.629,1.161 1.129,2.403 1.481,3.705l0.328 1.455c0.18,1 0.274,2.03 0.274,3.083 0,9.568 -7.756,17.324 -17.324,17.324 -9.568,0 -17.325,-7.756 -17.325,-17.324 0,-1.053 0.094,-2.083 0.274,-3.083l0.37 -1.611c0.334,-1.187 0.791,-2.322 1.356,-3.391l15.315 -38.309 15.251 38.151z"/>
    </clipPath>
    <clipPath id="id7">
     <path d="M342.964 401.433c0.629,1.161 1.128,2.403 1.481,3.705l0.328 1.455c0.18,1 0.273,2.03 0.273,3.083 0,9.568 -7.756,17.324 -17.324,17.324 -9.568,0 -17.324,-7.756 -17.324,-17.324 0,-1.053 0.093,-2.083 0.273,-3.083l0.37 -1.611c0.334,-1.187 0.791,-2.322 1.356,-3.391l15.315 -38.309 15.252 38.151z"/>
    </clipPath>
    <clipPath id="id8">
     <path d="M52.701 401.433c0.63,1.161 1.129,2.403 1.482,3.705l0.328 1.455c0.18,1 0.273,2.03 0.273,3.083 0,9.568 -7.756,17.324 -17.324,17.324 -9.568,0 -17.325,-7.756 -17.325,-17.324 0,-1.053 0.094,-2.083 0.274,-3.083l0.37 -1.611c0.334,-1.187 0.791,-2.322 1.356,-3.391l15.315 -38.309 15.251 38.151z"/>
    </clipPath>
    <clipPath id="id9">
     <path d="M477.781 401.433c0.63,1.161 1.129,2.403 1.481,3.705l0.329 1.455c0.179,1 0.273,2.03 0.273,3.083 0,9.568 -7.756,17.324 -17.324,17.324 -9.568,0 -17.325,-7.756 -17.325,-17.324 0,-1.053 0.094,-2.083 0.274,-3.083l0.37 -1.611c0.334,-1.187 0.791,-2.322 1.356,-3.391l15.315 -38.309 15.251 38.151z"/>
    </clipPath>
   <clipPath id="id10">
    <path d="M302.568 47.025l-98.321 95.602 49.161 31.867 -49.161 127.468 98.321 -127.468 -49.16 -31.867 49.16 -95.602z"/>
   </clipPath>
 </defs>
 <g id="Layer_x0020_1">
  <metadata id="CorelCorpID_0Corel-Layer"/>
  <g id="_1290475608">
   <path class="fil0" d="M148.788 98.056c21.478,0 40.129,11.952 49.519,29.49 0.998,-0.083 2.006,-0.128 3.025,-0.128 17.483,0 32.058,12.443 35.358,28.955 11.02,5.14 18.706,16.335 18.706,29.241l0 0c0,17.731 -14.507,32.239 -32.239,32.239l-148.739 0c-17.731,0 -32.239,-14.508 -32.239,-32.239l0 0c0,-17.732 14.508,-32.239 32.239,-32.239l0.241 0c2.716,-8.964 10.822,-15.585 20.548,-16.089 6.974,-22.704 28.323,-39.23 53.581,-39.23z"/>
   <g style="clip-path:url(#id0)">
    <g>
     <path id="1" class="fil1" d="M104.993 276.837c13.081,9.234 21.624,24.467 21.624,41.697 0,28.171 -22.837,51.008 -51.008,51.008 -17.23,0 -32.463,-8.543 -41.698,-21.623 8.307,5.864 18.443,9.311 29.385,9.311 28.171,0 51.009,-22.838 51.009,-51.009 0,-10.941 -3.447,-21.078 -9.312,-29.384z"/>
     <path class="fil2" d="M199.375 179.885c0.843,2.858 1.299,5.878 1.299,9l0 0c0,17.601 -14.4,32 -32,32l-97.334 0c-17.6,0 -32,-14.399 -32,-32l0 0c0,-3.122 0.455,-6.142 1.299,-9 3.912,13.255 16.223,23 30.701,23l97.334 0c14.478,0 26.789,-9.745 30.701,-23z"/>
    </g>
   </g>
   <path class="fil3 str0" d="M148.788 98.056c21.478,0 40.129,11.952 49.519,29.49 0.998,-0.083 2.006,-0.128 3.025,-0.128 17.483,0 32.058,12.443 35.358,28.955 11.02,5.14 18.706,16.335 18.706,29.241l0 0c0,17.731 -14.507,32.239 -32.239,32.239l-148.739 0c-17.731,0 -32.239,-14.508 -32.239,-32.239l0 0c0,-17.732 14.508,-32.239 32.239,-32.239l0.241 0c2.716,-8.964 10.822,-15.585 20.548,-16.089 6.974,-22.704 28.323,-39.23 53.581,-39.23z"/>
   <path class="fil4" d="M316.736 73c-29.448,0 -55.019,16.386 -67.893,40.431 -1.368,-0.114 -2.75,-0.175 -4.148,-0.175 -23.969,0 -43.952,17.06 -48.476,39.699 -15.109,7.046 -25.647,22.396 -25.647,40.089l0 0.001c0,24.31 19.89,44.2 44.2,44.2l203.927 0c24.311,0 44.201,-19.89 44.201,-44.2l0 -0.001c0,-24.31 -19.89,-44.2 -44.201,-44.2l-0.33 0c-3.723,-12.29 -14.838,-21.368 -28.172,-22.058 -9.563,-31.128 -38.832,-53.786 -73.461,-53.786z"/>
   <g style="clip-path:url(#id1)">
    <g>
     <path id="1" class="fil1" d="M104.993 276.837c13.081,9.234 21.624,24.467 21.624,41.697 0,28.171 -22.837,51.008 -51.008,51.008 -17.23,0 -32.463,-8.543 -41.698,-21.623 8.307,5.864 18.443,9.311 29.385,9.311 28.171,0 51.009,-22.838 51.009,-51.009 0,-10.941 -3.447,-21.078 -9.312,-29.384z"/>
     <path class="fil5" d="M461.317 183.085c1.08,3.708 1.661,7.622 1.661,11.666l0 0.001c0,23.1 -18.9,42 -42,42l-143.334 0c-23.1,0 -42,-18.9 -42,-42l0 -0.001c0,-4.044 0.582,-7.958 1.661,-11.666 5.088,17.471 21.283,30.333 40.339,30.333l143.334 0c19.056,0 35.252,-12.862 40.339,-30.333z"/>
    </g>
   </g>
   <path class="fil3 str0" d="M316.736 73c-29.448,0 -55.019,16.386 -67.893,40.431 -1.368,-0.114 -2.75,-0.175 -4.148,-0.175 -23.969,0 -43.952,17.06 -48.476,39.699 -15.109,7.046 -25.647,22.396 -25.647,40.089l0 0.001c0,24.31 19.89,44.2 44.2,44.2l203.927 0c24.311,0 44.201,-19.89 44.201,-44.2l0 -0.001c0,-24.31 -19.89,-44.2 -44.201,-44.2l-0.33 0c-3.723,-12.29 -14.838,-21.368 -28.172,-22.058 -9.563,-31.128 -38.832,-53.786 -73.461,-53.786z"/>
   <path class="fil6" d="M207.634 146.203c21.479,0 40.13,11.952 49.52,29.49 0.997,-0.083 2.006,-0.128 3.025,-0.128 17.483,0 32.058,12.443 35.357,28.956 11.021,5.139 18.707,16.334 18.707,29.24l0 0c0,17.732 -14.507,32.239 -32.239,32.239l-148.739 0c-17.732,0 -32.239,-14.507 -32.239,-32.239l0 0c0,-17.731 14.507,-32.239 32.239,-32.239l0.241 0c2.715,-8.964 10.822,-15.585 20.548,-16.088 6.974,-22.704 28.322,-39.231 53.58,-39.231z"/>
   <g style="clip-path:url(#id2)">
    <g>
     <path id="1" class="fil1" d="M104.993 276.837c13.081,9.234 21.624,24.467 21.624,41.697 0,28.171 -22.837,51.008 -51.008,51.008 -17.23,0 -32.463,-8.543 -41.698,-21.623 8.307,5.864 18.443,9.311 29.385,9.311 28.171,0 51.009,-22.838 51.009,-51.009 0,-10.941 -3.447,-21.078 -9.312,-29.384z"/>
     <path class="fil0" d="M319.14 232.584c0.654,2.238 1.005,4.584 1.005,7l0 0c0,15.217 -13.836,27.667 -30.746,27.667l-161.509 0c-16.911,0 -30.746,-12.45 -30.746,-27.667l0 0c0,-2.416 0.35,-4.762 1.005,-7 3.467,11.856 15.516,20.666 29.741,20.666l161.509 0c14.225,0 26.273,-8.81 29.741,-20.666z"/>
    </g>
   </g>
   <path class="fil3 str0" d="M207.634 146.203c21.479,0 40.13,11.952 49.52,29.49 0.997,-0.083 2.006,-0.128 3.025,-0.128 17.483,0 32.058,12.443 35.357,28.956 11.021,5.139 18.707,16.334 18.707,29.24l0 0c0,17.732 -14.507,32.239 -32.239,32.239l-148.739 0c-17.732,0 -32.239,-14.507 -32.239,-32.239l0 0c0,-17.731 14.507,-32.239 32.239,-32.239l0.241 0c2.715,-8.964 10.822,-15.585 20.548,-16.088 6.974,-22.704 28.322,-39.231 53.58,-39.231z"/>
   <path class="fil7" d="M116.267 326.714c0.63,1.162 1.129,2.404 1.482,3.706l0.328 1.454c0.18,1.001 0.273,2.031 0.273,3.083 0,9.568 -7.756,17.325 -17.324,17.325 -9.568,0 -17.325,-7.757 -17.325,-17.325 0,-1.052 0.094,-2.082 0.274,-3.083l0.37 -1.61c0.334,-1.187 0.791,-2.322 1.356,-3.391l15.315 -38.31 15.251 38.151z"/>
   <g style="clip-path:url(#id3)">
    <g>
     <path id="1" class="fil1" d="M104.993 276.837c13.081,9.234 21.624,24.467 21.624,41.697 0,28.171 -22.837,51.008 -51.008,51.008 -17.23,0 -32.463,-8.543 -41.698,-21.623 8.307,5.864 18.443,9.311 29.385,9.311 28.171,0 51.009,-22.838 51.009,-51.009 0,-10.941 -3.447,-21.078 -9.312,-29.384z"/>
    </g>
   </g>
   <path class="fil3 str0" d="M116.267 326.714c0.63,1.162 1.129,2.404 1.482,3.706l0.328 1.454c0.18,1.001 0.273,2.031 0.273,3.083 0,9.568 -7.756,17.325 -17.324,17.325 -9.568,0 -17.325,-7.757 -17.325,-17.325 0,-1.052 0.094,-2.082 0.274,-3.083l0.37 -1.61c0.334,-1.187 0.791,-2.322 1.356,-3.391l15.315 -38.31 15.251 38.151z"/>
   <path class="fil7" d="M267.781 326.714c0.629,1.162 1.129,2.404 1.481,3.706l0.328 1.454c0.18,1.001 0.274,2.031 0.274,3.083 0,9.568 -7.756,17.325 -17.324,17.325 -9.568,0 -17.325,-7.757 -17.325,-17.325 0,-1.052 0.094,-2.082 0.274,-3.083l0.37 -1.61c0.334,-1.187 0.791,-2.322 1.356,-3.391l15.315 -38.31 15.251 38.151z"/>
   <g style="clip-path:url(#id4)">
    <g>
     <path id="1" class="fil1" d="M256.507 276.837c13.081,9.234 21.624,24.467 21.624,41.697 0,28.171 -22.837,51.008 -51.008,51.008 -17.23,0 -32.463,-8.543 -41.698,-21.623 8.307,5.864 18.443,9.311 29.385,9.311 28.171,0 51.008,-22.838 51.008,-51.009 0,-10.941 -3.446,-21.078 -9.311,-29.384z"/>
    </g>
   </g>
   <path class="fil3 str0" d="M267.781 326.714c0.629,1.162 1.129,2.404 1.481,3.706l0.328 1.454c0.18,1.001 0.274,2.031 0.274,3.083 0,9.568 -7.756,17.325 -17.324,17.325 -9.568,0 -17.325,-7.757 -17.325,-17.325 0,-1.052 0.094,-2.082 0.274,-3.083l0.37 -1.61c0.334,-1.187 0.791,-2.322 1.356,-3.391l15.315 -38.31 15.251 38.151z"/>
   <path class="fil7" d="M419.295 326.714c0.629,1.162 1.129,2.404 1.481,3.706l0.328 1.454c0.18,1.001 0.274,2.031 0.274,3.083 0,9.568 -7.757,17.325 -17.324,17.325 -9.569,0 -17.325,-7.757 -17.325,-17.325 0,-1.052 0.094,-2.082 0.274,-3.083l0.37 -1.61c0.333,-1.187 0.79,-2.322 1.356,-3.391l15.314 -38.31 15.252 38.151z"/>
   <g style="clip-path:url(#id5)">
    <g>
     <path id="1" class="fil1" d="M408.021 276.837c13.081,9.234 21.624,24.467 21.624,41.697 0,28.171 -22.838,51.008 -51.009,51.008 -17.229,0 -32.462,-8.543 -41.697,-21.623 8.307,5.864 18.443,9.311 29.385,9.311 28.171,0 51.008,-22.838 51.008,-51.009 0,-10.941 -3.446,-21.078 -9.311,-29.384z"/>
    </g>
   </g>
   <path class="fil3 str0" d="M419.295 326.714c0.629,1.162 1.129,2.404 1.481,3.706l0.328 1.454c0.18,1.001 0.274,2.031 0.274,3.083 0,9.568 -7.757,17.325 -17.324,17.325 -9.569,0 -17.325,-7.757 -17.325,-17.325 0,-1.052 0.094,-2.082 0.274,-3.083l0.37 -1.61c0.333,-1.187 0.79,-2.322 1.356,-3.391l15.314 -38.31 15.252 38.151z"/>
   <path class="fil7" d="M192.605 401.433c0.629,1.161 1.129,2.403 1.481,3.705l0.328 1.455c0.18,1 0.274,2.03 0.274,3.083 0,9.568 -7.756,17.324 -17.324,17.324 -9.568,0 -17.325,-7.756 -17.325,-17.324 0,-1.053 0.094,-2.083 0.274,-3.083l0.37 -1.611c0.334,-1.187 0.791,-2.322 1.356,-3.391l15.315 -38.309 15.251 38.151z"/>
   <g style="clip-path:url(#id6)">
    <g>
     <path id="1" class="fil1" d="M181.331 351.555c13.081,9.235 21.624,24.468 21.624,41.697 0,28.171 -22.837,51.009 -51.008,51.009 -17.23,0 -32.463,-8.544 -41.698,-21.624 8.307,5.865 18.443,9.311 29.385,9.311 28.171,0 51.008,-22.837 51.008,-51.008 0,-10.942 -3.446,-21.079 -9.311,-29.385z"/>
    </g>
   </g>
   <path class="fil3 str0" d="M192.605 401.433c0.629,1.161 1.129,2.403 1.481,3.705l0.328 1.455c0.18,1 0.274,2.03 0.274,3.083 0,9.568 -7.756,17.324 -17.324,17.324 -9.568,0 -17.325,-7.756 -17.325,-17.324 0,-1.053 0.094,-2.083 0.274,-3.083l0.37 -1.611c0.334,-1.187 0.791,-2.322 1.356,-3.391l15.315 -38.309 15.251 38.151z"/>
   <path class="fil7" d="M342.964 401.433c0.629,1.161 1.128,2.403 1.481,3.705l0.328 1.455c0.18,1 0.273,2.03 0.273,3.083 0,9.568 -7.756,17.324 -17.324,17.324 -9.568,0 -17.324,-7.756 -17.324,-17.324 0,-1.053 0.093,-2.083 0.273,-3.083l0.37 -1.611c0.334,-1.187 0.791,-2.322 1.356,-3.391l15.315 -38.309 15.252 38.151z"/>
   <g style="clip-path:url(#id7)">
    <g>
     <path id="1" class="fil1" d="M331.69 351.555c13.08,9.235 21.623,24.468 21.623,41.697 0,28.171 -22.837,51.009 -51.008,51.009 -17.229,0 -32.462,-8.544 -41.697,-21.624 8.306,5.865 18.443,9.311 29.384,9.311 28.171,0 51.009,-22.837 51.009,-51.008 0,-10.942 -3.447,-21.079 -9.311,-29.385z"/>
    </g>
   </g>
   <path class="fil3 str0" d="M342.964 401.433c0.629,1.161 1.128,2.403 1.481,3.705l0.328 1.455c0.18,1 0.273,2.03 0.273,3.083 0,9.568 -7.756,17.324 -17.324,17.324 -9.568,0 -17.324,-7.756 -17.324,-17.324 0,-1.053 0.093,-2.083 0.273,-3.083l0.37 -1.611c0.334,-1.187 0.791,-2.322 1.356,-3.391l15.315 -38.309 15.252 38.151z"/>
   <path class="fil7" d="M52.701 401.433c0.63,1.161 1.129,2.403 1.482,3.705l0.328 1.455c0.18,1 0.273,2.03 0.273,3.083 0,9.568 -7.756,17.324 -17.324,17.324 -9.568,0 -17.325,-7.756 -17.325,-17.324 0,-1.053 0.094,-2.083 0.274,-3.083l0.37 -1.611c0.334,-1.187 0.791,-2.322 1.356,-3.391l15.315 -38.309 15.251 38.151z"/>
   <g style="clip-path:url(#id8)">
    <g>
     <path id="1" class="fil1" d="M41.427 351.555c13.081,9.235 21.624,24.468 21.624,41.697 0,28.171 -22.837,51.009 -51.008,51.009 -17.23,0 -32.463,-8.544 -41.698,-21.624 8.307,5.865 18.443,9.311 29.385,9.311 28.171,0 51.009,-22.837 51.009,-51.008 0,-10.942 -3.447,-21.079 -9.312,-29.385z"/>
    </g>
   </g>
   <path class="fil3 str0" d="M52.701 401.433c0.63,1.161 1.129,2.403 1.482,3.705l0.328 1.455c0.18,1 0.273,2.03 0.273,3.083 0,9.568 -7.756,17.324 -17.324,17.324 -9.568,0 -17.325,-7.756 -17.325,-17.324 0,-1.053 0.094,-2.083 0.274,-3.083l0.37 -1.611c0.334,-1.187 0.791,-2.322 1.356,-3.391l15.315 -38.309 15.251 38.151z"/>
   <path class="fil7" d="M477.781 401.433c0.63,1.161 1.129,2.403 1.481,3.705l0.329 1.455c0.179,1 0.273,2.03 0.273,3.083 0,9.568 -7.756,17.324 -17.324,17.324 -9.568,0 -17.325,-7.756 -17.325,-17.324 0,-1.053 0.094,-2.083 0.274,-3.083l0.37 -1.611c0.334,-1.187 0.791,-2.322 1.356,-3.391l15.315 -38.309 15.251 38.151z"/>
   <g style="clip-path:url(#id9)">
    <g>
     <path id="1" class="fil1" d="M466.507 351.555c13.081,9.235 21.624,24.468 21.624,41.697 0,28.171 -22.837,51.009 -51.008,51.009 -17.23,0 -32.463,-8.544 -41.698,-21.624 8.307,5.865 18.443,9.311 29.385,9.311 28.171,0 51.009,-22.837 51.009,-51.008 0,-10.942 -3.447,-21.079 -9.312,-29.385z"/>
    </g>
   </g>
   <path class="fil3 str0" d="M477.781 401.433c0.63,1.161 1.129,2.403 1.481,3.705l0.329 1.455c0.179,1 0.273,2.03 0.273,3.083 0,9.568 -7.756,17.324 -17.324,17.324 -9.568,0 -17.325,-7.756 -17.325,-17.324 0,-1.053 0.094,-2.083 0.274,-3.083l0.37 -1.611c0.334,-1.187 0.791,-2.322 1.356,-3.391l15.315 -38.309 15.251 38.151z"/>
  </g>
  <polygon class="fil8" points="302.568,47.025 204.247,142.627 253.408,174.494 204.247,301.962 302.568,174.494 253.408,142.627 "/>
  <g style="clip-path:url(#id10)">
   <g id="_1293912536">
    <polygon id="1" class="fil9" points="285.56,163.469 204.247,301.962 209.028,322.652 307.028,279.319 330.361,191.319 308.362,149.318 "/>
    <polygon class="fil9" points="250.713,188.986 259.696,164.032 195.958,125.652 161.029,150.698 "/>
   </g>
  </g>
  <polygon class="fil3 str1" points="302.568,47.025 204.247,142.627 253.408,174.494 204.247,301.962 302.568,174.494 253.408,142.627 "/>
 </g>
</svg>
